<svg version="1.0" xmlns="http://www.w3.org/2000/svg"  width="64.000000pt" height="64.000000pt" viewBox="0 0 64.000000 64.000000"  preserveAspectRatio="xMidYMid meet"><g transform="translate(0.000000,64.000000) scale(0.100000,-0.100000)" fill="#000000" stroke="none"><path d="M52 588 c-17 -17 -17 -519 0 -536 17 -17 519 -17 536 0 17 17 17 519 0 536 -17 17 -519 17 -536 0z m508 -68 l0 -40 -83 0 c-79 0 -85 1 -112 30 -16 17 -36 30 -45 30 -9 0 -29 -13 -45 -30 -27 -29 -33 -30 -112 -30 l-83 0 0 40 0 40 240 0 240 0 0 -40z m-205 -50 c28 -29 32 -30 117 -30 l88 0 0 -180 0 -180 -80 0 -80 0 0 58 c0 32 -5 63 -12 70 -7 7 -37 12 -68 12 -31 0 -61 -5 -68 -12 -7 -7 -12 -38 -12 -70 l0 -58 -80 0 -80 0 0 180 0 180 88 0 c85 0 89 1 117 30 16 17 32 30 35 30 3 0 19 -13 35 -30z m5 -340 l0 -50 -40 0 -40 0 0 50 0 50 40 0 40 0 0 -50z"/><path d="M144 369 c-10 -17 13 -36 27 -22 12 12 4 33 -11 33 -5 0 -12 -5 -16 -11z"/><path d="M304 369 c-10 -17 13 -36 27 -22 12 12 4 33 -11 33 -5 0 -12 -5 -16 -11z"/><path d="M464 369 c-10 -17 13 -36 27 -22 12 12 4 33 -11 33 -5 0 -12 -5 -16 -11z"/><path d="M144 289 c-10 -17 13 -36 27 -22 12 12 4 33 -11 33 -5 0 -12 -5 -16 -11z"/><path d="M464 289 c-10 -17 13 -36 27 -22 12 12 4 33 -11 33 -5 0 -12 -5 -16 -11z"/><path d="M144 209 c-10 -17 13 -36 27 -22 12 12 4 33 -11 33 -5 0 -12 -5 -16 -11z"/><path d="M464 209 c-10 -17 13 -36 27 -22 12 12 4 33 -11 33 -5 0 -12 -5 -16 -11z"/></g></svg>
