<svg version="1.0" xmlns="http://www.w3.org/2000/svg"  width="64.000000pt" height="64.000000pt" viewBox="0 0 64.000000 64.000000"  preserveAspectRatio="xMidYMid meet"><g transform="translate(0.000000,64.000000) scale(0.100000,-0.100000)" fill="#000000" stroke="none"><path d="M159 463 c-109 -108 -136 -139 -127 -150 9 -11 14 -11 29 3 18 17 19 13 19 -127 0 -100 4 -149 12 -157 17 -17 439 -17 456 0 8 8 12 57 12 157 0 140 1 144 19 127 15 -14 20 -14 29 -3 16 19 -253 287 -288 287 -17 0 -63 -39 -161 -137z m262 6 l99 -91 0 -159 0 -159 -50 0 -50 0 0 108 c0 71 -4 112 -12 120 -16 16 -160 16 -176 0 -8 -8 -12 -49 -12 -120 l0 -108 -50 0 -50 0 0 158 0 157 97 92 c54 51 100 92 102 93 2 0 48 -41 102 -91z m-41 -309 l0 -100 -60 0 -60 0 0 100 0 100 60 0 60 0 0 -100z"/></g></svg>
