<?xml version="1.0" encoding="UTF-8"?>
<svg version="1.1" xmlns="http://www.w3.org/2000/svg" width="96" height="96">
<path d="M0 0 C2.49857395 2.02265043 3.79051484 4.23514219 5.17651367 7.10424805 C5.57670212 7.92487228 5.97689056 8.74549652 6.38920593 9.59098816 C7.02219353 10.9129998 7.02219353 10.9129998 7.66796875 12.26171875 C8.10764481 13.16751175 8.54732086 14.07330475 9.00032043 15.00654602 C10.40190172 17.89740576 11.7947879 20.7923586 13.1875 23.6875 C14.13679971 25.64936449 15.0866628 27.61095649 16.03710938 29.57226562 C18.3656944 34.37789567 20.68247545 39.18896322 23 44 C23.33 32.45 23.66 20.9 24 9 C25.98 9 27.96 9 30 9 C29.98215202 9.90057884 29.98215202 9.90057884 29.96394348 10.8193512 C29.84887346 17.19797431 29.81475956 23.57374277 29.82299805 29.95336914 C29.81611872 32.31841863 29.79012225 34.6835073 29.74291992 37.0480957 C29.41391645 54.4409199 32.20220302 66.94042426 41.12260437 81.98350525 C42 84 42 84 41 87 C38.4375 88.1875 38.4375 88.1875 36 89 C35.34 87.35 34.68 85.7 34 84 C9.58 84 -14.84 84 -40 84 C-40.66 85.65 -41.32 87.3 -42 89 C-43.98 88.01 -45.96 87.02 -48 86 C-46.6077691 81.50753042 -44.83721788 77.39790841 -42.76171875 73.1796875 C-42.44463959 72.53158615 -42.12756042 71.8834848 -41.8008728 71.21574402 C-41.12004369 69.82434666 -40.4376865 68.43369615 -39.75393677 67.04373169 C-37.93373799 63.34213128 -36.12604904 59.63445418 -34.3203125 55.92578125 C-33.95456619 55.17467575 -33.58881989 54.42357025 -33.21199036 53.64970398 C-29.73782312 46.49540457 -26.38763699 39.28698839 -23.0625 32.0625 C-19.39117006 24.10645253 -15.69515639 16.16803284 -11.8125 8.3125 C-11.44970947 7.56943604 -11.08691895 6.82637207 -10.71313477 6.06079102 C-7.88512736 0.4109524 -6.356338 -0.51888474 0 0 Z M-4 8 C-5.83961674 11.78864975 -7.67062072 15.58139775 -9.5 19.375 C-10.02464844 20.45523437 -10.54929687 21.53546875 -11.08984375 22.6484375 C-11.58613281 23.6796875 -12.08242188 24.7109375 -12.59375 25.7734375 C-13.05458984 26.72653809 -13.51542969 27.67963867 -13.99023438 28.66162109 C-15.13214656 30.88150607 -15.13214656 30.88150607 -15 33 C-7.08 33 0.84 33 9 33 C7.71989871 29.15969613 6.55401197 25.84122497 4.8359375 22.2578125 C4.43632813 21.41992188 4.03671875 20.58203125 3.625 19.71875 C3.2125 18.8628125 2.8 18.006875 2.375 17.125 C1.95476563 16.24585938 1.53453125 15.36671875 1.1015625 14.4609375 C0.0708308 12.30577122 -0.96309426 10.15220078 -2 8 C-2.66 8 -3.32 8 -4 8 Z M-18 39 C-24.91751446 51.76635237 -31.19416408 64.6914534 -37 78 C-30.73 78 -24.46 78 -18 78 C-17.95101562 76.29070312 -17.90203125 74.58140625 -17.8515625 72.8203125 C-17.77654442 70.58852471 -17.70099619 68.3567547 -17.625 66.125 C-17.57859375 64.43310547 -17.57859375 64.43310547 -17.53125 62.70703125 C-17.49257813 61.63066406 -17.45390625 60.55429687 -17.4140625 59.4453125 C-17.3826416 58.45031738 -17.3512207 57.45532227 -17.31884766 56.43017578 C-17 54 -17 54 -15 52 C-12.6015625 51.74121094 -12.6015625 51.74121094 -9.625 51.734375 C-8.55765625 51.73179688 -7.4903125 51.72921875 -6.390625 51.7265625 C-4.71226563 51.73816406 -4.71226563 51.73816406 -3 51.75 C-1.88109375 51.74226563 -0.7621875 51.73453125 0.390625 51.7265625 C1.45796875 51.72914062 2.5253125 51.73171875 3.625 51.734375 C5.09839844 51.73775879 5.09839844 51.73775879 6.6015625 51.74121094 C9 52 9 52 11 54 C11.31884766 56.43017578 11.31884766 56.43017578 11.4140625 59.4453125 C11.47207031 61.05986328 11.47207031 61.05986328 11.53125 62.70703125 C11.5621875 63.83496094 11.593125 64.96289062 11.625 66.125 C11.68300781 67.82849609 11.68300781 67.82849609 11.7421875 69.56640625 C11.83667233 72.37732987 11.91943321 75.18864304 12 78 C18.27 78 24.54 78 31 78 C28.3737976 72.45539056 28.3737976 72.45539056 25.74633789 66.91137695 C23.63536885 62.45837637 21.52972441 58.00297519 19.43359375 53.54296875 C19.0255249 52.67647705 18.61745605 51.80998535 18.19702148 50.91723633 C17.40705183 49.23949739 16.61876687 47.56096405 15.83227539 45.8815918 C14.29775774 42.19074561 14.29775774 42.19074561 12 39 C9.78144736 38.91216458 7.56011504 38.89305391 5.33984375 38.90234375 C4.67537735 38.9037587 4.01091095 38.90517365 3.3263092 38.90663147 C1.19666101 38.91224482 -0.93288339 38.92479946 -3.0625 38.9375 C-4.50325369 38.94251329 -5.94400903 38.94707649 -7.38476562 38.95117188 C-10.92321102 38.96221855 -14.46159539 38.97949208 -18 39 Z M-12 58 C-12.08669432 59.4887186 -12.10703494 60.981445 -12.09765625 62.47265625 C-12.09443359 63.37177734 -12.09121094 64.27089844 -12.08789062 65.19726562 C-12.07951172 66.14279297 -12.07113281 67.08832031 -12.0625 68.0625 C-12.05798828 69.01189453 -12.05347656 69.96128906 -12.04882812 70.93945312 C-12.03700128 73.29299531 -12.01906521 75.64650532 -12 78 C-6.06 78 -0.12 78 6 78 C6 71.07 6 64.14 6 57 C3.215625 56.979375 0.43125 56.95875 -2.4375 56.9375 C-3.31591553 56.928396 -4.19433105 56.91929199 -5.09936523 56.90991211 C-8.85214329 56.51776712 -8.85214329 56.51776712 -12 58 Z " fill="#000000" transform="translate(51,3)"/>
</svg>
