<?xml version="1.0" encoding="UTF-8"?>
<!DOCTYPE svg PUBLIC "-//W3C//DTD SVG 1.1//EN" "http://www.w3.org/Graphics/SVG/1.1/DTD/svg11.dtd">
<svg xmlns="http://www.w3.org/2000/svg" version="1.1" width="96px" height="96px" style="shape-rendering:geometricPrecision; text-rendering:geometricPrecision; image-rendering:optimizeQuality; fill-rule:evenodd; clip-rule:evenodd" xmlns:xlink="http://www.w3.org/1999/xlink">
<g><path style="opacity:0.928" fill="#000000" d="M 36.5,8.5 C 41.6091,7.80275 46.2758,8.80275 50.5,11.5C 65.4388,5.08758 72.4388,10.0876 71.5,26.5C 75.5,26.5 79.5,26.5 83.5,26.5C 83.5,28.5 83.5,30.5 83.5,32.5C 79.5,32.5 75.5,32.5 71.5,32.5C 71.5,37.5 71.5,42.5 71.5,47.5C 79.1126,47.5863 83.1126,51.253 83.5,58.5C 79.0432,57.9385 75.0432,56.2719 71.5,53.5C 63.5317,60.0794 55.5317,60.0794 47.5,53.5C 39.5317,60.0794 31.5317,60.0794 23.5,53.5C 19.9408,56.2812 15.9408,57.9479 11.5,58.5C 11.1924,56.076 11.5258,53.7427 12.5,51.5C 20.1441,46.2292 27.8108,46.2292 35.5,51.5C 38.1071,50.8631 40.4404,49.6965 42.5,48C 44.1341,47.5065 45.8008,47.3398 47.5,47.5C 47.5,42.5 47.5,37.5 47.5,32.5C 35.5,32.5 23.5,32.5 11.5,32.5C 11.5,30.5 11.5,28.5 11.5,26.5C 23.5,26.5 35.5,26.5 47.5,26.5C 48.6614,20.8223 46.6614,16.8223 41.5,14.5C 38.6983,15.4688 36.6983,17.3021 35.5,20C 33.5273,20.4955 31.5273,20.6621 29.5,20.5C 29.3402,15.004 31.6735,11.004 36.5,8.5 Z M 58.5,14.5 C 64.3866,16.257 66.7199,20.257 65.5,26.5C 61.5,26.5 57.5,26.5 53.5,26.5C 52.4749,21.2326 54.1416,17.2326 58.5,14.5 Z M 53.5,32.5 C 57.5,32.5 61.5,32.5 65.5,32.5C 65.666,37.8437 65.4994,43.1771 65,48.5C 61.3333,52.5 57.6667,52.5 54,48.5C 53.5006,43.1771 53.334,37.8437 53.5,32.5 Z"/></g>
<g><path style="opacity:0.859" fill="#000000" d="M 18.5,62.5 C 21.8499,62.335 25.1832,62.5017 28.5,63C 30.5596,64.6965 32.8929,65.8631 35.5,66.5C 38.1071,65.8631 40.4404,64.6965 42.5,63C 45.8333,62.3333 49.1667,62.3333 52.5,63C 54.5596,64.6965 56.8929,65.8631 59.5,66.5C 67.1892,61.2292 74.8559,61.2292 82.5,66.5C 83.4742,68.7427 83.8076,71.076 83.5,73.5C 79.0432,72.9385 75.0432,71.2719 71.5,68.5C 63.5317,75.0794 55.5317,75.0794 47.5,68.5C 39.5317,75.0794 31.5317,75.0794 23.5,68.5C 19.9408,71.2812 15.9408,72.9479 11.5,73.5C 11.1924,71.076 11.5258,68.7427 12.5,66.5C 14.8132,65.4995 16.8132,64.1662 18.5,62.5 Z"/></g>
<g><path style="opacity:0.859" fill="#000000" d="M 18.5,77.5 C 21.8499,77.335 25.1832,77.5017 28.5,78C 30.5596,79.6965 32.8929,80.8631 35.5,81.5C 38.1071,80.8631 40.4404,79.6965 42.5,78C 45.8333,77.3333 49.1667,77.3333 52.5,78C 54.5596,79.6965 56.8929,80.8631 59.5,81.5C 67.1892,76.2292 74.8559,76.2292 82.5,81.5C 83.4742,83.7427 83.8076,86.076 83.5,88.5C 79.0432,87.9385 75.0432,86.2719 71.5,83.5C 63.5317,90.0794 55.5317,90.0794 47.5,83.5C 39.5317,90.0794 31.5317,90.0794 23.5,83.5C 19.9408,86.2812 15.9408,87.9479 11.5,88.5C 11.1924,86.076 11.5258,83.7427 12.5,81.5C 14.8132,80.4995 16.8132,79.1662 18.5,77.5 Z"/></g>
</svg>
