<?xml version="1.0" encoding="UTF-8"?>
<svg version="1.1" xmlns="http://www.w3.org/2000/svg" width="97" height="96">
<path d="M0 0 C1.30066406 -0.00128906 2.60132813 -0.00257812 3.94140625 -0.00390625 C4.96258545 -0.00076416 4.96258545 -0.00076416 6.00439453 0.00244141 C8.08503515 0.0077901 10.16545989 0.0024957 12.24609375 -0.00390625 C14.19708984 -0.00197266 14.19708984 -0.00197266 16.1875 0 C17.39083984 0.00112793 18.59417969 0.00225586 19.83398438 0.00341797 C22.59375 0.1328125 22.59375 0.1328125 23.59375 1.1328125 C23.59375 2.7828125 23.59375 4.4328125 23.59375 6.1328125 C43.39375 6.1328125 63.19375 6.1328125 83.59375 6.1328125 C83.59375 8.1128125 83.59375 10.0928125 83.59375 12.1328125 C82.60375 12.1328125 81.61375 12.1328125 80.59375 12.1328125 C80.59375 33.9128125 80.59375 55.6928125 80.59375 78.1328125 C81.58375 78.1328125 82.57375 78.1328125 83.59375 78.1328125 C83.59375 80.1128125 83.59375 82.0928125 83.59375 84.1328125 C61.81375 84.1328125 40.03375 84.1328125 17.59375 84.1328125 C17.59375 85.7828125 17.59375 87.4328125 17.59375 89.1328125 C15.90858046 90.81798204 13.80607212 90.26289269 11.5 90.265625 C10.47003906 90.26691406 9.44007812 90.26820312 8.37890625 90.26953125 C6.75275391 90.26373047 6.75275391 90.26373047 5.09375 90.2578125 C4.00964844 90.26167969 2.92554688 90.26554687 1.80859375 90.26953125 C0.77863281 90.26824219 -0.25132813 90.26695313 -1.3125 90.265625 C-2.26447266 90.26449707 -3.21644531 90.26336914 -4.19726562 90.26220703 C-6.40625 90.1328125 -6.40625 90.1328125 -7.40625 89.1328125 C-7.50673523 86.39930502 -7.54241261 83.69103358 -7.53564453 80.95703125 C-7.53739685 80.10017731 -7.53914917 79.24332336 -7.54095459 78.36050415 C-7.54537417 75.5137533 -7.54243475 72.66706403 -7.5390625 69.8203125 C-7.53973551 67.85115548 -7.54070551 65.88199853 -7.54196167 63.9128418 C-7.54343879 59.78010265 -7.54128364 55.64738508 -7.53662109 51.51464844 C-7.5309238 46.20456729 -7.53420273 40.89453669 -7.54019356 35.5844574 C-7.5437988 31.51655697 -7.54266076 27.44866861 -7.54006577 23.38076782 C-7.53939639 21.42225132 -7.54022527 19.46373374 -7.54254532 17.50521851 C-7.54507124 14.7729805 -7.54123211 12.04082553 -7.53564453 9.30859375 C-7.53766876 8.49089508 -7.53969299 7.67319641 -7.54177856 6.83071899 C-7.51494009 -0.21600926 -6.89738735 0.00646515 0 0 Z M-0.40625 6.1328125 C-0.40625 17.6828125 -0.40625 29.2328125 -0.40625 41.1328125 C6.81701337 39.68815983 10.54458791 36.72852053 14.61328125 30.81640625 C16.45191923 27.6592231 16.71410742 25.02892782 16.69140625 21.46484375 C16.68657227 20.12583008 16.68657227 20.12583008 16.68164062 18.75976562 C16.67326172 17.83099609 16.66488281 16.90222656 16.65625 15.9453125 C16.65173828 15.00494141 16.64722656 14.06457031 16.64257812 13.09570312 C16.63079645 10.77471242 16.61286114 8.45375443 16.59375 6.1328125 C10.98375 6.1328125 5.37375 6.1328125 -0.40625 6.1328125 Z M23.59375 12.1328125 C23.26375 16.7528125 22.93375 21.3728125 22.59375 26.1328125 C19.75047823 35.0688095 16.19469846 40.48639364 8.59375 46.1328125 C10.57375 47.7828125 12.55375 49.4328125 14.59375 51.1328125 C15.58375 50.4728125 16.57375 49.8128125 17.59375 49.1328125 C23.45824442 48.36744628 27.66769596 48.75494687 32.59375 52.1328125 C35.13633463 52.63296203 35.13633463 52.63296203 37.59375 52.1328125 C38.2021875 51.6378125 38.810625 51.1428125 39.4375 50.6328125 C43.15038888 48.04993328 47.23770945 48.57943927 51.59375 49.1328125 C54.40625 50.6328125 54.40625 50.6328125 56.59375 52.1328125 C59.13633463 52.63296203 59.13633463 52.63296203 61.59375 52.1328125 C62.4909375 51.42125 62.4909375 51.42125 63.40625 50.6953125 C65.59375 49.1328125 65.59375 49.1328125 73.59375 48.1328125 C73.59375 36.2528125 73.59375 24.3728125 73.59375 12.1328125 C57.09375 12.1328125 40.59375 12.1328125 23.59375 12.1328125 Z M-0.40625 49.1328125 C-0.40625 60.6828125 -0.40625 72.2328125 -0.40625 84.1328125 C3.22375 84.1328125 6.85375 84.1328125 10.59375 84.1328125 C10.7018673 80.09042678 10.78113513 76.050944 10.84375 72.0078125 C10.87726562 70.86570312 10.91078125 69.72359375 10.9453125 68.546875 C11.02040481 62.08893669 11.04420776 57.98785733 6.59375 53.1328125 C3.53839535 50.07259994 3.53839535 50.07259994 -0.40625 49.1328125 Z M17.59375 57.1328125 C17.17628392 60.25916459 17.17628392 60.25916459 17.59375 63.1328125 C18.25761719 63.17019531 18.92148437 63.20757812 19.60546875 63.24609375 C24.82928956 63.63502055 28.15411869 64.21534049 32.59375 67.1328125 C35.13633463 67.63296203 35.13633463 67.63296203 37.59375 67.1328125 C38.2021875 66.6378125 38.810625 66.1428125 39.4375 65.6328125 C43.15038888 63.04993328 47.23770945 63.57943927 51.59375 64.1328125 C54.40625 65.6328125 54.40625 65.6328125 56.59375 67.1328125 C59.13633463 67.63296203 59.13633463 67.63296203 61.59375 67.1328125 C62.191875 66.6584375 62.79 66.1840625 63.40625 65.6953125 C66.66147131 63.37015442 69.63666408 63.46256966 73.59375 63.1328125 C73.59375 60.4928125 73.59375 57.8528125 73.59375 55.1328125 C70.767915 53.82036444 70.767915 53.82036444 68.796875 54.91015625 C67.83007812 55.48443359 67.83007812 55.48443359 66.84375 56.0703125 C62.86373318 58.15473737 60.14705183 58.78328419 55.59375 58.1328125 C54.19875761 57.4647127 52.82369431 56.75379308 51.46875 56.0078125 C48.3690807 54.2376856 48.3690807 54.2376856 44.84375 54.7578125 C44.10125 55.2115625 43.35875 55.6653125 42.59375 56.1328125 C38.81571432 58.39963391 35.99467405 58.57290491 31.59375 58.1328125 C29.36593999 57.22107531 27.29839572 56.17709429 25.1953125 55.0078125 C22.06013988 53.2949377 20.27206484 55.07257031 17.59375 57.1328125 Z M17.59375 72.1328125 C17.59375 74.1128125 17.59375 76.0928125 17.59375 78.1328125 C36.07375 78.1328125 54.55375 78.1328125 73.59375 78.1328125 C73.59375 75.4928125 73.59375 72.8528125 73.59375 70.1328125 C70.767915 68.82036444 70.767915 68.82036444 68.796875 69.91015625 C67.83007812 70.48443359 67.83007812 70.48443359 66.84375 71.0703125 C62.86373318 73.15473737 60.14705183 73.78328419 55.59375 73.1328125 C54.19875761 72.4647127 52.82369431 71.75379308 51.46875 71.0078125 C48.3690807 69.2376856 48.3690807 69.2376856 44.84375 69.7578125 C44.10125 70.2115625 43.35875 70.6653125 42.59375 71.1328125 C38.81571432 73.39963391 35.99467405 73.57290491 31.59375 73.1328125 C29.36593999 72.22107531 27.29839572 71.17709429 25.1953125 70.0078125 C22.06013988 68.2949377 20.27206484 70.07257031 17.59375 72.1328125 Z " fill="#000000" transform="translate(11.40625,2.8671875)"/>
<path d="M0 0 C3.99449676 1.08349822 5.11670028 3.02636904 7.16015625 6.5859375 C8.02833527 10.75319679 7.35084509 12.25376984 5.22265625 15.9609375 C2.89073067 18.47224197 1.06237294 19.09738474 -2.33984375 19.3359375 C-5.74206044 19.09738474 -7.57041817 18.47224197 -9.90234375 15.9609375 C-12.03053259 12.25376984 -12.70802277 10.75319679 -11.83984375 6.5859375 C-8.7550496 1.21242511 -6.25758143 -0.43876197 0 0 Z M-2.83984375 6.5859375 C-3.49984375 7.9059375 -4.15984375 9.2259375 -4.83984375 10.5859375 C-3.35484375 11.5759375 -3.35484375 11.5759375 -1.83984375 12.5859375 C-1.17984375 11.2659375 -0.51984375 9.9459375 0.16015625 8.5859375 C-0.82984375 7.9259375 -1.81984375 7.2659375 -2.83984375 6.5859375 Z " fill="#000000" transform="translate(69.83984375,23.4140625)"/>
</svg>
