<?xml version="1.0" encoding="UTF-8"?>
<!DOCTYPE svg PUBLIC "-//W3C//DTD SVG 1.1//EN" "http://www.w3.org/Graphics/SVG/1.1/DTD/svg11.dtd">
<svg xmlns="http://www.w3.org/2000/svg" version="1.1" width="96px" height="96px" style="shape-rendering:geometricPrecision; text-rendering:geometricPrecision; image-rendering:optimizeQuality; fill-rule:evenodd; clip-rule:evenodd" xmlns:xlink="http://www.w3.org/1999/xlink">
<g><path style="opacity:0.897" fill="#000000" d="M 44.5,2.5 C 46.5,2.5 48.5,2.5 50.5,2.5C 50.1774,6.22605 50.5108,9.89272 51.5,13.5C 54.9346,11.3666 58.4346,9.3666 62,7.5C 63.8539,9.02283 65.3539,10.8562 66.5,13C 61.5,15.8333 56.5,18.6667 51.5,21.5C 50.3358,28.1418 50.1691,34.8085 51,41.5C 56.6667,38.1667 62.3333,34.8333 68,31.5C 68.4994,25.8431 68.6661,20.1764 68.5,14.5C 70.5,14.5 72.5,14.5 74.5,14.5C 74.3343,18.8461 74.501,23.1794 75,27.5C 78.0159,25.8262 81.0159,24.1595 84,22.5C 86.3541,23.3561 87.8541,25.0228 88.5,27.5C 85.5,29.5 82.5,31.5 79.5,33.5C 82.2911,35.7349 85.2911,37.7349 88.5,39.5C 89.4895,41.5878 89.1561,43.5878 87.5,45.5C 81.9863,44.1566 76.8196,41.4899 72,37.5C 66.4168,40.7077 60.9168,44.041 55.5,47.5C 60.7517,50.7087 65.9184,54.042 71,57.5C 76.0848,54.3738 81.2514,51.3738 86.5,48.5C 87.8883,50.109 88.8883,51.9423 89.5,54C 86.3381,56.7456 83.0048,59.2456 79.5,61.5C 82.5,63.5 85.5,65.5 88.5,67.5C 87.8541,69.9772 86.3541,71.6439 84,72.5C 81.1006,70.9662 78.2672,69.2995 75.5,67.5C 74.5078,71.7828 74.1744,76.1161 74.5,80.5C 72.5,80.5 70.5,80.5 68.5,80.5C 68.6661,74.8236 68.4994,69.1569 68,63.5C 62.3333,60.1667 56.6667,56.8333 51,53.5C 50.1691,60.1915 50.3358,66.8582 51.5,73.5C 56.7775,75.9564 61.4441,79.1231 65.5,83C 64.7046,84.7946 63.5379,86.2946 62,87.5C 58.4346,85.6334 54.9346,83.6334 51.5,81.5C 50.5108,85.1073 50.1774,88.774 50.5,92.5C 48.5,92.5 46.5,92.5 44.5,92.5C 44.8226,88.774 44.4892,85.1073 43.5,81.5C 40.0654,83.6334 36.5654,85.6334 33,87.5C 31.1461,85.9772 29.6461,84.1438 28.5,82C 33.5,79.1667 38.5,76.3333 43.5,73.5C 44.6642,66.8582 44.8309,60.1915 44,53.5C 38.3333,56.8333 32.6667,60.1667 27,63.5C 26.5006,69.1569 26.3339,74.8236 26.5,80.5C 24.5,80.5 22.5,80.5 20.5,80.5C 20.6657,76.1539 20.499,71.8206 20,67.5C 16.9841,69.1738 13.9841,70.8405 11,72.5C 8.64588,71.6439 7.14588,69.9772 6.5,67.5C 9.5,65.5 12.5,63.5 15.5,61.5C 12.7089,59.2651 9.70894,57.2651 6.5,55.5C 5.51054,53.4122 5.84387,51.4122 7.5,49.5C 13.0137,50.8434 18.1804,53.5101 23,57.5C 28.5832,54.2923 34.0832,50.959 39.5,47.5C 34.2483,44.2913 29.0816,40.958 24,37.5C 18.9152,40.6262 13.7486,43.6262 8.5,46.5C 7.11174,44.891 6.11174,43.0577 5.5,41C 8.66191,38.2544 11.9952,35.7544 15.5,33.5C 12.5,31.5 9.5,29.5 6.5,27.5C 7.14588,25.0228 8.64588,23.3561 11,22.5C 13.8994,24.0338 16.7328,25.7005 19.5,27.5C 20.4922,23.2172 20.8256,18.8839 20.5,14.5C 22.5,14.5 24.5,14.5 26.5,14.5C 26.3339,20.1764 26.5006,25.8431 27,31.5C 32.6667,34.8333 38.3333,38.1667 44,41.5C 44.8309,34.8085 44.6642,28.1418 43.5,21.5C 38.2225,19.0436 33.5559,15.8769 29.5,12C 30.2954,10.2054 31.4621,8.70537 33,7.5C 36.5654,9.3666 40.0654,11.3666 43.5,13.5C 44.4892,9.89272 44.8226,6.22605 44.5,2.5 Z"/></g>
</svg>
