<?xml version="1.0" encoding="UTF-8"?>
<!DOCTYPE svg PUBLIC "-//W3C//DTD SVG 1.1//EN" "http://www.w3.org/Graphics/SVG/1.1/DTD/svg11.dtd">
<svg xmlns="http://www.w3.org/2000/svg" version="1.1" width="96px" height="96px" style="shape-rendering:geometricPrecision; text-rendering:geometricPrecision; image-rendering:optimizeQuality; fill-rule:evenodd; clip-rule:evenodd" xmlns:xlink="http://www.w3.org/1999/xlink">
<g><path style="opacity:0.953" fill="#000000" d="M 44.5,2.5 C 55.462,4.54159 66.1287,7.70826 76.5,12C 80.0479,17.5936 83.2146,23.427 86,29.5C 86.6667,48.5 86.6667,67.5 86,86.5C 85.6258,87.4162 85.1258,88.2496 84.5,89C 60.1667,89.6667 35.8333,89.6667 11.5,89C 10.5838,88.6258 9.75044,88.1258 9,87.5C 8.33333,68.1667 8.33333,48.8333 9,29.5C 11.7854,23.427 14.9521,17.5936 18.5,12C 27.3035,8.90201 35.9701,5.73534 44.5,2.5 Z M 45.5,9.5 C 54.8498,11.5055 63.8498,14.5055 72.5,18.5C 75,23.5 77.5,28.5 80,33.5C 80.4992,38.1548 80.6658,42.8215 80.5,47.5C 58.5,47.5 36.5,47.5 14.5,47.5C 14.3342,42.8215 14.5008,38.1548 15,33.5C 17.5,28.5 20,23.5 22.5,18.5C 30.1535,15.2857 37.8201,12.2857 45.5,9.5 Z M 41.5,26.5 C 45.5,26.5 49.5,26.5 53.5,26.5C 53.5,29.5 53.5,32.5 53.5,35.5C 49.5,35.5 45.5,35.5 41.5,35.5C 41.5,32.5 41.5,29.5 41.5,26.5 Z M 14.5,53.5 C 18.5,53.5 22.5,53.5 26.5,53.5C 26.5,63.5 26.5,73.5 26.5,83.5C 22.5,83.5 18.5,83.5 14.5,83.5C 14.5,73.5 14.5,63.5 14.5,53.5 Z M 37.5,54.5 C 43.987,53.346 50.6536,53.1794 57.5,54C 54.318,57.3493 50.9846,60.516 47.5,63.5C 44.1467,60.4778 40.8134,57.4778 37.5,54.5 Z M 68.5,53.5 C 72.5,53.5 76.5,53.5 80.5,53.5C 80.5,63.5 80.5,73.5 80.5,83.5C 76.5,83.5 72.5,83.5 68.5,83.5C 68.5,73.5 68.5,63.5 68.5,53.5 Z M 32.5,58.5 C 36.1456,61.4789 39.479,64.8123 42.5,68.5C 39.516,71.9846 36.3493,75.318 33,78.5C 32.5004,71.8417 32.3337,65.175 32.5,58.5 Z M 61.5,58.5 C 62.654,64.987 62.8206,71.6536 62,78.5C 58.6507,75.318 55.484,71.9846 52.5,68.5C 55.5222,65.1467 58.5222,61.8134 61.5,58.5 Z M 46.5,73.5 C 50.5698,76.0604 54.2365,79.2271 57.5,83C 50.8333,83.6667 44.1667,83.6667 37.5,83C 40.7044,79.9641 43.7044,76.7974 46.5,73.5 Z"/></g>
<g><path style="opacity:0.989" fill="#000000" d="M 36.5,20.5 C 43.8409,20.3337 51.1742,20.5003 58.5,21C 59.6433,27.4184 59.81,33.9184 59,40.5C 51.5799,41.6466 44.0799,41.8132 36.5,41C 35.1842,34.1669 35.1842,27.3336 36.5,20.5 Z M 41.5,26.5 C 41.5,29.5 41.5,32.5 41.5,35.5C 45.5,35.5 49.5,35.5 53.5,35.5C 53.5,32.5 53.5,29.5 53.5,26.5C 49.5,26.5 45.5,26.5 41.5,26.5 Z"/></g>
</svg>
