<?xml version="1.0" encoding="UTF-8"?>
<!DOCTYPE svg PUBLIC "-//W3C//DTD SVG 1.1//EN" "http://www.w3.org/Graphics/SVG/1.1/DTD/svg11.dtd">
<svg xmlns="http://www.w3.org/2000/svg" version="1.1" width="96px" height="96px" style="shape-rendering:geometricPrecision; text-rendering:geometricPrecision; image-rendering:optimizeQuality; fill-rule:evenodd; clip-rule:evenodd" xmlns:xlink="http://www.w3.org/1999/xlink">
<g><path style="opacity:0.872" fill="#000000" d="M 57.5,2.5 C 62.3426,2.11653 67.0093,2.78319 71.5,4.5C 78.4646,1.3129 84.9646,1.97957 91,6.5C 92.2022,8.67747 92.7022,11.0108 92.5,13.5C 88.8307,14.3029 86.164,13.1362 84.5,10C 81.2918,8.09175 78.2918,8.42508 75.5,11C 82.8241,13.1468 86.4908,17.9801 86.5,25.5C 84.4727,25.6621 82.4727,25.4955 80.5,25C 79.8534,23.3905 79.02,21.8905 78,20.5C 77.8707,28.8944 77.204,37.2277 76,45.5C 75.2754,47.9494 74.2754,50.2827 73,52.5C 70.5341,53.7766 68.0341,53.7766 65.5,52.5C 71.269,41.9114 72.4357,30.9114 69,19.5C 67.2828,20.9882 66.1161,22.8215 65.5,25C 63.5273,25.4955 61.5273,25.6621 59.5,25.5C 59.147,19.1696 61.8137,14.503 67.5,11.5C 63.3448,7.5529 59.6781,8.0529 56.5,13C 54.5273,13.4955 52.5273,13.6621 50.5,13.5C 50.0792,7.99507 52.4125,4.3284 57.5,2.5 Z"/></g>
<g><path style="opacity:0.941" fill="#000000" d="M 31.5,7.5 C 40.8907,10.9462 49.0574,16.2796 56,23.5C 59.0078,28.0526 60.1744,33.0526 59.5,38.5C 57.5,38.5 55.5,38.5 53.5,38.5C 53.8082,44.4254 53.4749,50.2588 52.5,56C 39.1667,56.6667 25.8333,56.6667 12.5,56C 11.5251,50.2588 11.1918,44.4254 11.5,38.5C 9.5,38.5 7.5,38.5 5.5,38.5C 4.89536,29.5406 8.2287,22.374 15.5,17C 20.7315,13.5553 26.0649,10.3886 31.5,7.5 Z M 31.5,15.5 C 40.5338,18.1815 47.5338,23.5148 52.5,31.5C 39.1667,32.8333 25.8333,32.8333 12.5,31.5C 17.1178,24.0389 23.4511,18.7055 31.5,15.5 Z M 17.5,38.5 C 27.5,38.5 37.5,38.5 47.5,38.5C 47.5,42.5 47.5,46.5 47.5,50.5C 43.5,50.5 39.5,50.5 35.5,50.5C 35.5,48.5 35.5,46.5 35.5,44.5C 33.5,44.5 31.5,44.5 29.5,44.5C 29.5,46.5 29.5,48.5 29.5,50.5C 25.5,50.5 21.5,50.5 17.5,50.5C 17.5,46.5 17.5,42.5 17.5,38.5 Z"/></g>
<g><path style="opacity:0.874" fill="#000000" d="M 14.5,62.5 C 17.8499,62.335 21.1832,62.5017 24.5,63C 27.3711,64.5641 30.2044,66.0641 33,67.5C 36.3694,66.473 39.5361,64.973 42.5,63C 45.8333,62.3333 49.1667,62.3333 52.5,63C 55.3711,64.5641 58.2044,66.0641 61,67.5C 64.3694,66.473 67.5361,64.973 70.5,63C 73.8333,62.3333 77.1667,62.3333 80.5,63C 83.4378,64.8078 86.4378,66.3078 89.5,67.5C 89.5,69.8333 89.5,72.1667 89.5,74.5C 84.3403,73.5852 79.6737,71.5852 75.5,68.5C 71.3381,71.5785 66.6714,73.5785 61.5,74.5C 56.3286,73.5785 51.6619,71.5785 47.5,68.5C 43.3381,71.5785 38.6714,73.5785 33.5,74.5C 28.3286,73.5785 23.6619,71.5785 19.5,68.5C 15.3263,71.5852 10.6597,73.5852 5.5,74.5C 5.19244,72.076 5.52577,69.7427 6.5,67.5C 9.23085,65.8084 11.8975,64.1417 14.5,62.5 Z"/></g>
<g><path style="opacity:0.874" fill="#000000" d="M 14.5,77.5 C 17.8499,77.335 21.1832,77.5017 24.5,78C 27.3711,79.5641 30.2044,81.0641 33,82.5C 36.3694,81.473 39.5361,79.973 42.5,78C 45.8333,77.3333 49.1667,77.3333 52.5,78C 55.3711,79.5641 58.2044,81.0641 61,82.5C 64.3694,81.473 67.5361,79.973 70.5,78C 73.8333,77.3333 77.1667,77.3333 80.5,78C 83.4378,79.8078 86.4378,81.3078 89.5,82.5C 89.5,84.8333 89.5,87.1667 89.5,89.5C 84.3403,88.5852 79.6737,86.5852 75.5,83.5C 71.3381,86.5785 66.6714,88.5785 61.5,89.5C 56.3286,88.5785 51.6619,86.5785 47.5,83.5C 43.3381,86.5785 38.6714,88.5785 33.5,89.5C 28.3286,88.5785 23.6619,86.5785 19.5,83.5C 15.3263,86.5852 10.6597,88.5852 5.5,89.5C 5.19244,87.076 5.52577,84.7427 6.5,82.5C 9.23085,80.8084 11.8975,79.1417 14.5,77.5 Z"/></g>
</svg>
