<?xml version="1.0" encoding="UTF-8"?>
<svg version="1.1" xmlns="http://www.w3.org/2000/svg" width="96" height="96">
<path d="M0 0 C8.57960865 6.18459422 14.89740872 13.95759294 17.375 24.375 C18.21740733 32.35236882 18.36661514 39.89596216 15.375 47.375 C3.825 44.405 -7.725 41.435 -19.625 38.375 C-20.285 41.675 -20.945 44.975 -21.625 48.375 C-22.23646325 50.85921745 -22.87164571 53.3377685 -23.53515625 55.80859375 C-23.70752304 56.4532106 -23.87988983 57.09782745 -24.05747986 57.76197815 C-24.41648954 59.1023739 -24.77697028 60.44237651 -25.13891602 61.78198242 C-25.69285337 63.83231487 -26.24230919 65.88380896 -26.79101562 67.93554688 C-29.45435947 77.8630784 -29.45435947 77.8630784 -30.625 81.375 C-32.935 81.375 -35.245 81.375 -37.625 81.375 C-36.12257685 71.62259251 -33.56510795 62.19981344 -31 52.6875 C-29.55625 47.304375 -28.1125 41.92125 -26.625 36.375 C-37.845 33.405 -49.065 30.435 -60.625 27.375 C-58.28132316 16.82845422 -54.46132473 8.02251035 -45.625 1.375 C-31.09917229 -7.06181452 -14.86686333 -9.10216122 0 0 Z M-25.15771484 4.82861328 C-27.58500379 7.38675774 -29.25553957 10.23056461 -30.9375 13.3125 C-31.28361328 13.90740234 -31.62972656 14.50230469 -31.98632812 15.11523438 C-34.22221639 19.10322221 -34.84191171 21.67647023 -35.625 26.375 C-31.665 27.365 -27.705 28.355 -23.625 29.375 C-22.45530715 25.08413693 -21.28911074 20.79237744 -20.125 16.5 C-19.79113281 15.27667969 -19.45726563 14.05335937 -19.11328125 12.79296875 C-18.79746094 11.62636719 -18.48164062 10.45976562 -18.15625 9.2578125 C-17.86298828 8.17902832 -17.56972656 7.10024414 -17.26757812 5.98876953 C-16.54542172 3.49990467 -16.54542172 3.49990467 -16.625 1.375 C-20.92927712 1.375 -22.04039828 2.04273837 -25.15771484 4.82861328 Z M-45.48046875 11.2265625 C-50.0279156 16.17101756 -50.0279156 16.17101756 -51.625 22.375 C-47.17 23.365 -47.17 23.365 -42.625 24.375 C-42.23828125 23.44558594 -41.8515625 22.51617188 -41.453125 21.55859375 C-38.82427894 15.29838992 -36.2079722 9.16287816 -32.625 3.375 C-37.35233594 3.375 -42.27319631 8.02604221 -45.48046875 11.2265625 Z M-9.625 3.375 C-12.0465316 9.45368344 -13.78325374 15.51777082 -15.3125 21.875 C-15.53744141 22.7928125 -15.76238281 23.710625 -15.99414062 24.65625 C-16.54211228 26.89477251 -17.08417396 29.13474038 -17.625 31.375 C-13.665 32.365 -9.705 33.355 -5.625 34.375 C-2.1973711 25.16324733 -2.84366208 15.49367465 -5.67578125 6.203125 C-6.5421772 4.01581309 -6.5421772 4.01581309 -9.625 3.375 Z M2.375 12.375 C2.38660156 13.26960938 2.39820313 14.16421875 2.41015625 15.0859375 C2.46378549 22.27225548 2.23977798 29.2405817 1.375 36.375 C5.83 37.365 5.83 37.365 10.375 38.375 C12.12658117 31.71899157 10.98662577 25.58949271 7.9375 19.5078125 C6.49420468 17.05837382 5.05106586 14.67165001 3.375 12.375 C3.045 12.375 2.715 12.375 2.375 12.375 Z " fill="#000000" transform="translate(72.625,8.625)"/>
<path d="M0 0 C3.12578143 1.6720747 5.39281175 3.7856235 7 7 C7.51512617 11.09157355 7.94367269 15.23589546 5.953125 18.95703125 C3.55501226 21.85592636 1.60351712 23.79811835 -2.171875 24.2734375 C-9.98876369 24.58137554 -9.98876369 24.58137554 -13.5625 21.625 C-17.3057723 17.59378368 -17.39037018 14.90519941 -17.359375 9.55078125 C-16.78039966 5.44131496 -15.00085071 3.78650423 -12 1 C-8.27533151 -0.86233425 -4.05504687 -0.57130829 0 0 Z M-6 6 C-7.65 7.65 -9.3 9.3 -11 11 C-10.36078035 13.47627099 -10.36078035 13.47627099 -9 16 C-6.47627099 17.36078035 -6.47627099 17.36078035 -4 18 C-2.35 16.35 -0.7 14.7 1 13 C0.36078035 10.52372901 0.36078035 10.52372901 -1 8 C-3.52372901 6.63921965 -3.52372901 6.63921965 -6 6 Z " fill="#000000" transform="translate(23,66)"/>
</svg>
