<?xml version="1.0" encoding="UTF-8"?>
<!DOCTYPE svg PUBLIC "-//W3C//DTD SVG 1.1//EN" "http://www.w3.org/Graphics/SVG/1.1/DTD/svg11.dtd">
<svg xmlns="http://www.w3.org/2000/svg" version="1.1" width="96px" height="96px" style="shape-rendering:geometricPrecision; text-rendering:geometricPrecision; image-rendering:optimizeQuality; fill-rule:evenodd; clip-rule:evenodd" xmlns:xlink="http://www.w3.org/1999/xlink">
<g><path style="opacity:0.877" fill="#000000" d="M 37.5,2.5 C 39.8333,2.5 42.1667,2.5 44.5,2.5C 44.477,4.92668 43.977,7.26001 43,9.5C 38.6686,16.494 35.1686,23.8273 32.5,31.5C 30.604,32.4656 28.604,32.7989 26.5,32.5C 27.1342,23.555 30.3009,15.555 36,8.5C 36.813,6.56429 37.313,4.56429 37.5,2.5 Z"/></g>
<g><path style="opacity:0.874" fill="#000000" d="M 53.5,2.5 C 55.5,2.5 57.5,2.5 59.5,2.5C 59.6989,5.94104 59.1989,9.27437 58,12.5C 55,17.8333 52,23.1667 49,28.5C 48.51,29.7932 48.3433,31.1266 48.5,32.5C 46.1667,32.5 43.8333,32.5 41.5,32.5C 43.0186,24.7931 46.1853,17.7931 51,11.5C 51.9011,8.48044 52.7345,5.48044 53.5,2.5 Z"/></g>
<g><path style="opacity:0.874" fill="#000000" d="M 68.5,2.5 C 70.5,2.5 72.5,2.5 74.5,2.5C 74.6989,5.94104 74.1989,9.27437 73,12.5C 70,17.8333 67,23.1667 64,28.5C 63.51,29.7932 63.3433,31.1266 63.5,32.5C 61.1667,32.5 58.8333,32.5 56.5,32.5C 58.0186,24.7931 61.1853,17.7931 66,11.5C 66.9011,8.48044 67.7345,5.48044 68.5,2.5 Z"/></g>
<g><path style="opacity:0.975" fill="#000000" d="M 18.5,35.5 C 35.8365,35.3334 53.1699,35.5001 70.5,36C 71.4438,38.7191 71.7771,41.5525 71.5,44.5C 76.43,44.1975 81.2633,44.5308 86,45.5C 86.6667,55.8333 86.6667,66.1667 86,76.5C 81.2633,77.4692 76.43,77.8025 71.5,77.5C 71.4713,85.0356 67.8046,89.869 60.5,92C 48.4286,92.9371 36.4286,92.6038 24.5,91C 21.9598,88.7953 19.7932,86.2953 18,83.5C 17.1831,67.4259 17.3498,51.4259 18.5,35.5 Z M 23.5,41.5 C 27.5,41.5 31.5,41.5 35.5,41.5C 35.5,45.5 35.5,49.5 35.5,53.5C 33.5328,53.2606 31.6995,53.5939 30,54.5C 29.3333,59.8333 29.3333,65.1667 30,70.5C 35.6667,71.8333 41.3333,71.8333 47,70.5C 47.6667,65.1667 47.6667,59.8333 47,54.5C 45.3005,53.5939 43.4672,53.2606 41.5,53.5C 41.5,49.5 41.5,45.5 41.5,41.5C 49.5,41.5 57.5,41.5 65.5,41.5C 65.6665,53.8378 65.4999,66.1712 65,78.5C 64.1667,82 62,84.1667 58.5,85C 49.5623,86.5479 40.5623,86.8812 31.5,86C 28.804,85.3102 26.6374,83.8102 25,81.5C 23.5556,68.2404 23.0556,54.9071 23.5,41.5 Z M 71.5,50.5 C 74.5,50.5 77.5,50.5 80.5,50.5C 80.5,57.5 80.5,64.5 80.5,71.5C 77.5,71.5 74.5,71.5 71.5,71.5C 71.5,64.5 71.5,57.5 71.5,50.5 Z M 35.5,59.5 C 37.5,59.5 39.5,59.5 41.5,59.5C 41.5,61.5 41.5,63.5 41.5,65.5C 39.5,65.5 37.5,65.5 35.5,65.5C 35.5,63.5 35.5,61.5 35.5,59.5 Z"/></g>
</svg>
