<?xml version="1.0" encoding="UTF-8"?>
<svg version="1.1" xmlns="http://www.w3.org/2000/svg" width="96" height="96">
<path d="M0 0 C13.812477 -2.69484168 30.68194064 -5.93336808 44 0 C56.25232939 9.21879639 63.53826412 25.41055018 70.24145508 38.82568359 C72.59886272 43.49280232 75.46188506 47.56871761 78.66142273 51.69692993 C80.21855191 54.37602638 80.34883844 55.94999381 80 59 C79 60 79 60 75.67358398 60.11352539 C74.19774444 60.11336629 72.72189931 60.10767314 71.24609375 60.09765625 C70.47064713 60.0962413 69.6952005 60.09482635 68.89625549 60.09336853 C66.40996506 60.08775345 63.9237634 60.07519846 61.4375 60.0625 C59.75586067 60.05748694 58.07421994 60.0529237 56.39257812 60.04882812 C52.26168434 60.03777913 48.13085724 60.02050445 44 60 C44 61.98 44 63.96 44 66 C55.88 66 67.76 66 80 66 C80 77 80 77 77 82 C77 82.66 77 83.32 77 84 C78.485 84.495 78.485 84.495 80 85 C80 87.31 80 89.62 80 92 C76.49848665 91.58315317 74.10093381 91.05677527 71 89.3125 C68.04443509 87.66898541 68.04443509 87.66898541 64.875 88.6875 C62.12015188 89.88034272 62.12015188 89.88034272 60.125 91.125 C56.76855017 92.50706758 53.53218401 92.56514944 50 92 C47.9140625 91.03125 47.9140625 91.03125 45.875 89.875 C42.82708683 88.17773071 42.36369075 87.93005947 38.75 88.625 C37.18253566 89.40873217 35.62773783 90.2233573 34.125 91.125 C30.76855017 92.50706758 27.53218401 92.56514944 24 92 C21.9140625 91.03125 21.9140625 91.03125 19.875 89.875 C16.82708683 88.17773071 16.36369075 87.93005947 12.75 88.625 C11.11658163 89.44170918 9.48898874 90.27053537 7.875 91.125 C6 92 6 92 2 92 C2 89.69 2 87.38 2 85 C3.485 84.505 3.485 84.505 5 84 C4.5359375 82.8553125 4.5359375 82.8553125 4.0625 81.6875 C1.63469677 75.54658595 2 73.88047914 2 66 C13.88 66 25.76 66 38 66 C38 52.14 38 38.28 38 24 C25.79 24 13.58 24 1 24 C1.66 21.03 2.32 18.06 3 15 C2.68049807 9.72821817 1.4773596 5.04966354 0 0 Z M10 6 C10.33 7.98 10.66 9.96 11 12 C10.67 13.98 10.34 15.96 10 18 C19.24 18 28.48 18 38 18 C38 14.04 38 10.08 38 6 C28.76 6 19.52 6 10 6 Z M44 15 C44 27.87 44 40.74 44 54 C52.58 54 61.16 54 70 54 C68.62507518 50.56268795 67.65726305 48.23750991 65.67749023 45.3112793 C65.22039169 44.63095139 64.76329315 43.95062347 64.29234314 43.24967957 C63.80270584 42.5317775 63.31306854 41.81387543 62.80859375 41.07421875 C62.30328629 40.32662796 61.79797882 39.57903717 61.27735901 38.80879211 C60.21298838 37.23645747 59.14628407 35.66570036 58.07739258 34.09643555 C56.43402304 31.68239248 54.79952951 29.26251682 53.16601562 26.84179688 C52.13072839 25.31475146 51.09493879 23.78804648 50.05859375 22.26171875 C49.56693222 21.53369553 49.07527069 20.8056723 48.56871033 20.05558777 C47.40522784 18.35227604 46.20638516 16.67319968 45 15 C44.67 15 44.34 15 44 15 Z M9 72 C9.85205054 77.28598984 9.85205054 77.28598984 13 81 C15.27151032 81.67382489 17.50586038 82.12595719 19.84375 82.5078125 C22 83 22 83 25 85 C28.45664078 85.37572182 30.31920759 85.45386161 33.25 83.5 C37.38784573 81.24299324 41.38125203 81.40353917 46 82 C48.75 83.5 48.75 83.5 51 85 C55.83242999 85.60405375 57.956668 84.46544634 62 82 C63.175625 81.896875 64.35125 81.79375 65.5625 81.6875 C69.23817027 81.32244955 69.23817027 81.32244955 71.4375 78.125 C73.2236068 75.13509577 73.2236068 75.13509577 73 72 C51.88 72 30.76 72 9 72 Z " fill="#000000" transform="translate(7,3)"/>
</svg>
