<?xml version="1.0" encoding="UTF-8"?>
<!DOCTYPE svg PUBLIC "-//W3C//DTD SVG 1.1//EN" "http://www.w3.org/Graphics/SVG/1.1/DTD/svg11.dtd">
<svg xmlns="http://www.w3.org/2000/svg" version="1.1" width="96px" height="96px" style="shape-rendering:geometricPrecision; text-rendering:geometricPrecision; image-rendering:optimizeQuality; fill-rule:evenodd; clip-rule:evenodd" xmlns:xlink="http://www.w3.org/1999/xlink">
<g><path style="opacity:0.961" fill="#000000" d="M 44.5,4.5 C 47.3198,4.24751 49.9865,4.74751 52.5,6C 61.6667,15.1667 70.8333,24.3333 80,33.5C 80.4997,26.1742 80.6663,18.8409 80.5,11.5C 82.5,11.5 84.5,11.5 86.5,11.5C 86.3335,21.1724 86.5002,30.8391 87,40.5C 89.6833,43.0159 92.1833,45.6826 94.5,48.5C 92.4024,53.1583 89.9024,53.4916 87,49.5C 86.5639,51.8474 86.0639,54.1807 85.5,56.5C 86.0412,64.0131 86.3746,71.5131 86.5,79C 87.2041,83.592 85.5375,86.9253 81.5,89C 58.8333,89.6667 36.1667,89.6667 13.5,89C 11.3333,88.1667 9.83333,86.6667 9,84.5C 9.16667,75.1667 9.33333,65.8333 9.5,56.5C 8.93613,54.1807 8.43613,51.8474 8,49.5C 5.0976,53.4916 2.5976,53.1583 0.5,48.5C 14.8814,33.452 29.548,18.7853 44.5,4.5 Z M 46.5,11.5 C 51.8549,14.3416 56.5215,18.1749 60.5,23C 51.8333,23.6667 43.1667,23.6667 34.5,23C 38.3954,18.9353 42.3954,15.102 46.5,11.5 Z M 27.5,29.5 C 40.8375,29.3334 54.1708,29.5001 67.5,30C 70.1667,32.6667 72.8333,35.3333 75.5,38C 56.8333,38.6667 38.1667,38.6667 19.5,38C 22.3714,35.2972 25.0381,32.4639 27.5,29.5 Z M 17.5,44.5 C 37.5028,44.3334 57.5028,44.5 77.5,45C 81.5,47.6667 81.5,50.3333 77.5,53C 72.5,53.6667 67.5,53.6667 62.5,53C 61.6721,52.0853 60.6721,51.4186 59.5,51C 51.1667,50.3333 42.8333,50.3333 34.5,51C 34.0426,51.414 33.7093,51.914 33.5,52.5C 28.1977,53.6628 22.8643,53.8295 17.5,53C 13.6054,50.178 13.6054,47.3446 17.5,44.5 Z M 38.5,56.5 C 44.5,56.5 50.5,56.5 56.5,56.5C 56.5,65.5 56.5,74.5 56.5,83.5C 50.5,83.5 44.5,83.5 38.5,83.5C 38.5,74.5 38.5,65.5 38.5,56.5 Z M 17.5,59.5 C 22.5,59.5 27.5,59.5 32.5,59.5C 32.5,62.5 32.5,65.5 32.5,68.5C 27.1032,68.7846 21.7698,68.4512 16.5,67.5C 13.8419,64.4702 14.1753,61.8035 17.5,59.5 Z M 62.5,59.5 C 67.5111,59.3341 72.5111,59.5007 77.5,60C 81.5,62.6667 81.5,65.3333 77.5,68C 72.5111,68.4993 67.5111,68.6659 62.5,68.5C 62.5,65.5 62.5,62.5 62.5,59.5 Z M 17.5,74.5 C 22.5,74.5 27.5,74.5 32.5,74.5C 32.5,77.5 32.5,80.5 32.5,83.5C 27.1032,83.7846 21.7698,83.4512 16.5,82.5C 13.8419,79.4702 14.1753,76.8035 17.5,74.5 Z M 62.5,74.5 C 67.5111,74.3341 72.5111,74.5007 77.5,75C 81.5,77.6667 81.5,80.3333 77.5,83C 72.5111,83.4993 67.5111,83.6659 62.5,83.5C 62.5,80.5 62.5,77.5 62.5,74.5 Z"/></g>
</svg>
