<?xml version="1.0" encoding="UTF-8"?>
<!DOCTYPE svg PUBLIC "-//W3C//DTD SVG 1.1//EN" "http://www.w3.org/Graphics/SVG/1.1/DTD/svg11.dtd">
<svg xmlns="http://www.w3.org/2000/svg" version="1.1" width="96px" height="96px" style="shape-rendering:geometricPrecision; text-rendering:geometricPrecision; image-rendering:optimizeQuality; fill-rule:evenodd; clip-rule:evenodd" xmlns:xlink="http://www.w3.org/1999/xlink">
<g><path style="opacity:0.964" fill="#000000" d="M 95.5,71.5 C 95.5,75.5 95.5,79.5 95.5,83.5C 75.4889,83.167 55.4889,83.5004 35.5,84.5C 31.2692,92.4742 24.9358,94.6409 16.5,91C 14.2589,89.2609 12.5922,87.0942 11.5,84.5C 7.3303,83.9336 3.3303,82.9336 -0.5,81.5C -0.5,63.5 -0.5,45.5 -0.5,27.5C 1.6467,23.189 4.98004,20.0223 9.5,18C 30.8333,17.3333 52.1667,17.3333 73.5,18C 78,19.8333 81.1667,23 83,27.5C 83.4999,44.1633 83.6666,60.83 83.5,77.5C 85.5,77.5 87.5,77.5 89.5,77.5C 89.5,75.5 89.5,73.5 89.5,71.5C 91.5,71.5 93.5,71.5 95.5,71.5 Z M 14.5,23.5 C 33.888,23.0502 53.2213,23.5502 72.5,25C 74.8936,26.9522 76.3936,29.4522 77,32.5C 77.4999,47.4963 77.6666,62.4963 77.5,77.5C 74.5,77.5 71.5,77.5 68.5,77.5C 68.6666,63.496 68.4999,49.496 68,35.5C 67.1667,34.6667 66.3333,33.8333 65.5,33C 58.5,32.3333 51.5,32.3333 44.5,33C 43.6667,33.8333 42.8333,34.6667 42,35.5C 41.5001,49.496 41.3334,63.496 41.5,77.5C 39.396,77.7989 37.396,77.4656 35.5,76.5C 32.0725,69.1226 26.4058,66.6226 18.5,69C 15.3055,70.6946 12.9722,73.1946 11.5,76.5C 9.60395,77.4656 7.60395,77.7989 5.5,77.5C 5.33342,62.4963 5.50008,47.4963 6,32.5C 7.01522,27.6543 9.84856,24.6543 14.5,23.5 Z M 17.5,38.5 C 21.5,38.5 25.5,38.5 29.5,38.5C 29.5,42.5 29.5,46.5 29.5,50.5C 25.5,50.5 21.5,50.5 17.5,50.5C 17.5,46.5 17.5,42.5 17.5,38.5 Z M 48.5,38.5 C 53.0986,38.2 57.5986,38.5333 62,39.5C 62.4999,52.1623 62.6666,64.8289 62.5,77.5C 57.5,77.5 52.5,77.5 47.5,77.5C 47.1863,64.4206 47.5197,51.4206 48.5,38.5 Z M 22.5,74.5 C 31.1999,77.8797 31.5333,81.8797 23.5,86.5C 16.0224,82.9314 15.6891,78.9314 22.5,74.5 Z"/></g>
<g><path style="opacity:0.965" fill="#000000" d="M 13.5,32.5 C 19.8421,32.3338 26.1754,32.5005 32.5,33C 33.4162,33.3742 34.2496,33.8742 35,34.5C 35.6667,40.8333 35.6667,47.1667 35,53.5C 34.6258,54.4162 34.1258,55.2496 33.5,56C 27.1667,56.6667 20.8333,56.6667 14.5,56C 13.5838,55.6258 12.7504,55.1258 12,54.5C 11.3333,48.1667 11.3333,41.8333 12,35.5C 12.5133,34.4734 13.0133,33.4734 13.5,32.5 Z M 17.5,38.5 C 17.5,42.5 17.5,46.5 17.5,50.5C 21.5,50.5 25.5,50.5 29.5,50.5C 29.5,46.5 29.5,42.5 29.5,38.5C 25.5,38.5 21.5,38.5 17.5,38.5 Z"/></g>
</svg>
