<?xml version="1.0" encoding="UTF-8"?>
<!DOCTYPE svg PUBLIC "-//W3C//DTD SVG 1.1//EN" "http://www.w3.org/Graphics/SVG/1.1/DTD/svg11.dtd">
<svg xmlns="http://www.w3.org/2000/svg" version="1.1" width="97px" height="96px" style="shape-rendering:geometricPrecision; text-rendering:geometricPrecision; image-rendering:optimizeQuality; fill-rule:evenodd; clip-rule:evenodd" xmlns:xlink="http://www.w3.org/1999/xlink">
<g><path style="opacity:0.921" fill="#000000" d="M 6.5,5.5 C 34.8353,5.33336 63.1686,5.50002 91.5,6C 92.3333,6.83333 93.1667,7.66667 94,8.5C 94.6667,12.1667 94.6667,15.8333 94,19.5C 93.1253,22.2146 91.2919,23.5479 88.5,23.5C 88.5,32.5 88.5,41.5 88.5,50.5C 90.5,50.5 92.5,50.5 94.5,50.5C 94.5,52.5 94.5,54.5 94.5,56.5C 92.5,56.5 90.5,56.5 88.5,56.5C 88.6665,66.1724 88.4998,75.8391 88,85.5C 87.5348,86.9308 86.7014,88.0975 85.5,89C 61.1667,89.6667 36.8333,89.6667 12.5,89C 11.6667,88.1667 10.8333,87.3333 10,86.5C 9.50019,76.5056 9.33352,66.5056 9.5,56.5C 7.5,56.5 5.5,56.5 3.5,56.5C 3.5,54.5 3.5,52.5 3.5,50.5C 5.5,50.5 7.5,50.5 9.5,50.5C 9.5,41.5 9.5,32.5 9.5,23.5C 7.09685,23.607 5.26351,22.607 4,20.5C 2.776,15.0435 3.60933,10.0435 6.5,5.5 Z M 10.5,11.5 C 36.1667,11.5 61.8333,11.5 87.5,11.5C 87.5,13.5 87.5,15.5 87.5,17.5C 61.8333,17.5 36.1667,17.5 10.5,17.5C 10.5,15.5 10.5,13.5 10.5,11.5 Z M 16.5,23.5 C 38.1667,23.5 59.8333,23.5 81.5,23.5C 81.5,32.5 81.5,41.5 81.5,50.5C 79.8333,50.5 78.1667,50.5 76.5,50.5C 77.1113,44.5663 76.278,38.8996 74,33.5C 67.3333,28.1667 60.6667,28.1667 54,33.5C 51.7953,38.9315 50.962,44.5982 51.5,50.5C 49.8333,50.5 48.1667,50.5 46.5,50.5C 47.1113,44.5663 46.278,38.8996 44,33.5C 37.3333,28.1667 30.6667,28.1667 24,33.5C 21.7953,38.9315 20.962,44.5982 21.5,50.5C 19.8333,50.5 18.1667,50.5 16.5,50.5C 16.5,41.5 16.5,32.5 16.5,23.5 Z M 33.5,35.5 C 36.0794,35.8524 37.9127,37.1858 39,39.5C 39.4986,43.1516 39.6653,46.8183 39.5,50.5C 35.8333,50.5 32.1667,50.5 28.5,50.5C 28.3347,46.8183 28.5014,43.1516 29,39.5C 29.9066,37.3909 31.4066,36.0576 33.5,35.5 Z M 63.5,35.5 C 66.0794,35.8524 67.9127,37.1858 69,39.5C 69.4986,43.1516 69.6653,46.8183 69.5,50.5C 65.8333,50.5 62.1667,50.5 58.5,50.5C 58.3347,46.8183 58.5014,43.1516 59,39.5C 59.9066,37.3909 61.4066,36.0576 63.5,35.5 Z M 16.5,56.5 C 38.1667,56.5 59.8333,56.5 81.5,56.5C 81.5,65.5 81.5,74.5 81.5,83.5C 79.8333,83.5 78.1667,83.5 76.5,83.5C 77.1113,77.5663 76.278,71.8996 74,66.5C 67.3333,61.1667 60.6667,61.1667 54,66.5C 51.7953,71.9315 50.962,77.5982 51.5,83.5C 49.8333,83.5 48.1667,83.5 46.5,83.5C 47.1113,77.5663 46.278,71.8996 44,66.5C 37.3333,61.1667 30.6667,61.1667 24,66.5C 21.7953,71.9315 20.962,77.5982 21.5,83.5C 19.8333,83.5 18.1667,83.5 16.5,83.5C 16.5,74.5 16.5,65.5 16.5,56.5 Z M 33.5,68.5 C 36.0794,68.8524 37.9127,70.1858 39,72.5C 39.4986,76.1516 39.6653,79.8183 39.5,83.5C 35.8333,83.5 32.1667,83.5 28.5,83.5C 28.3347,79.8183 28.5014,76.1516 29,72.5C 29.9066,70.3909 31.4066,69.0576 33.5,68.5 Z M 63.5,68.5 C 66.0794,68.8524 67.9127,70.1858 69,72.5C 69.4986,76.1516 69.6653,79.8183 69.5,83.5C 65.8333,83.5 62.1667,83.5 58.5,83.5C 58.3347,79.8183 58.5014,76.1516 59,72.5C 59.9066,70.3909 61.4066,69.0576 63.5,68.5 Z"/></g>
</svg>
