<?xml version="1.0" encoding="UTF-8"?>
<svg version="1.1" xmlns="http://www.w3.org/2000/svg" width="96" height="96">
<path d="M0 0 C1.27423828 -0.00193359 1.27423828 -0.00193359 2.57421875 -0.00390625 C3.91419922 0.00189453 3.91419922 0.00189453 5.28125 0.0078125 C6.17457031 0.00394531 7.06789062 0.00007812 7.98828125 -0.00390625 C8.83777344 -0.00261719 9.68726563 -0.00132813 10.5625 0 C11.34689453 0.00112793 12.13128906 0.00225586 12.93945312 0.00341797 C14.78125 0.1328125 14.78125 0.1328125 15.78125 1.1328125 C15.88106214 3.8101263 15.92004875 6.45585425 15.90625 9.1328125 C15.91205078 10.25816406 15.91205078 10.25816406 15.91796875 11.40625 C15.90786053 17.00620197 15.90786053 17.00620197 14.78125 18.1328125 C12.42811445 18.20552991 10.07291332 18.21652118 7.71875 18.1953125 C6.42839844 18.18628906 5.13804688 18.17726563 3.80859375 18.16796875 C2.80957031 18.15636719 1.81054688 18.14476563 0.78125 18.1328125 C0.78125 20.1128125 0.78125 22.0928125 0.78125 24.1328125 C1.9878125 24.101875 1.9878125 24.101875 3.21875 24.0703125 C5.78125 24.1328125 5.78125 24.1328125 6.78125 25.1328125 C6.92240161 27.80340101 6.82372107 30.45713488 6.78125 33.1328125 C7.77125 33.1328125 8.76125 33.1328125 9.78125 33.1328125 C9.760625 31.8334375 9.74 30.5340625 9.71875 29.1953125 C9.69725546 27.84115617 9.70976801 26.48525167 9.78125 25.1328125 C11.60241003 23.31165247 14.08796764 24.0004617 16.5078125 23.99609375 C17.63316406 24.00189453 17.63316406 24.00189453 18.78125 24.0078125 C19.53148437 24.00394531 20.28171875 24.00007813 21.0546875 23.99609375 C26.65463947 24.00620197 26.65463947 24.00620197 27.78125 25.1328125 C28.11675178 28.33069657 28.10639771 31.54460582 28.15625 34.7578125 C28.19363281 35.64855469 28.23101562 36.53929687 28.26953125 37.45703125 C28.28113281 38.33230469 28.29273438 39.20757812 28.3046875 40.109375 C28.3344165 41.30167725 28.3344165 41.30167725 28.36474609 42.51806641 C27.74701129 45.28624202 27.02582643 46.23572599 25.29052734 48.40039062 C22.20023816 52.48174749 22.0634578 55.8734922 22.109375 60.875 C22.09025055 62.08846603 22.09025055 62.08846603 22.07073975 63.32644653 C22.03465312 65.88726585 22.03173213 68.44676215 22.03125 71.0078125 C22.00964546 73.58979501 21.98125536 76.17157937 21.94891357 78.75344849 C21.93112455 80.354842 21.92086534 81.95633988 21.91876221 83.55783081 C21.88978363 89.02427887 21.88978363 89.02427887 20.78125 90.1328125 C19.34384647 90.23095237 17.90168673 90.2607953 16.4609375 90.26220703 C15.54328613 90.26535919 14.62563477 90.26851135 13.68017578 90.27175903 C12.68228027 90.2697348 11.68438477 90.26771057 10.65625 90.265625 C9.63901855 90.26658173 8.62178711 90.26753845 7.57373047 90.26852417 C5.41829364 90.26920611 3.26285478 90.26735085 1.10742188 90.26318359 C-2.20447371 90.25783555 -5.51623367 90.26312813 -8.828125 90.26953125 C-10.91666697 90.26887047 -13.00520885 90.26758931 -15.09375 90.265625 C-16.59059326 90.26866135 -16.59059326 90.26866135 -18.11767578 90.27175903 C-19.03532715 90.26860687 -19.95297852 90.26545471 -20.8984375 90.26220703 C-21.71038574 90.26141144 -22.52233398 90.26061584 -23.35888672 90.25979614 C-25.21875 90.1328125 -25.21875 90.1328125 -26.21875 89.1328125 C-26.31716666 86.47747005 -26.35588718 83.84340809 -26.359375 81.1875 C-26.37771569 79.53644468 -26.39728715 77.88540266 -26.41796875 76.234375 C-26.44684836 73.62737855 -26.46874747 71.02122885 -26.46923828 68.4140625 C-26.47259128 65.90027482 -26.50726263 63.38844537 -26.546875 60.875 C-26.5398053 60.10493622 -26.5327356 59.33487244 -26.52545166 58.54147339 C-26.64078366 53.36334958 -27.87205423 50.7155877 -31.09375 46.69674683 C-32.67542598 44.49795807 -32.80888414 42.78428982 -32.7421875 40.109375 C-32.73058594 39.23410156 -32.71898438 38.35882813 -32.70703125 37.45703125 C-32.66964844 36.56628906 -32.63226563 35.67554688 -32.59375 34.7578125 C-32.57957031 33.84386719 -32.56539062 32.92992187 -32.55078125 31.98828125 C-32.40207067 25.31613317 -32.40207067 25.31613317 -31.21875 24.1328125 C-28.5414362 24.03300036 -25.89570825 23.99401375 -23.21875 24.0078125 C-22.46851563 24.00394531 -21.71828125 24.00007813 -20.9453125 23.99609375 C-15.34536053 24.00620197 -15.34536053 24.00620197 -14.21875 25.1328125 C-14.07759839 27.80340101 -14.17627893 30.45713488 -14.21875 33.1328125 C-13.22875 33.1328125 -12.23875 33.1328125 -11.21875 33.1328125 C-11.239375 31.8334375 -11.26 30.5340625 -11.28125 29.1953125 C-11.30274454 27.84115617 -11.29023199 26.48525167 -11.21875 25.1328125 C-10.21875 24.1328125 -10.21875 24.1328125 -7.65625 24.0703125 C-6.4496875 24.10125 -6.4496875 24.10125 -5.21875 24.1328125 C-5.22660522 23.0955603 -5.22660522 23.0955603 -5.23461914 22.03735352 C-5.255325 18.92334898 -5.26838963 15.80935889 -5.28125 12.6953125 C-5.28962891 11.60669922 -5.29800781 10.51808594 -5.30664062 9.39648438 C-5.31147461 7.84477539 -5.31147461 7.84477539 -5.31640625 6.26171875 C-5.32426147 4.82421265 -5.32426147 4.82421265 -5.33227539 3.35766602 C-5.13340279 -0.53980934 -3.45380613 0.00496644 0 0 Z M0.78125 6.1328125 C0.78125 8.1128125 0.78125 10.0928125 0.78125 12.1328125 C3.75125 12.1328125 6.72125 12.1328125 9.78125 12.1328125 C9.78125 10.1528125 9.78125 8.1728125 9.78125 6.1328125 C6.81125 6.1328125 3.84125 6.1328125 0.78125 6.1328125 Z M-26.21875 30.1328125 C-26.35587728 31.81795435 -26.45169499 33.50647327 -26.53125 35.1953125 C-26.58925781 36.13503906 -26.64726562 37.07476562 -26.70703125 38.04296875 C-26.19484919 41.28405683 -25.74373844 41.90328298 -23.73242188 44.29101562 C-20.71973843 48.38275415 -20.48568769 51.71820758 -20.51171875 56.69140625 C-20.49659744 57.48055923 -20.48147614 58.26971222 -20.46589661 59.08277893 C-20.42324724 61.57891928 -20.41420437 64.07384516 -20.40625 66.5703125 C-20.38308776 68.27281823 -20.35771884 69.97529546 -20.33007812 71.67773438 C-20.26745162 75.82953335 -20.23493865 79.98058332 -20.21875 84.1328125 C-18.23875 84.1328125 -16.25875 84.1328125 -14.21875 84.1328125 C-14.19296875 82.96363281 -14.1671875 81.79445312 -14.140625 80.58984375 C-14.08432633 79.04163024 -14.02697938 77.4934546 -13.96875 75.9453125 C-13.94748047 74.79192383 -13.94748047 74.79192383 -13.92578125 73.61523438 C-13.70937351 68.572934 -13.00058522 65.7937996 -9.21875 62.1328125 C-5.52149625 60.28418562 -1.25413558 60.65694156 2.78125 61.1328125 C5.71548195 62.92928104 7.25330355 64.0769196 8.78125 67.1328125 C9.01399209 70.01191838 9.20097757 72.87427745 9.34375 75.7578125 C9.38693359 76.55960938 9.43011719 77.36140625 9.47460938 78.1875 C9.58076457 80.1690636 9.68151855 82.15091521 9.78125 84.1328125 C11.76125 84.1328125 13.74125 84.1328125 15.78125 84.1328125 C15.78125 76.2128125 15.78125 68.2928125 15.78125 60.1328125 C13.80125 60.1328125 11.82125 60.1328125 9.78125 60.1328125 C9.78125 58.1528125 9.78125 56.1728125 9.78125 54.1328125 C11.76125 54.1328125 13.74125 54.1328125 15.78125 54.1328125 C16.02875 53.1015625 16.27625 52.0703125 16.53125 51.0078125 C17.32705736 48.11291905 17.99316962 46.85856358 19.90625 44.3828125 C22.60950591 39.69716892 22.11999313 35.42096917 21.78125 30.1328125 C19.80125 30.1328125 17.82125 30.1328125 15.78125 30.1328125 C15.45125 32.7728125 15.12125 35.4128125 14.78125 38.1328125 C10.49125 38.1328125 6.20125 38.1328125 1.78125 38.1328125 C1.45125 35.4928125 1.12125 32.8528125 0.78125 30.1328125 C-1.19875 30.1328125 -3.17875 30.1328125 -5.21875 30.1328125 C-5.54875 32.7728125 -5.87875 35.4128125 -6.21875 38.1328125 C-10.50875 38.1328125 -14.79875 38.1328125 -19.21875 38.1328125 C-19.54875 35.4928125 -19.87875 32.8528125 -20.21875 30.1328125 C-22.19875 30.1328125 -24.17875 30.1328125 -26.21875 30.1328125 Z M-5.84375 67.8203125 C-8.0307389 70.01371485 -8.22619901 71.20694363 -8.54296875 74.359375 C-8.53227925 77.63036227 -8.43377323 80.86923768 -8.21875 84.1328125 C-4.25875 84.1328125 -0.29875 84.1328125 3.78125 84.1328125 C4.5948168 76.42771129 4.5948168 76.42771129 2.73828125 69.15625 C1.30350629 67.62203249 1.30350629 67.62203249 -1.21875 66.1328125 C-3.45846083 65.95255997 -3.45846083 65.95255997 -5.84375 67.8203125 Z " fill="#000000" transform="translate(50.21875,2.8671875)"/>
<path d="M0 0 C2.97 0 5.94 0 9 0 C9 1.98 9 3.96 9 6 C6.03 6 3.06 6 0 6 C0 4.02 0 2.04 0 0 Z " fill="#000000" transform="translate(51,48)"/>
</svg>
