<?xml version="1.0" encoding="UTF-8"?>
<!DOCTYPE svg PUBLIC "-//W3C//DTD SVG 1.1//EN" "http://www.w3.org/Graphics/SVG/1.1/DTD/svg11.dtd">
<svg xmlns="http://www.w3.org/2000/svg" version="1.1" width="96px" height="96px" style="shape-rendering:geometricPrecision; text-rendering:geometricPrecision; image-rendering:optimizeQuality; fill-rule:evenodd; clip-rule:evenodd" xmlns:xlink="http://www.w3.org/1999/xlink">
<g><path style="opacity:0.92" fill="#000000" d="M 45.5,8.5 C 55.3383,11.1644 64.8383,14.831 74,19.5C 80.2722,31.7109 86.2722,44.0442 92,56.5C 92.8196,67.41 92.6529,78.2433 91.5,89C 61.9281,89.8284 32.4281,89.6617 3,88.5C 4.70704,71.9622 7.70704,55.6289 12,39.5C 18.5818,36.6403 25.4152,34.307 32.5,32.5C 36.8458,24.473 41.1791,16.473 45.5,8.5 Z M 48.5,16.5 C 55.3601,18.5937 62.0268,21.2603 68.5,24.5C 70.1622,27.8244 71.8289,31.1578 73.5,34.5C 67.8722,35.4954 62.2055,35.8288 56.5,35.5C 56.5,37.5 56.5,39.5 56.5,41.5C 63.5316,41.1697 70.5316,41.503 77.5,42.5C 78.7061,45.0794 80.0394,47.5794 81.5,50C 78.1832,50.4983 74.8499,50.665 71.5,50.5C 71.5,52.5 71.5,54.5 71.5,56.5C 75.8839,56.1744 80.2172,56.5078 84.5,57.5C 85,58.5 85.5,59.5 86,60.5C 86.4997,68.1594 86.6664,75.8261 86.5,83.5C 79.5,83.5 72.5,83.5 65.5,83.5C 67.1835,65.6829 59.1835,57.8495 41.5,60C 31.5872,64.6564 27.5872,72.4897 29.5,83.5C 22.8002,83.83 16.1335,83.4967 9.5,82.5C 11.2181,75.9097 12.5514,69.243 13.5,62.5C 16.8333,62.5 20.1667,62.5 23.5,62.5C 23.5,60.5 23.5,58.5 23.5,56.5C 20.8333,56.5 18.1667,56.5 15.5,56.5C 15.6307,52.3462 16.464,48.3462 18,44.5C 24.0697,42.4396 30.2364,40.6063 36.5,39C 41.4161,32.0017 45.4161,24.5017 48.5,16.5 Z M 46.5,65.5 C 56.16,67.442 60.4934,73.442 59.5,83.5C 51.5,83.5 43.5,83.5 35.5,83.5C 34.4261,74.303 38.0927,68.303 46.5,65.5 Z"/></g>
</svg>
