<?xml version="1.0" encoding="UTF-8"?>
<svg version="1.1" xmlns="http://www.w3.org/2000/svg" width="96" height="96">
<path d="M0 0 C1.98 0 3.96 0 6 0 C6.11214844 0.61488281 6.22429688 1.22976562 6.33984375 1.86328125 C6.98513415 4.5077066 7.64058649 6.63361352 9 9 C11.88195705 10.65559235 14.7440112 11.40614041 18 12 C18 13.98 18 15.96 18 18 C10.57142857 18.28571429 10.57142857 18.28571429 7 16 C7.33665915 18.48248124 7.33665915 18.48248124 9 21 C11.90755893 22.36075884 14.89287788 23.21362959 18 24 C18 25.98 18 27.96 18 30 C10.57142857 30.28571429 10.57142857 30.28571429 7 28 C6.67 30.64 6.34 33.28 6 36 C7.051875 35.9175 8.10375 35.835 9.1875 35.75 C17.53913002 35.73511296 25.71302238 39.18144867 33 43 C32.505 39.04 32.505 39.04 32 35 C31.01 35 30.02 35 29 35 C27.3125 32.5 27.3125 32.5 26 30 C26.969375 29.38125 27.93875 28.7625 28.9375 28.125 C31.20558234 26.28385081 31.92271209 25.31838732 32.62109375 22.44140625 C32.85067795 19.95130073 32.99029065 17.50015637 33 15 C34.98 15 36.96 15 39 15 C39.495 16.98 39.495 16.98 40 19 C40.50789063 18.4946875 41.01578125 17.989375 41.5390625 17.46875 C42.22742187 16.8190625 42.91578125 16.169375 43.625 15.5 C44.29789063 14.8503125 44.97078125 14.200625 45.6640625 13.53125 C48.78146443 11.48773569 50.32897024 11.37054934 54 12 C56.33716059 13.62164342 58.25305674 15.14663042 60.3125 17.0625 C61.44664958 18.07173821 62.58207283 19.07954689 63.71875 20.0859375 C64.27175781 20.5819043 64.82476562 21.07787109 65.39453125 21.58886719 C68.78616425 24.5699558 72.40157336 27.2756098 76 30 C74.6875 32.5 74.6875 32.5 73 35 C72.01 35 71.02 35 70 35 C69.67 37.97 69.34 40.94 69 44 C69.99 44 70.98 44 72 44 C72 46.31 72 48.62 72 51 C70.741875 50.82082031 69.48375 50.64164063 68.1875 50.45703125 C52.00147237 48.35907794 38.29655182 49.04549817 24 58 C22.31197213 59.30618432 20.63894571 60.63273538 19 62 C19.53141602 62.20044922 20.06283203 62.40089844 20.61035156 62.60742188 C23.1576611 63.5696176 25.70394656 64.53448536 28.25 65.5 C29.19351318 65.85731201 30.13702637 66.21462402 31.10913086 66.58276367 C36.77943205 68.74056407 42.41245418 70.9709106 48.02539062 73.2734375 C55.93326236 76.51207319 63.58333716 79.35772432 72 81 C72 82.98 72 84.96 72 87 C60.27039411 88.0289128 49.82927504 82.81810547 39.29370117 78.27294922 C22.28013526 70.95830601 6.37402279 67.65062143 -12 66 C-12 64.02 -12 62.04 -12 60 C-11.07102905 60.0628418 -11.07102905 60.0628418 -10.12329102 60.12695312 C1.91616854 61.24304774 1.91616854 61.24304774 13.2890625 58.32421875 C15.56975816 56.27379363 15.56975816 56.27379363 17.31640625 54.04296875 C19.28963956 51.64853483 21.25273607 50.4114792 24 49 C24.66 49 25.32 49 26 49 C26 48.34 26 47.68 26 47 C24.9790625 46.814375 24.9790625 46.814375 23.9375 46.625 C21 46 21 46 18 45 C8.2541279 42.19437015 -2.04925412 42.94141001 -12 44 C-12 41.69 -12 39.38 -12 37 C-8.0186217 35.6728739 -4.14954773 35.93084087 0 36 C-0.33 33.36 -0.66 30.72 -1 28 C-1.515625 28.33 -2.03125 28.66 -2.5625 29 C-5.78026512 30.32010877 -8.5570528 30.13242105 -12 30 C-12 28.02 -12 26.04 -12 24 C-11.36191406 23.82984375 -10.72382813 23.6596875 -10.06640625 23.484375 C-8.82697266 23.12085938 -8.82697266 23.12085938 -7.5625 22.75 C-6.73878906 22.51796875 -5.91507813 22.2859375 -5.06640625 22.046875 C-2.80004532 21.19229321 -2.80004532 21.19229321 -2.21484375 18.890625 C-2.14394531 18.26671875 -2.07304687 17.6428125 -2 17 C-2.99 17.33 -3.98 17.66 -5 18 C-7.33299825 18.03954234 -9.66708189 18.04401732 -12 18 C-12 16.02 -12 14.04 -12 12 C-11.38511719 11.88785156 -10.77023438 11.77570312 -10.13671875 11.66015625 C-7.4922934 11.01486585 -5.36638648 10.35941351 -3 9 C-1.34440765 6.11804295 -0.59385959 3.2559888 0 0 Z M41.37890625 26.06640625 C37.68251667 30.62467978 38.15274866 34.60191531 38.61328125 40.25390625 C38.74089844 41.16011719 38.86851563 42.06632812 39 43 C41.97 42.67 44.94 42.34 48 42 C48 39.03 48 36.06 48 33 C49.98 33 51.96 33 54 33 C54 35.97 54 38.94 54 42 C56.97 42 59.94 42 63 42 C63.69007479 37.49011729 63.92840032 33.48643183 63 29 C59.84257228 25.19449599 56.26725677 22.47962218 52 20 C47.80311541 20 44.48823666 23.53272762 41.37890625 26.06640625 Z " fill="#000000" transform="translate(18,6)"/>
</svg>
