<?xml version="1.0" encoding="UTF-8"?>
<svg version="1.1" xmlns="http://www.w3.org/2000/svg" width="96" height="96">
<path d="M0 0 C3.16355493 0.32125601 4.65288433 0.65705807 6.94921875 2.92578125 C7.52285156 3.71339844 8.09648438 4.50101562 8.6875 5.3125 C9.26886719 6.09238281 9.85023437 6.87226563 10.44921875 7.67578125 C13.35666024 12.03328172 14.27636025 14.74431898 14.25 20.0625 C14.25515625 21.10535156 14.2603125 22.14820313 14.265625 23.22265625 C14 26 14 26 12 29 C11.70562368 31.53124635 11.70562368 31.53124635 11.76049805 34.40185547 C11.7549012 36.05905106 11.7549012 36.05905106 11.74919128 37.74972534 C11.75332535 38.94348785 11.75745941 40.13725037 11.76171875 41.3671875 C11.74630061 43.88672415 11.72999709 46.4062555 11.71289062 48.92578125 C11.69642087 52.90457804 11.68751419 56.88298826 11.69458008 60.86181641 C11.69719513 64.6973874 11.66911143 68.53177433 11.63671875 72.3671875 C11.64692551 73.55690155 11.65713226 74.7466156 11.66764832 75.97238159 C11.55856443 85.16300093 11.55856443 85.16300093 8.58911133 88.24804688 C6.10659677 89.92787002 4.94943481 90.68446441 2 90.625 C1.0409375 90.64433594 1.0409375 90.64433594 0.0625 90.6640625 C-3.25465981 89.59603756 -5.27758748 87.97178414 -7 85 C-7.75093266 80.79575512 -7.67327601 76.62835313 -7.63671875 72.3671875 C-7.64709671 71.13839874 -7.65747467 69.90960999 -7.66816711 68.64358521 C-7.69787399 64.72043899 -7.69446717 60.79823855 -7.6875 56.875 C-7.6963808 52.94488576 -7.7122847 49.0150255 -7.7389679 45.08499146 C-7.75393019 42.63994616 -7.75765872 40.19480176 -7.74919128 37.74972534 C-7.75292252 36.64492828 -7.75665375 35.54013123 -7.76049805 34.40185547 C-7.75786201 32.94221878 -7.75786201 32.94221878 -7.75517273 31.45309448 C-7.83176257 28.74391847 -7.83176257 28.74391847 -10 26 C-10.99528203 18.83628402 -10.12567508 12.95097375 -6 7 C-4.09743682 4.56843145 -2.11134261 2.25209878 0 0 Z M1 9 C-2.86569587 15.05218697 -2.86569587 15.05218697 -4 22 C-1.68726558 24.8971941 -1.68726558 24.8971941 1 27 C4.05584563 26.11541311 5.64003978 25.50994365 7.5 22.875 C8.41456651 17.61624258 5.86776416 13.30164623 3 9 C2.34 9 1.68 9 1 9 Z M-1 33 C-1.02529479 39.79930835 -1.04284349 46.59860463 -1.05493164 53.39794922 C-1.05996943 55.71240696 -1.06679981 58.0268615 -1.07543945 60.34130859 C-1.08752924 63.6624429 -1.09323375 66.98353525 -1.09765625 70.3046875 C-1.10281754 71.34430634 -1.10797882 72.38392517 -1.11329651 73.45504761 C-1.11337204 74.41589264 -1.11344757 75.37673767 -1.11352539 76.36669922 C-1.115746 77.21497284 -1.11796661 78.06324646 -1.12025452 78.93722534 C-1.13232184 81.06402393 -1.13232184 81.06402393 0 83 C1.32 83 2.64 83 4 83 C5.20887291 80.58225419 5.12059343 79.06668936 5.11352539 76.36669922 C5.11344986 75.40585419 5.11337433 74.44500916 5.11329651 73.45504761 C5.10813522 72.41542877 5.10297394 71.37580994 5.09765625 70.3046875 C5.09553383 68.71081711 5.09553383 68.71081711 5.09336853 67.08474731 C5.08775834 63.68146991 5.07520409 60.27825762 5.0625 56.875 C5.05748631 54.57161553 5.05292318 52.26823003 5.04882812 49.96484375 C5.0377856 44.30987351 5.02103752 38.65494141 5 33 C3.02 33 1.04 33 -1 33 Z " fill="#000000" transform="translate(76,3)"/>
<path d="M0 0 C1.53333984 0.01353516 1.53333984 0.01353516 3.09765625 0.02734375 C5.60701522 0.0507957 8.11588336 0.08361645 10.625 0.125 C10.625 2.105 10.625 4.085 10.625 6.125 C9.76503418 6.17660278 9.76503418 6.17660278 8.88769531 6.22924805 C-5.00447333 7.12780889 -18.03851837 8.00029462 -28.625 18.1015625 C-36.00563801 26.6354252 -39.22242605 35.94132918 -39.375 47.125 C-38.55091318 57.21243315 -34.0089838 67.35211632 -26.375 74.125 C-17.70338415 80.25030124 -9.95489206 82.38584226 0.5 83.25 C1.96179687 83.37955078 1.96179687 83.37955078 3.453125 83.51171875 C5.84326446 83.72261341 8.23377625 83.92684637 10.625 84.125 C10.625 86.105 10.625 88.085 10.625 90.125 C-6.844087 90.76327468 -19.56463871 89.98487195 -33.375 78.125 C-41.04534828 70.95842459 -46.14731114 60.42690458 -46.7109375 49.92578125 C-47.02997389 34.25311846 -43.59288883 22.99085834 -32.65234375 11.28125 C-28.19925236 7.1545081 -22.92900731 4.49425196 -17.375 2.125 C-16.51777344 1.75117187 -15.66054688 1.37734375 -14.77734375 0.9921875 C-9.84222011 -0.26567409 -5.0689944 -0.08502829 0 0 Z " fill="#000000" transform="translate(52.375,2.875)"/>
<path d="M0 0 C3.55247432 0.87379409 4.94828114 2.4927342 6.9375 5.4765625 C7.63597125 8.3162489 7.63597125 10.6368761 6.9375 13.4765625 C4.94828114 16.4603908 3.55247432 18.07933091 0 18.953125 C-3.92313492 19.23547183 -5.73362371 18.69581336 -9.0625 16.4765625 C-11.28175086 13.14768621 -11.82140933 11.33719742 -11.5390625 7.4140625 C-10.07519871 1.46261629 -5.59135555 -0.40240816 0 0 Z M-4.0625 7.4765625 C-4.0625 8.7965625 -4.0625 10.1165625 -4.0625 11.4765625 C-2.7425 11.4765625 -1.4225 11.4765625 -0.0625 11.4765625 C-0.0625 10.1565625 -0.0625 8.8365625 -0.0625 7.4765625 C-1.3825 7.4765625 -2.7025 7.4765625 -4.0625 7.4765625 Z " fill="#000000" transform="translate(53.0625,62.5234375)"/>
<path d="M0 0 C3.55247432 0.87379409 4.94828114 2.4927342 6.9375 5.4765625 C7.63597125 8.3162489 7.63597125 10.6368761 6.9375 13.4765625 C4.94828114 16.4603908 3.55247432 18.07933091 0 18.953125 C-3.92313492 19.23547183 -5.73362371 18.69581336 -9.0625 16.4765625 C-11.28175086 13.14768621 -11.82140933 11.33719742 -11.5390625 7.4140625 C-10.07519871 1.46261629 -5.59135555 -0.40240816 0 0 Z M-4.0625 7.4765625 C-4.0625 8.7965625 -4.0625 10.1165625 -4.0625 11.4765625 C-2.7425 11.4765625 -1.4225 11.4765625 -0.0625 11.4765625 C-0.0625 10.1565625 -0.0625 8.8365625 -0.0625 7.4765625 C-1.3825 7.4765625 -2.7025 7.4765625 -4.0625 7.4765625 Z " fill="#000000" transform="translate(32.0625,50.5234375)"/>
<path d="M0 0 C3.55247432 0.87379409 4.94828114 2.4927342 6.9375 5.4765625 C7.63597125 8.3162489 7.63597125 10.6368761 6.9375 13.4765625 C4.94828114 16.4603908 3.55247432 18.07933091 0 18.953125 C-3.92313492 19.23547183 -5.73362371 18.69581336 -9.0625 16.4765625 C-11.28175086 13.14768621 -11.82140933 11.33719742 -11.5390625 7.4140625 C-10.07519871 1.46261629 -5.59135555 -0.40240816 0 0 Z M-4.0625 7.4765625 C-4.0625 8.7965625 -4.0625 10.1165625 -4.0625 11.4765625 C-2.7425 11.4765625 -1.4225 11.4765625 -0.0625 11.4765625 C-0.0625 10.1565625 -0.0625 8.8365625 -0.0625 7.4765625 C-1.3825 7.4765625 -2.7025 7.4765625 -4.0625 7.4765625 Z " fill="#000000" transform="translate(32.0625,26.5234375)"/>
<path d="M0 0 C3.55247432 0.87379409 4.94828114 2.4927342 6.9375 5.4765625 C7.63597125 8.3162489 7.63597125 10.6368761 6.9375 13.4765625 C4.94828114 16.4603908 3.55247432 18.07933091 0 18.953125 C-3.92313492 19.23547183 -5.73362371 18.69581336 -9.0625 16.4765625 C-11.28175086 13.14768621 -11.82140933 11.33719742 -11.5390625 7.4140625 C-10.07519871 1.46261629 -5.59135555 -0.40240816 0 0 Z M-4.0625 7.4765625 C-4.0625 8.7965625 -4.0625 10.1165625 -4.0625 11.4765625 C-2.7425 11.4765625 -1.4225 11.4765625 -0.0625 11.4765625 C-0.0625 10.1565625 -0.0625 8.8365625 -0.0625 7.4765625 C-1.3825 7.4765625 -2.7025 7.4765625 -4.0625 7.4765625 Z " fill="#000000" transform="translate(53.0625,14.5234375)"/>
</svg>
