<?xml version="1.0" encoding="UTF-8"?>
<!DOCTYPE svg PUBLIC "-//W3C//DTD SVG 1.1//EN" "http://www.w3.org/Graphics/SVG/1.1/DTD/svg11.dtd">
<svg xmlns="http://www.w3.org/2000/svg" version="1.1" width="96px" height="96px" style="shape-rendering:geometricPrecision; text-rendering:geometricPrecision; image-rendering:optimizeQuality; fill-rule:evenodd; clip-rule:evenodd" xmlns:xlink="http://www.w3.org/1999/xlink">
<g><path style="opacity:0.982" fill="#000000" d="M 10.5,5.5 C 34.8356,5.33336 59.1689,5.50003 83.5,6C 84.4162,6.37424 85.2496,6.87424 86,7.5C 86.6667,33.8333 86.6667,60.1667 86,86.5C 85.6258,87.4162 85.1258,88.2496 84.5,89C 60.1667,89.6667 35.8333,89.6667 11.5,89C 10.5838,88.6258 9.75044,88.1258 9,87.5C 8.33333,61.1667 8.33333,34.8333 9,8.5C 9.51328,7.47344 10.0133,6.47344 10.5,5.5 Z M 14.5,11.5 C 36.5,11.5 58.5,11.5 80.5,11.5C 80.5,35.5 80.5,59.5 80.5,83.5C 74.5,83.5 68.5,83.5 62.5,83.5C 62.6666,68.4963 62.4999,53.4963 62,38.5C 56.7064,29.6411 49.2064,27.1411 39.5,31C 36.5379,33.2866 34.3712,36.1199 33,39.5C 32.5001,54.1629 32.3334,68.8295 32.5,83.5C 26.5,83.5 20.5,83.5 14.5,83.5C 14.5,59.5 14.5,35.5 14.5,11.5 Z M 46.5,35.5 C 50.1363,35.7707 52.9696,37.4374 55,40.5C 56.3696,46.7416 56.8696,53.0749 56.5,59.5C 50.5,59.5 44.5,59.5 38.5,59.5C 38.2323,53.6182 38.5656,47.7849 39.5,42C 41.0891,38.9064 43.4224,36.7398 46.5,35.5 Z M 38.5,65.5 C 44.5,65.5 50.5,65.5 56.5,65.5C 56.5,67.5 56.5,69.5 56.5,71.5C 50.5,71.5 44.5,71.5 38.5,71.5C 38.5,69.5 38.5,67.5 38.5,65.5 Z M 38.5,77.5 C 44.5,77.5 50.5,77.5 56.5,77.5C 56.5,79.5 56.5,81.5 56.5,83.5C 50.5,83.5 44.5,83.5 38.5,83.5C 38.5,81.5 38.5,79.5 38.5,77.5 Z"/></g>
<g><path style="opacity:0.867" fill="#000000" d="M 45.5,17.5 C 50.1585,17.0146 51.4919,18.848 49.5,23C 44.7282,23.8104 43.3948,21.9771 45.5,17.5 Z"/></g>
</svg>
