<?xml version="1.0" encoding="UTF-8"?>
<svg version="1.1" xmlns="http://www.w3.org/2000/svg" width="96" height="96">
<path d="M0 0 C4.34673996 1.70089825 7.76297793 4.88128395 10 9 C10.60045824 12.64843646 10.47476851 16.19025656 10.3125 19.875 C10.28994141 20.84953125 10.26738281 21.8240625 10.24414062 22.828125 C10.18550753 25.22035515 10.10351153 27.6093615 10 30 C11.98 30 13.96 30 16 30 C15.95359375 29.19175781 15.9071875 28.38351563 15.859375 27.55078125 C15.56194387 18.74469541 15.56194387 18.74469541 17.875 14.8125 C21.48283189 11.73523162 24.12635762 11.66989821 28.73828125 11.70703125 C32.0542278 12.13655801 33.74987627 13.60924354 36 16 C37.97962548 19.95925096 37.27253472 24.89644886 37.3125 29.25 C37.35600586 30.80654297 37.35600586 30.80654297 37.40039062 32.39453125 C37.45040184 38.41895962 37.31104461 42.39583295 33 47 C28.10284465 51.28678526 24.30767283 51.52032 18.125 51.25 C15.44375 51.1675 12.7625 51.085 10 51 C10 61.89 10 72.78 10 84 C18.91 84 27.82 84 37 84 C37 85.98 37 87.96 37 90 C9.28 90 -18.44 90 -47 90 C-47 88.02 -47 86.04 -47 84 C-38.09 84 -29.18 84 -20 84 C-20 78.06 -20 72.12 -20 66 C-22.475 66.103125 -24.95 66.20625 -27.5 66.3125 C-33.29593383 66.40069772 -37.63509533 66.09991037 -42.51953125 62.6796875 C-47.88269871 56.59482732 -47.48627324 50.13923772 -47.4375 42.4375 C-47.45748047 41.31408203 -47.47746094 40.19066406 -47.49804688 39.03320312 C-47.49317476 30.83343497 -47.49317476 30.83343497 -45.09765625 26.78515625 C-41.50543669 23.72809045 -38.84897482 23.67009682 -34.26171875 23.70703125 C-30.9457722 24.13655801 -29.25012373 25.60924354 -27 28 C-25.46733418 31.06533164 -25.89723529 34.26754272 -25.9375 37.625 C-25.94201172 38.33140625 -25.94652344 39.0378125 -25.95117188 39.765625 C-25.96296125 41.51045275 -25.98089676 43.255237 -26 45 C-24.02 45 -22.04 45 -20 45 C-20.01571045 43.96593018 -20.0314209 42.93186035 -20.04760742 41.86645508 C-20.10204054 38.01806473 -20.13639849 34.16970821 -20.16479492 30.32104492 C-20.17985114 28.65757519 -20.20030063 26.99414495 -20.22631836 25.33081055 C-20.26284207 22.93528478 -20.27975782 20.54028533 -20.29296875 18.14453125 C-20.30845261 17.4047554 -20.32393646 16.66497955 -20.33988953 15.90278625 C-20.34190745 9.66583895 -18.54105637 6.73368842 -14.5 2.1875 C-10.22286313 -1.21062628 -5.17363142 -0.71305793 0 0 Z M-11 9 C-14.29076874 13.22534904 -14.46835881 17.19497492 -14.51171875 22.36328125 C-14.52966995 23.15526413 -14.54762115 23.94724701 -14.56611633 24.76322937 C-14.62006838 27.27959962 -14.65406563 29.79578185 -14.6875 32.3125 C-14.72068651 34.02411462 -14.75517741 35.73570448 -14.79101562 37.44726562 C-14.87823016 41.63153519 -14.93842409 45.81496114 -15 50 C-20.28 50 -25.56 50 -31 50 C-31.25 42.25 -31.25 42.25 -31.29785156 39.82910156 C-31.47028747 36.2260987 -31.74608197 34.31206719 -34.046875 31.484375 C-34.69140625 30.99453125 -35.3359375 30.5046875 -36 30 C-39.12197478 31.3089572 -39.12197478 31.3089572 -41 34 C-41.15176841 36.57714437 -41.23140137 39.10926478 -41.25 41.6875 C-41.270625 42.38294922 -41.29125 43.07839844 -41.3125 43.79492188 C-41.34989752 48.80151477 -40.65756894 52.6193325 -38 57 C-32.97997083 60.00953541 -28.2587228 60.5037125 -22.5625 60.6875 C-20.066875 60.790625 -17.57125 60.89375 -15 61 C-14.505 72.385 -14.505 72.385 -14 84 C-8.06 84 -2.12 84 4 84 C4.33 71.46 4.66 58.92 5 46 C13.415 45.505 13.415 45.505 22 45 C26.77806384 43.23753102 26.77806384 43.23753102 30 40 C31.17435664 36.47693008 31.25972118 33.2323872 31.3125 29.5625 C31.34988281 28.24378906 31.38726562 26.92507812 31.42578125 25.56640625 C31.31559395 21.93529023 31.31559395 21.93529023 28.98046875 19.52734375 C28.32691406 19.02332031 27.67335938 18.51929688 27 18 C23.87802522 19.3089572 23.87802522 19.3089572 22 22 C21.77049681 24.204364 21.58924067 26.41392173 21.4375 28.625 C21.293125 30.72875 21.14875 32.8325 21 35 C15.72 35 10.44 35 5 35 C4.94392578 32.81310547 4.94392578 32.81310547 4.88671875 30.58203125 C4.82104843 28.6588289 4.75460145 26.73565295 4.6875 24.8125 C4.65366211 23.37293945 4.65366211 23.37293945 4.61914062 21.90429688 C4.39319623 14.95072257 4.39319623 14.95072257 1 9 C-4.05165507 5.42687812 -5.94834493 5.42687812 -11 9 Z " fill="#000000" transform="translate(53,0)"/>
</svg>
