<?xml version="1.0" standalone="no"?>
<!DOCTYPE svg PUBLIC "-//W3C//DTD SVG 20010904//EN"
 "http://www.w3.org/TR/2001/REC-SVG-20010904/DTD/svg10.dtd">
<svg version="1.0" xmlns="http://www.w3.org/2000/svg"
 width="96.000000pt" height="96.000000pt" viewBox="0 0 96.000000 96.000000"
 preserveAspectRatio="xMidYMid meet">

<g transform="translate(0.000000,96.000000) scale(0.100000,-0.100000)"
fill="#000000" stroke="none">
<path d="M380 801 c-290 -73 -346 -90 -349 -106 -2 -10 4 -24 13 -30 14 -10
16 -51 18 -306 l3 -294 415 0 415 0 0 235 0 235 -117 3 -118 3 0 134 0 135 46
11 c40 10 45 14 42 37 -2 14 -7 26 -13 28 -5 1 -165 -37 -355 -85z m220 -136
l0 -125 -135 0 -135 0 0 94 0 94 118 30 c64 17 125 31 135 31 15 1 17 -11 17
-124z m-330 -130 l0 -175 -75 0 -75 0 0 158 0 159 63 15 c34 9 68 16 75 17 9
1 12 -40 12 -174z m570 -235 l0 -180 -90 0 -89 0 -3 118 -3 117 -80 3 c-131 5
-125 11 -125 -123 l0 -115 -60 0 -60 0 0 180 0 180 255 0 255 0 0 -180z m-570
-90 l0 -90 -75 0 -75 0 0 90 0 90 75 0 75 0 0 -90z m330 0 l0 -90 -45 0 -45 0
0 90 0 90 45 0 45 0 0 -90z"/>
<path d="M732 351 c-23 -14 -10 -46 18 -46 20 0 25 5 25 25 0 26 -20 36 -43
21z"/>
<path d="M732 231 c-23 -14 -10 -46 18 -46 20 0 25 5 25 25 0 26 -20 36 -43
21z"/>
</g>
</svg>
