<?xml version="1.0" encoding="UTF-8"?>
<!DOCTYPE svg PUBLIC "-//W3C//DTD SVG 1.1//EN" "http://www.w3.org/Graphics/SVG/1.1/DTD/svg11.dtd">
<svg xmlns="http://www.w3.org/2000/svg" version="1.1" width="96px" height="96px" style="shape-rendering:geometricPrecision; text-rendering:geometricPrecision; image-rendering:optimizeQuality; fill-rule:evenodd; clip-rule:evenodd" xmlns:xlink="http://www.w3.org/1999/xlink">
<g><path style="opacity:0.952" fill="#000000" d="M 38.5,5.5 C 53.0848,3.35178 65.9181,7.01845 77,16.5C 77.4986,12.8484 77.6653,9.18174 77.5,5.5C 79.5,5.5 81.5,5.5 83.5,5.5C 83.3337,12.175 83.5004,18.8417 84,25.5C 86.4548,29.531 88.1214,33.8644 89,38.5C 89.6667,54.5 89.6667,70.5 89,86.5C 88.6258,87.4162 88.1258,88.2496 87.5,89C 61.1667,89.6667 34.8333,89.6667 8.5,89C 7.58377,88.6258 6.75044,88.1258 6,87.5C 5.33333,71.1667 5.33333,54.8333 6,38.5C 10.3482,20.9858 21.1816,9.98583 38.5,5.5 Z M 45.5,11.5 C 67.3083,12.6426 79.8083,23.976 83,45.5C 83.4999,58.1623 83.6666,70.8289 83.5,83.5C 76.5,83.5 69.5,83.5 62.5,83.5C 62.5,73.5 62.5,63.5 62.5,53.5C 64.5,53.5 66.5,53.5 68.5,53.5C 68.5,51.5 68.5,49.5 68.5,47.5C 54.5,47.5 40.5,47.5 26.5,47.5C 26.5,49.5 26.5,51.5 26.5,53.5C 28.5,53.5 30.5,53.5 32.5,53.5C 32.5,63.5 32.5,73.5 32.5,83.5C 25.5,83.5 18.5,83.5 11.5,83.5C 11.3334,70.8289 11.5001,58.1623 12,45.5C 14.671,25.663 25.8377,14.3297 45.5,11.5 Z M 38.5,53.5 C 44.5,53.5 50.5,53.5 56.5,53.5C 56.5,63.5 56.5,73.5 56.5,83.5C 50.5,83.5 44.5,83.5 38.5,83.5C 38.5,73.5 38.5,63.5 38.5,53.5 Z"/></g>
<g><path style="opacity:0.867" fill="#000000" d="M 45.5,32.5 C 50.1585,32.0146 51.4919,33.848 49.5,38C 44.7282,38.8104 43.3948,36.9771 45.5,32.5 Z"/></g>
</svg>
