<?xml version="1.0" encoding="UTF-8"?>
<svg version="1.1" xmlns="http://www.w3.org/2000/svg" width="96" height="96">
<path d="M0 0 C2.08268593 -0.08126087 4.16628658 -0.13930839 6.25 -0.1875 C7.99023438 -0.23970703 7.99023438 -0.23970703 9.765625 -0.29296875 C13.22268407 0.02017066 14.51565563 0.65709108 17 3 C17.61875 2.690625 18.2375 2.38125 18.875 2.0625 C22.79349421 0.1032529 25.16763956 -0.10619961 29.625 -0.0625 C30.81351563 -0.05347656 32.00203125 -0.04445313 33.2265625 -0.03515625 C34.14179687 -0.02355469 35.05703125 -0.01195312 36 0 C36.91545316 11.27363617 36.91545316 11.27363617 34.734375 15.38671875 C32.66668602 17.7806208 30.83728664 19.58135668 28 21 C25.6670134 21.04022391 23.33293334 21.04320247 21 21 C21 22.65 21 24.3 21 26 C22.11375 25.67 23.2275 25.34 24.375 25 C32.08152699 23.23779898 40.14651309 23.84750511 48 24 C48 21.03 48 18.06 48 15 C50.08268593 14.91873913 52.16628658 14.86069161 54.25 14.8125 C55.41015625 14.77769531 56.5703125 14.74289063 57.765625 14.70703125 C61.22268407 15.02017066 62.51565563 15.65709108 65 18 C65.61875 17.690625 66.2375 17.38125 66.875 17.0625 C70.79349421 15.1032529 73.16763956 14.89380039 77.625 14.9375 C78.81351562 14.94652344 80.00203125 14.95554687 81.2265625 14.96484375 C82.14179687 14.97644531 83.05703125 14.98804688 84 15 C85.03368414 27.55734812 85.03368414 27.55734812 81 32.8125 C80.0295269 33.90203578 79.03942823 34.97603945 78 36 C78.39832031 36.4846875 78.79664062 36.969375 79.20703125 37.46875 C79.73683594 38.1390625 80.26664062 38.809375 80.8125 39.5 C81.33457031 40.1496875 81.85664062 40.799375 82.39453125 41.46875 C87.61163536 49.6942572 87.43027388 57.29165929 87.3125 66.8125 C87.31460792 68.14778876 87.31785444 69.48307624 87.32226562 70.81835938 C87.26734636 80.59898045 87.26734636 80.59898045 85 84 C82.26471699 84.29693304 79.75538307 84.39904195 77.01782227 84.37231445 C75.78103226 84.37779045 75.78103226 84.37779045 74.51925659 84.38337708 C71.78476572 84.39150462 69.05086342 84.37785324 66.31640625 84.36328125 C64.42073059 84.36276286 62.5250544 84.36327975 60.62937927 84.36479187 C56.65217079 84.36470204 52.67516458 84.35425258 48.69799805 84.33618164 C43.59545921 84.31350956 38.49321653 84.31294649 33.39064121 84.31969929 C29.47447571 84.32303847 25.55837793 84.31640988 21.64222527 84.30657005 C19.76072481 84.30271572 17.87921682 84.3015708 15.99771309 84.3031559 C13.36885316 84.3035261 10.74037495 84.29091861 8.11157227 84.2746582 C6.94024498 84.27837433 6.94024498 84.27837433 5.74525452 84.28216553 C1.96010308 84.24473435 0.22827778 84.15218519 -3 82 C-3.59011235 77.87812762 -3.47208481 73.74154158 -3.44604492 69.58105469 C-3.43764267 67.53474686 -3.46609324 65.49133624 -3.49804688 63.4453125 C-3.49279779 52.75817804 -2.09076889 44.47821618 5.5 36.5625 C6.2528125 35.75941406 7.005625 34.95632812 7.78125 34.12890625 C10 32 10 32 12.234375 30.4765625 C14.1629185 29.13966252 14.1629185 29.13966252 14.609375 26.95703125 C14.65578125 26.24933594 14.7021875 25.54164062 14.75 24.8125 C14.8325 23.554375 14.915 22.29625 15 21 C13.4840625 21.185625 13.4840625 21.185625 11.9375 21.375 C6.78828213 20.8845983 4.42140499 18.73068454 1 15 C-0.44207941 12.11584117 -0.09394887 9.58278472 -0.0625 6.375 C-0.05347656 5.18648437 -0.04445313 3.99796875 -0.03515625 2.7734375 C-0.02355469 1.85820313 -0.01195312 0.94296875 0 0 Z M7 7 C7.33 8.98 7.66 10.96 8 13 C10.97 13.495 10.97 13.495 14 14 C13.67 12.02 13.34 10.04 13 8 C10.03 7.505 10.03 7.505 7 7 Z M23.25 8.25 C21.61250787 10.18405876 21.61250787 10.18405876 22 14 C23.98 13.67 25.96 13.34 28 13 C28.33 11.02 28.66 9.04 29 7 C25.18405876 6.61250787 25.18405876 6.61250787 23.25 8.25 Z M55 22 C55.33 23.98 55.66 25.96 56 28 C58.97 28.495 58.97 28.495 62 29 C61.67 27.02 61.34 25.04 61 23 C58.03 22.505 58.03 22.505 55 22 Z M71.25 23.25 C69.61250787 25.18405876 69.61250787 25.18405876 70 29 C71.98 28.67 73.96 28.34 76 28 C76.33 26.02 76.66 24.04 77 22 C73.18405876 21.61250787 73.18405876 21.61250787 71.25 23.25 Z M11.625 39.6875 C6.17268344 45.61345213 3.67658583 52.05011655 3 60 C7.73363831 63.25865519 7.73363831 63.25865519 13.25 63.875 C16.17244186 63.08459412 16.17244186 63.08459412 19 61 C21.04296875 60.5859375 21.04296875 60.5859375 23.1875 60.375 C24.445625 60.25125 25.70375 60.1275 27 60 C27.06316406 59.27554688 27.12632813 58.55109375 27.19140625 57.8046875 C27.80939612 52.92582014 28.34650009 48.87772718 31.9375 45.3125 C36.55604169 41.96236284 41.53873097 42.15329162 47 43 C51.17430913 44.68748667 53.6629922 47.16063004 56 51 C56.6038754 53.9942155 56.86714727 56.95102996 57 60 C58.093125 60.28875 59.18625 60.5775 60.3125 60.875 C64 62 64 62 67 64 C70.83103042 63.68074747 72.76680553 63.15546298 76 61 C77.65549531 60.61500109 79.3222433 60.27206865 81 60 C79.84154623 51.56230689 77.65827946 45.25180396 71.1875 39.5 C70.1046875 38.7575 70.1046875 38.7575 69 38 C69 40.31 69 42.62 69 45 C67.02 45 65.04 45 63 45 C63 42.03 63 39.06 63 36 C61.576875 35.731875 60.15375 35.46375 58.6875 35.1875 C54.35506097 34.37124337 54.35506097 34.37124337 52.54296875 32.4765625 C43.53197816 23.85338669 19.43601006 32.45188663 11.625 39.6875 Z M36 51 C31.85257671 55.79607243 32.66338313 61.33635469 32.8125 67.3125 C32.82603516 68.33923828 32.83957031 69.36597656 32.85351562 70.42382812 C32.88875679 72.94944489 32.94256053 75.47479056 33 78 C38.94 78 44.88 78 51 78 C51.08104454 74.43704188 51.14052442 70.87593293 51.1875 67.3125 C51.21263672 66.30509766 51.23777344 65.29769531 51.26367188 64.25976562 C51.43396377 57.1003095 51.43396377 57.1003095 48 51 C42.94834493 47.42687812 41.05165507 47.42687812 36 51 Z M19.6875 67.9375 C19.08421875 68.31003906 18.4809375 68.68257813 17.859375 69.06640625 C13.72516499 71.14219657 9.8189897 70.23825155 5.5625 69 C4.716875 68.67 3.87125 68.34 3 68 C3 71.3 3 74.6 3 78 C10.92 78 18.84 78 27 78 C27 74.37 27 70.74 27 67 C22.97267868 65.49792956 22.97267868 65.49792956 19.6875 67.9375 Z M57 66 C57 69.96 57 73.92 57 78 C64.92 78 72.84 78 81 78 C81 74.04 81 70.08 81 66 C79.824375 66.66 78.64875 67.32 77.4375 68 C73.38206346 69.99214427 70.57051612 70.64147595 66 70 C62.87854863 68.83946039 59.99641047 67.47515592 57 66 Z " fill="#000000" transform="translate(6,6)"/>
<path d="M0 0 C3.55247432 0.87379409 4.94828114 2.4927342 6.9375 5.4765625 C7.63597125 8.3162489 7.63597125 10.6368761 6.9375 13.4765625 C4.94828114 16.4603908 3.55247432 18.07933091 0 18.953125 C-3.92313492 19.23547183 -5.73362371 18.69581336 -9.0625 16.4765625 C-11.28175086 13.14768621 -11.82140933 11.33719742 -11.5390625 7.4140625 C-10.07519871 1.46261629 -5.59135555 -0.40240816 0 0 Z M-4.0625 7.4765625 C-4.0625 8.7965625 -4.0625 10.1165625 -4.0625 11.4765625 C-2.7425 11.4765625 -1.4225 11.4765625 -0.0625 11.4765625 C-0.0625 10.1565625 -0.0625 8.8365625 -0.0625 7.4765625 C-1.3825 7.4765625 -2.7025 7.4765625 -4.0625 7.4765625 Z " fill="#000000" transform="translate(74.0625,2.5234375)"/>
<path d="M0 0 C1.65 0.33 3.3 0.66 5 1 C4.67 2.65 4.34 4.3 4 6 C2.35 5.67 0.7 5.34 -1 5 C-0.67 3.35 -0.34 1.7 0 0 Z " fill="#000000" transform="translate(46,60)"/>
</svg>
