<?xml version="1.0" encoding="UTF-8"?>
<!DOCTYPE svg PUBLIC "-//W3C//DTD SVG 1.1//EN" "http://www.w3.org/Graphics/SVG/1.1/DTD/svg11.dtd">
<svg xmlns="http://www.w3.org/2000/svg" version="1.1" width="96px" height="96px" style="shape-rendering:geometricPrecision; text-rendering:geometricPrecision; image-rendering:optimizeQuality; fill-rule:evenodd; clip-rule:evenodd" xmlns:xlink="http://www.w3.org/1999/xlink">
<g><path style="opacity:0.951" fill="#000000" d="M 22.5,5.5 C 29.6436,3.99238 35.4769,5.99238 40,11.5C 41.2597,18.3938 41.9263,25.3938 42,32.5C 46.7423,28.5463 51.5756,24.713 56.5,21C 58.5,20.3333 60.5,20.3333 62.5,21C 67.0212,25.0223 71.6879,28.8556 76.5,32.5C 77.4841,29.5719 77.8174,26.5719 77.5,23.5C 79.5,23.5 81.5,23.5 83.5,23.5C 83.3341,28.5111 83.5007,33.5111 84,38.5C 86.978,40.311 89.478,42.6443 91.5,45.5C 90.1667,47.1667 88.8333,48.8333 87.5,50.5C 86.1861,49.6872 85.0195,48.6872 84,47.5C 83.5012,51.4862 83.3345,55.4862 83.5,59.5C 86.4475,59.2229 89.2809,59.5562 92,60.5C 92.8176,70.0777 92.6509,79.5777 91.5,89C 63.8353,89.5 36.1687,89.6666 8.5,89.5C 8.5,87.5 8.5,85.5 8.5,83.5C 15.8409,83.6663 23.1742,83.4997 30.5,83C 32.1667,81.3333 33.8333,79.6667 35.5,78C 26.5062,77.5002 17.5062,77.3336 8.5,77.5C 8.5,75.5 8.5,73.5 8.5,71.5C 19.505,71.6665 30.505,71.4998 41.5,71C 43.2134,69.6218 44.5467,67.9552 45.5,66C 33.1712,65.5001 20.8378,65.3335 8.5,65.5C 8.5,63.5 8.5,61.5 8.5,59.5C 10.5,59.5 12.5,59.5 14.5,59.5C 14.3334,44.163 14.5001,28.8297 15,13.5C 17.0282,10.3078 19.5282,7.64111 22.5,5.5 Z M 27.5,11.5 C 31.4391,12.2719 33.9391,14.6052 35,18.5C 35.4999,32.1626 35.6666,45.8293 35.5,59.5C 30.5,59.5 25.5,59.5 20.5,59.5C 20.3334,45.8293 20.5001,32.1626 21,18.5C 22.0183,14.9853 24.1849,12.652 27.5,11.5 Z M 58.5,28.5 C 65.2347,32.2984 71.4014,36.9651 77,42.5C 77.4994,48.1569 77.6661,53.8236 77.5,59.5C 74.5,59.5 71.5,59.5 68.5,59.5C 68.6658,54.8215 68.4992,50.1548 68,45.5C 62.3333,44.1667 56.6667,44.1667 51,45.5C 50.5008,50.1548 50.3342,54.8215 50.5,59.5C 47.5,59.5 44.5,59.5 41.5,59.5C 41.1703,53.1318 41.5037,46.7985 42.5,40.5C 47.9014,36.4793 53.2347,32.4793 58.5,28.5 Z M 56.5,50.5 C 58.5,50.5 60.5,50.5 62.5,50.5C 62.5,53.5 62.5,56.5 62.5,59.5C 60.5,59.5 58.5,59.5 56.5,59.5C 56.5,56.5 56.5,53.5 56.5,50.5 Z M 55.5,65.5 C 58.1873,65.3359 60.854,65.5026 63.5,66C 58.5,71.6667 53.5,77.3333 48.5,83C 45.8333,83.6667 43.1667,83.6667 40.5,83C 45.6262,77.2285 50.6262,71.3952 55.5,65.5 Z M 73.5,65.5 C 76.1873,65.3359 78.854,65.5026 81.5,66C 76.5,71.6667 71.5,77.3333 66.5,83C 63.8333,83.6667 61.1667,83.6667 58.5,83C 63.6262,77.2285 68.6262,71.3952 73.5,65.5 Z M 85.5,71.5 C 86.4834,75.2984 86.8168,79.2984 86.5,83.5C 83.1501,83.665 79.8168,83.4983 76.5,83C 79.7146,79.2912 82.7146,75.4579 85.5,71.5 Z"/></g>
</svg>
