<?xml version="1.0" standalone="no"?>
<!DOCTYPE svg PUBLIC "-//W3C//DTD SVG 20010904//EN"
 "http://www.w3.org/TR/2001/REC-SVG-20010904/DTD/svg10.dtd">
<svg version="1.0" xmlns="http://www.w3.org/2000/svg"
 width="96.000000pt" height="96.000000pt" viewBox="0 0 96.000000 96.000000"
 preserveAspectRatio="xMidYMid meet">

<g transform="translate(0.000000,96.000000) scale(0.100000,-0.100000)"
fill="#000000" stroke="none">
<path d="M385 912 c-136 -47 -215 -168 -202 -309 16 -165 155 -283 320 -270
168 14 287 153 274 320 -16 196 -208 323 -392 259z m166 -54 c87 -25 169 -134
169 -224 0 -88 -55 -180 -132 -220 -42 -22 -127 -29 -174 -14 -69 22 -112 58
-144 123 -47 94 -38 181 29 258 63 75 161 105 252 77z"/>
<path d="M462 621 c-23 -14 -10 -46 18 -46 20 0 25 5 25 25 0 26 -20 36 -43
21z"/>
<path d="M372 561 c-23 -14 -10 -46 18 -46 20 0 25 5 25 25 0 26 -20 36 -43
21z"/>
<path d="M552 561 c-23 -14 -10 -46 18 -46 20 0 25 5 25 25 0 26 -20 36 -43
21z"/>
<path d="M462 501 c-23 -14 -10 -46 18 -46 20 0 25 5 25 25 0 26 -20 36 -43
21z"/>
<path d="M330 240 c0 -27 3 -30 31 -30 20 0 40 -10 60 -29 26 -26 29 -36 29
-90 l0 -61 45 0 45 0 0 61 c0 54 3 64 29 90 20 19 40 29 60 29 28 0 31 3 31
30 l0 30 -165 0 -165 0 0 -30z"/>
</g>
</svg>
