<?xml version="1.0" encoding="UTF-8"?>
<!DOCTYPE svg PUBLIC "-//W3C//DTD SVG 1.1//EN" "http://www.w3.org/Graphics/SVG/1.1/DTD/svg11.dtd">
<svg xmlns="http://www.w3.org/2000/svg" version="1.1" width="96px" height="96px" style="shape-rendering:geometricPrecision; text-rendering:geometricPrecision; image-rendering:optimizeQuality; fill-rule:evenodd; clip-rule:evenodd" xmlns:xlink="http://www.w3.org/1999/xlink">
<g><path style="opacity:0.963" fill="#000000" d="M 16.5,2.5 C 22.8421,2.33379 29.1754,2.50046 35.5,3C 46.5642,7.26499 52.0642,15.4317 52,27.5C 53.1667,28.6667 54.3333,29.8333 55.5,31C 62.087,32.212 68.7536,32.8787 75.5,33C 83.6667,35.8333 89.1667,41.3333 92,49.5C 92.6667,60.5 92.6667,71.5 92,82.5C 90.3005,83.4061 88.4672,83.7394 86.5,83.5C 86.5,86.5 86.5,89.5 86.5,92.5C 84.5,92.5 82.5,92.5 80.5,92.5C 80.5,89.5 80.5,86.5 80.5,83.5C 58.5,83.5 36.5,83.5 14.5,83.5C 14.5,86.5 14.5,89.5 14.5,92.5C 12.5,92.5 10.5,92.5 8.5,92.5C 8.5,89.5 8.5,86.5 8.5,83.5C 6.5328,83.7394 4.69946,83.4061 3,82.5C 2.33333,60.8333 2.33333,39.1667 3,17.5C 5.26322,10.4074 9.76322,5.40736 16.5,2.5 Z M 22.5,8.5 C 28.1887,8.08915 33.5221,9.25581 38.5,12C 40.6166,13.7309 42.1166,15.8976 43,18.5C 42.6998,26.1728 45.5331,32.3395 51.5,37C 59.1383,38.0881 66.8049,39.0881 74.5,40C 80.5923,42.5861 84.259,47.0861 85.5,53.5C 59.8333,53.5 34.1667,53.5 8.5,53.5C 8.08779,41.7707 8.58779,30.1041 10,18.5C 12.4321,12.882 16.5988,9.54871 22.5,8.5 Z M 8.5,59.5 C 10.5,59.5 12.5,59.5 14.5,59.5C 14.5,63.5 14.5,67.5 14.5,71.5C 16.5,71.5 18.5,71.5 20.5,71.5C 20.5,67.5 20.5,63.5 20.5,59.5C 22.5,59.5 24.5,59.5 26.5,59.5C 26.5,63.5 26.5,67.5 26.5,71.5C 28.5,71.5 30.5,71.5 32.5,71.5C 32.5,67.5 32.5,63.5 32.5,59.5C 34.5,59.5 36.5,59.5 38.5,59.5C 38.5,63.5 38.5,67.5 38.5,71.5C 40.5,71.5 42.5,71.5 44.5,71.5C 44.5,67.5 44.5,63.5 44.5,59.5C 46.5,59.5 48.5,59.5 50.5,59.5C 50.5,63.5 50.5,67.5 50.5,71.5C 52.5,71.5 54.5,71.5 56.5,71.5C 56.5,67.5 56.5,63.5 56.5,59.5C 58.5,59.5 60.5,59.5 62.5,59.5C 62.5,63.5 62.5,67.5 62.5,71.5C 64.5,71.5 66.5,71.5 68.5,71.5C 68.5,67.5 68.5,63.5 68.5,59.5C 70.5,59.5 72.5,59.5 74.5,59.5C 74.5,63.5 74.5,67.5 74.5,71.5C 76.5,71.5 78.5,71.5 80.5,71.5C 80.5,67.5 80.5,63.5 80.5,59.5C 82.5,59.5 84.5,59.5 86.5,59.5C 86.5,65.5 86.5,71.5 86.5,77.5C 60.5,77.5 34.5,77.5 8.5,77.5C 8.5,71.5 8.5,65.5 8.5,59.5 Z"/></g>
</svg>
