<?xml version="1.0" encoding="UTF-8"?>
<!DOCTYPE svg PUBLIC "-//W3C//DTD SVG 1.1//EN" "http://www.w3.org/Graphics/SVG/1.1/DTD/svg11.dtd">
<svg xmlns="http://www.w3.org/2000/svg" version="1.1" width="96px" height="96px" style="shape-rendering:geometricPrecision; text-rendering:geometricPrecision; image-rendering:optimizeQuality; fill-rule:evenodd; clip-rule:evenodd" xmlns:xlink="http://www.w3.org/1999/xlink">
<g><path style="opacity:0.988" fill="#212121" d="M 95.5,26.5 C 95.5,27.8333 95.5,29.1667 95.5,30.5C 93.5847,33.961 90.5847,35.6277 86.5,35.5C 86.5,49.5 86.5,63.5 86.5,77.5C 88.5,77.5 90.5,77.5 92.5,77.5C 92.5,79.5 92.5,81.5 92.5,83.5C 90.5,83.5 88.5,83.5 86.5,83.5C 86.5,85.5 86.5,87.5 86.5,89.5C 84.5,89.5 82.5,89.5 80.5,89.5C 80.5,87.5 80.5,85.5 80.5,83.5C 78.5,83.5 76.5,83.5 74.5,83.5C 74.5,85.5 74.5,87.5 74.5,89.5C 72.5,89.5 70.5,89.5 68.5,89.5C 68.5,87.5 68.5,85.5 68.5,83.5C 54.5,83.5 40.5,83.5 26.5,83.5C 26.5,85.5 26.5,87.5 26.5,89.5C 24.5,89.5 22.5,89.5 20.5,89.5C 20.5,87.5 20.5,85.5 20.5,83.5C 18.5,83.5 16.5,83.5 14.5,83.5C 14.5,85.5 14.5,87.5 14.5,89.5C 12.5,89.5 10.5,89.5 8.5,89.5C 8.5,87.5 8.5,85.5 8.5,83.5C 6.5,83.5 4.5,83.5 2.5,83.5C 2.5,81.5 2.5,79.5 2.5,77.5C 4.5,77.5 6.5,77.5 8.5,77.5C 8.5,63.5 8.5,49.5 8.5,35.5C 4.41529,35.6277 1.41529,33.961 -0.5,30.5C -0.5,29.1667 -0.5,27.8333 -0.5,26.5C 2.57164,26.1875 5.40498,26.8542 8,28.5C 11.8984,26.4669 15.7318,24.3003 19.5,22C 20.4732,16.5934 20.8066,11.0934 20.5,5.5C 22.5,5.5 24.5,5.5 26.5,5.5C 26.5,7.5 26.5,9.5 26.5,11.5C 40.5,11.5 54.5,11.5 68.5,11.5C 68.5,9.5 68.5,7.5 68.5,5.5C 70.5,5.5 72.5,5.5 74.5,5.5C 74.334,10.8437 74.5006,16.1771 75,21.5C 78.8521,24.0925 82.8521,26.4258 87,28.5C 89.595,26.8542 92.4284,26.1875 95.5,26.5 Z M 26.5,17.5 C 40.5,17.5 54.5,17.5 68.5,17.5C 67.2706,22.7419 68.9372,26.5752 73.5,29C 56.1667,29.6667 38.8333,29.6667 21.5,29C 26.0628,26.5752 27.7294,22.7419 26.5,17.5 Z M 14.5,35.5 C 36.5,35.5 58.5,35.5 80.5,35.5C 80.5,37.5 80.5,39.5 80.5,41.5C 58.5,41.5 36.5,41.5 14.5,41.5C 14.5,39.5 14.5,37.5 14.5,35.5 Z M 14.5,47.5 C 16.5,47.5 18.5,47.5 20.5,47.5C 20.5,57.5 20.5,67.5 20.5,77.5C 18.5,77.5 16.5,77.5 14.5,77.5C 14.5,67.5 14.5,57.5 14.5,47.5 Z M 26.5,47.5 C 40.5,47.5 54.5,47.5 68.5,47.5C 68.5,57.5 68.5,67.5 68.5,77.5C 65.5,77.5 62.5,77.5 59.5,77.5C 59.6664,69.8261 59.4997,62.1594 59,54.5C 51.3333,53.1667 43.6667,53.1667 36,54.5C 35.5003,62.1594 35.3336,69.8261 35.5,77.5C 32.5,77.5 29.5,77.5 26.5,77.5C 26.5,67.5 26.5,57.5 26.5,47.5 Z M 74.5,47.5 C 76.5,47.5 78.5,47.5 80.5,47.5C 80.5,57.5 80.5,67.5 80.5,77.5C 78.5,77.5 76.5,77.5 74.5,77.5C 74.5,67.5 74.5,57.5 74.5,47.5 Z M 41.5,59.5 C 45.5,59.5 49.5,59.5 53.5,59.5C 53.5,65.5 53.5,71.5 53.5,77.5C 49.5,77.5 45.5,77.5 41.5,77.5C 41.5,71.5 41.5,65.5 41.5,59.5 Z"/></g>
</svg>
