<?xml version="1.0" encoding="UTF-8"?>
<svg version="1.1" xmlns="http://www.w3.org/2000/svg" width="97" height="96">
<path d="M0 0 C0.79792969 0.00386719 1.59585937 0.00773438 2.41796875 0.01171875 C3.21589844 0.00785156 4.01382812 0.00398437 4.8359375 0 C10.79136108 0.01011108 10.79136108 0.01011108 11.91796875 1.13671875 C11.99023377 2.98959377 12.00178095 4.84505753 11.98046875 6.69921875 C11.97144531 7.71113281 11.96242188 8.72304687 11.953125 9.765625 C11.94152344 10.54808594 11.92992188 11.33054687 11.91796875 12.13671875 C12.57796875 12.13671875 13.23796875 12.13671875 13.91796875 12.13671875 C13.90636719 11.35425781 13.89476563 10.57179688 13.8828125 9.765625 C13.87378906 8.75371094 13.86476563 7.74179688 13.85546875 6.69921875 C13.84386719 5.68988281 13.83226563 4.68054688 13.8203125 3.640625 C13.91796875 1.13671875 13.91796875 1.13671875 14.91796875 0.13671875 C17.76131923 0.036849 20.57494038 -0.00206006 23.41796875 0.01171875 C24.61486328 0.00591797 24.61486328 0.00591797 25.8359375 0 C31.79136108 0.01011108 31.79136108 0.01011108 32.91796875 1.13671875 C32.99023377 2.98959377 33.00178095 4.84505753 32.98046875 6.69921875 C32.97144531 7.71113281 32.96242187 8.72304687 32.953125 9.765625 C32.94152344 10.54808594 32.92992187 11.33054687 32.91796875 12.13671875 C33.57796875 12.13671875 34.23796875 12.13671875 34.91796875 12.13671875 C34.90636719 11.35425781 34.89476562 10.57179688 34.8828125 9.765625 C34.87378906 8.75371094 34.86476562 7.74179688 34.85546875 6.69921875 C34.84386719 5.68988281 34.83226562 4.68054688 34.8203125 3.640625 C34.91796875 1.13671875 34.91796875 1.13671875 35.91796875 0.13671875 C38.76131923 0.036849 41.57494038 -0.00206006 44.41796875 0.01171875 C45.61486328 0.00591797 45.61486328 0.00591797 46.8359375 0 C52.79136108 0.01011108 52.79136108 0.01011108 53.91796875 1.13671875 C53.90498575 2.63390317 53.83548466 4.13066892 53.7421875 5.625 C53.01339971 17.0806852 53.01339971 17.0806852 57.78125 26.984375 C60.0587588 29.03792825 62.47045531 30.79251293 65.01171875 32.50390625 C65.62869629 32.93082764 66.24567383 33.35774902 66.88134766 33.79760742 C68.94212836 35.20304248 68.94212836 35.20304248 71.37255859 36.4074707 C74.51082796 38.41679271 76.0288121 39.88679027 77.91796875 43.13671875 C79.47042947 50.79707455 78.80413619 58.81356397 78.54296875 66.57421875 C78.50636981 68.74537826 78.47377652 70.91660923 78.4453125 73.08789062 C78.37877756 77.03531685 78.30205021 80.98152787 78.17431641 84.92749023 C78.14939117 85.71832504 78.12446594 86.50915985 78.0987854 87.32395935 C77.91796875 89.13671875 77.91796875 89.13671875 76.91796875 90.13671875 C74.33696119 90.23711486 71.78268978 90.27289144 69.20117188 90.26611328 C67.98904274 90.26874176 67.98904274 90.26874176 66.75242615 90.27142334 C64.06800215 90.27584251 61.38364347 90.27290364 58.69921875 90.26953125 C56.84216296 90.27020427 54.98510725 90.27117428 53.12805176 90.27243042 C49.23070438 90.27390748 45.33337988 90.27175257 41.43603516 90.26708984 C36.42862375 90.26139255 31.42126594 90.26467151 26.41385651 90.27066231 C22.57757154 90.2742677 18.74129938 90.27312944 14.90501404 90.27053452 C13.05814101 90.26986519 11.21126683 90.27069388 9.36439514 90.27301407 C6.78782043 90.27554024 4.21133374 90.27170052 1.63476562 90.26611328 C0.86382065 90.26813751 0.09287567 90.27016174 -0.70143127 90.27224731 C-5.9677687 90.2509813 -5.9677687 90.2509813 -7.08203125 89.13671875 C-7.18251648 86.40321127 -7.21819386 83.69493983 -7.21142578 80.9609375 C-7.2131781 80.10408356 -7.21493042 79.24722961 -7.21673584 78.3644104 C-7.22115542 75.51765955 -7.218216 72.67097028 -7.21484375 69.82421875 C-7.21551676 67.85506173 -7.21648676 65.88590478 -7.21774292 63.91674805 C-7.21922004 59.7840089 -7.21706489 55.65129133 -7.21240234 51.51855469 C-7.20670505 46.20847354 -7.20998398 40.89844294 -7.21597481 35.58836365 C-7.21958005 31.52046322 -7.21844201 27.45257486 -7.21584702 23.38467407 C-7.21517764 21.42615757 -7.21600652 19.46763999 -7.21832657 17.50912476 C-7.22085249 14.77688675 -7.21701336 12.04473178 -7.21142578 9.3125 C-7.21345001 8.49480133 -7.21547424 7.67710266 -7.21755981 6.83462524 C-7.19155561 0.00694174 -6.82537452 0.01158807 0 0 Z M-0.08203125 6.13671875 C-0.08203125 16.03671875 -0.08203125 25.93671875 -0.08203125 36.13671875 C3.87796875 36.13671875 7.83796875 36.13671875 11.91796875 36.13671875 C11.91796875 38.11671875 11.91796875 40.09671875 11.91796875 42.13671875 C7.95796875 42.13671875 3.99796875 42.13671875 -0.08203125 42.13671875 C-0.08203125 51.04671875 -0.08203125 59.95671875 -0.08203125 69.13671875 C2.88796875 69.13671875 5.85796875 69.13671875 8.91796875 69.13671875 C8.91796875 71.11671875 8.91796875 73.09671875 8.91796875 75.13671875 C5.94796875 75.13671875 2.97796875 75.13671875 -0.08203125 75.13671875 C-0.08203125 78.10671875 -0.08203125 81.07671875 -0.08203125 84.13671875 C7.50796875 84.13671875 15.09796875 84.13671875 22.91796875 84.13671875 C22.86253906 81.29304688 22.80710937 78.449375 22.75 75.51953125 C22.73377486 72.73581135 22.736486 69.95270003 22.7409668 67.16894531 C22.73403212 65.24852492 22.70770256 63.32806537 22.66088867 61.40820312 C22.2723021 44.60729162 22.2723021 44.60729162 26.23144531 39.76293945 C28.99834547 37.23428189 31.77299963 35.16725519 34.91796875 33.13671875 C36.08120116 32.18445823 37.23326577 31.21801333 38.36328125 30.2265625 C39.24757812 29.51628906 40.131875 28.80601563 41.04296875 28.07421875 C44.07097721 25.70808923 44.07097721 25.70808923 46.91796875 23.13671875 C46.99122043 20.27404308 47.0103508 17.43599975 46.98046875 14.57421875 C46.97595703 13.76791016 46.97144531 12.96160156 46.96679688 12.13085938 C46.95497393 10.13278119 46.93703789 8.13474092 46.91796875 6.13671875 C45.26796875 6.13671875 43.61796875 6.13671875 41.91796875 6.13671875 C41.58796875 9.76671875 41.25796875 13.39671875 40.91796875 17.13671875 C36.29796875 17.13671875 31.67796875 17.13671875 26.91796875 17.13671875 C26.58796875 13.50671875 26.25796875 9.87671875 25.91796875 6.13671875 C24.26796875 6.13671875 22.61796875 6.13671875 20.91796875 6.13671875 C20.58796875 9.76671875 20.25796875 13.39671875 19.91796875 17.13671875 C15.29796875 17.13671875 10.67796875 17.13671875 5.91796875 17.13671875 C5.58796875 13.50671875 5.25796875 9.87671875 4.91796875 6.13671875 C3.26796875 6.13671875 1.61796875 6.13671875 -0.08203125 6.13671875 Z M44.91796875 33.13671875 C44.01046875 33.87921875 43.10296875 34.62171875 42.16796875 35.38671875 C41.67482178 35.82306641 41.1816748 36.25941406 40.67358398 36.70898438 C38.91796875 38.13671875 38.91796875 38.13671875 36.55493164 39.54882812 C33.14729852 41.86245818 30.43683168 43.93163658 29.45379639 48.109375 C28.78656633 53.94408551 29.09936052 59.78435044 29.35546875 65.63671875 C29.40066318 67.43088919 29.4417191 69.22516893 29.47851562 71.01953125 C29.57720183 75.39464552 29.73219272 79.76447191 29.91796875 84.13671875 C32.55796875 84.13671875 35.19796875 84.13671875 37.91796875 84.13671875 C37.95535156 83.12351563 37.99273437 82.1103125 38.03125 81.06640625 C38.09695263 79.71480936 38.16339846 78.36324846 38.23046875 77.01171875 C38.25302734 76.3465625 38.27558594 75.68140625 38.29882812 74.99609375 C38.54775372 70.37965547 39.39773426 67.02376233 41.91796875 63.13671875 C45.85763543 60.34108616 50.27316315 60.59758953 54.91796875 61.13671875 C57.7406806 62.33787273 59.28226113 63.2070818 61.0078125 65.73046875 C62.32452304 69.21155757 62.38698054 72.70799677 62.54296875 76.38671875 C62.60097656 77.50433594 62.60097656 77.50433594 62.66015625 78.64453125 C62.75401983 80.47487115 62.83706593 82.30576018 62.91796875 84.13671875 C65.55796875 84.13671875 68.19796875 84.13671875 70.91796875 84.13671875 C71.16684252 78.89007678 71.34736245 73.64692721 71.46728516 68.39575195 C71.51730573 66.61356726 71.58535269 64.83178745 71.67236328 63.05102539 C72.44312983 52.56097553 72.44312983 52.56097553 68.84301758 43.06616211 C66.31853297 40.78241868 63.79673697 38.94474573 60.91796875 37.13671875 C59.86046417 36.27801437 58.81389194 35.40526098 57.7890625 34.5078125 C56.98597656 33.86972656 56.18289062 33.23164062 55.35546875 32.57421875 C54.11603516 31.58228516 54.11603516 31.58228516 52.8515625 30.5703125 C49.2594989 27.90710575 48.11405547 30.50882522 44.91796875 33.13671875 Z M45.91796875 68.13671875 C44.41640001 71.13985623 44.82515671 73.92739397 44.85546875 77.26171875 C44.86449219 78.54304688 44.87351563 79.824375 44.8828125 81.14453125 C44.89441406 82.13195312 44.90601563 83.119375 44.91796875 84.13671875 C48.54796875 84.13671875 52.17796875 84.13671875 55.91796875 84.13671875 C55.97195862 81.86614498 56.01075617 79.59520587 56.04296875 77.32421875 C56.06617188 76.05964844 56.089375 74.79507813 56.11328125 73.4921875 C56.19378793 70.00291635 56.19378793 70.00291635 53.91796875 67.13671875 C50.63158764 65.71262027 48.86880149 66.20341454 45.91796875 68.13671875 Z " fill="#000000" transform="translate(14.08203125,2.86328125)"/>
<path d="M0 0 C5.28 0 10.56 0 16 0 C16 1.98 16 3.96 16 6 C10.72 6 5.44 6 0 6 C0 4.02 0 2.04 0 0 Z " fill="#000000" transform="translate(22,27)"/>
<path d="M0 0 C4.29 0 8.58 0 13 0 C13 1.98 13 3.96 13 6 C8.71 6 4.42 6 0 6 C0 4.02 0 2.04 0 0 Z " fill="#000000" transform="translate(22,57)"/>
<path d="M0 0 C1.2065625 0.0309375 1.2065625 0.0309375 2.4375 0.0625 C2.81968767 1.71864657 3.15145102 3.38707024 3.4375 5.0625 C2.4375 6.0625 2.4375 6.0625 -0.125 6.125 C-1.3315625 6.0940625 -1.3315625 6.0940625 -2.5625 6.0625 C-2.94468767 4.40635343 -3.27645102 2.73792976 -3.5625 1.0625 C-2.5625 0.0625 -2.5625 0.0625 0 0 Z " fill="#000000" transform="translate(64.5625,44.9375)"/>
</svg>
