<?xml version="1.0" encoding="UTF-8"?>
<svg version="1.1" xmlns="http://www.w3.org/2000/svg" width="97" height="96">
<path d="M0 0 C3.39298215 0.18572113 6.70805782 1.18929782 10 2 C10.62326172 2.15307617 11.24652344 2.30615234 11.88867188 2.46386719 C24.3291027 5.55273513 24.3291027 5.55273513 28 8 C27.85769192 9.41702513 27.71099254 10.8336096 27.5625 12.25 C27.44068359 13.43335938 27.44068359 13.43335938 27.31640625 14.640625 C27 17 27 17 26 21 C28.64 21.99 31.28 22.98 34 24 C33.01 27.465 33.01 27.465 32 31 C31.34 31 30.68 31 30 31 C28.7913437 33.79101437 28.7913437 33.79101437 28 37 C28.63474075 38.34882408 29.29848848 39.6846659 30 41 C29.125 43.25 29.125 43.25 28 45 C27.01 45 26.02 45 25 45 C24.67 47.31 24.34 49.62 24 52 C24.66 52.33 25.32 52.66 26 53 C25.67 54.98 25.34 56.96 25 59 C23.515 59.495 23.515 59.495 22 60 C20.77479736 63.00847418 20.77479736 63.00847418 20 66 C20.99 66.99 20.99 66.99 22 68 C21.625 71.125 21.625 71.125 21 74 C19.68 74 18.36 74 17 74 C17 75.32 17 76.64 17 78 C29.87 78.495 29.87 78.495 43 79 C43 80.98 43 82.96 43 85 C14.95 85 -13.1 85 -42 85 C-42 83.02 -42 81.04 -42 79 C-37.38 79 -32.76 79 -28 79 C-27.71125 77.30875 -27.4225 75.6175 -27.125 73.875 C-26.38370056 69.77137809 -25.48015397 65.91183549 -24 62 C-25.485 61.505 -25.485 61.505 -27 61 C-26.34 59.02 -25.68 57.04 -25 55 C-23.515 55.495 -23.515 55.495 -22 56 C-21.34 53.36 -20.68 50.72 -20 48 C-21.485 47.505 -21.485 47.505 -23 47 C-22.34 45.02 -21.68 43.04 -21 41 C-20.01 41 -19.02 41 -18 41 C-17.67 38.69 -17.34 36.38 -17 34 C-17.66 33.67 -18.32 33.34 -19 33 C-18.01 29.535 -18.01 29.535 -17 26 C-16.01 26.33 -15.02 26.66 -14 27 C-13.67 24.69 -13.34 22.38 -13 20 C-13.66 19.67 -14.32 19.34 -15 19 C-14.67 16.69 -14.34 14.38 -14 12 C-11.03 12.33 -8.06 12.66 -5 13 C-4.80664062 12.22914062 -4.61328125 11.45828125 -4.4140625 10.6640625 C-4.15367188 9.66117188 -3.89328125 8.65828125 -3.625 7.625 C-3.36976562 6.62726562 -3.11453125 5.62953125 -2.8515625 4.6015625 C-2 2 -2 2 0 0 Z M4 8 C3.34 10.64 2.68 13.28 2 16 C4.26949102 16.67155349 6.5403961 17.3373963 8.8125 18 C10.07707031 18.37125 11.34164062 18.7425 12.64453125 19.125 C15.90587415 20.12616509 15.90587415 20.12616509 19 20 C19.66 17.36 20.32 14.72 21 12 C12.585 10.02 12.585 10.02 4 8 Z M-6 21 C-6.66 23.64 -7.32 26.28 -8 29 C-5.525 29.495 -5.525 29.495 -3 30 C-1.74335022 27.09399739 -1 25.20395416 -1 22 C-2.65 21.67 -4.3 21.34 -6 21 Z M6 24 C5.34 26.64 4.68 29.28 4 32 C6.475 32.495 6.475 32.495 9 33 C9.66 30.36 10.32 27.72 11 25 C9.35 24.67 7.7 24.34 6 24 Z M18 27 C16.23537317 30.08809695 16 31.23312136 16 35 C18.475 35.495 18.475 35.495 21 36 C21.33 33.36 21.66 30.72 22 28 C20.68 27.67 19.36 27.34 18 27 Z M-10 36 C-10.33 38.31 -10.66 40.62 -11 43 C-8.525 43.495 -8.525 43.495 -6 44 C-5.67 41.36 -5.34 38.72 -5 36 C-6.65 36 -8.3 36 -10 36 Z M2 39 C1.34 41.31 0.68 43.62 0 46 C2.475 46.99 2.475 46.99 5 48 C5.66 45.36 6.32 42.72 7 40 C5.35 39.67 3.7 39.34 2 39 Z M13 42 C12.67 44.64 12.34 47.28 12 50 C14.475 50.495 14.475 50.495 17 51 C17.33 48.36 17.66 45.72 18 43 C16.35 42.67 14.7 42.34 13 42 Z M-13 50 C-14.76462683 53.08809695 -15 54.23312136 -15 58 C-12.525 58.495 -12.525 58.495 -10 59 C-9.67 56.36 -9.34 53.72 -9 51 C-10.32 50.67 -11.64 50.34 -13 50 Z M-2 53 C-2.66 55.64 -3.32 58.28 -4 61 C-1.525 61.495 -1.525 61.495 1 62 C2.25664978 59.09399739 3 57.20395416 3 54 C1.35 53.67 -0.3 53.34 -2 53 Z M10 56 C8.74335022 58.90600261 8 60.79604584 8 64 C10.475 64.495 10.475 64.495 13 65 C13.66 62.36 14.32 59.72 15 57 C13.35 56.67 11.7 56.34 10 56 Z M-18 65 C-19.485 71.435 -19.485 71.435 -21 78 C-19.02 78 -17.04 78 -15 78 C-14.67 75.69 -14.34 73.38 -14 71 C-11.69 71.33 -9.38 71.66 -7 72 C-7.66 74.31 -8.32 76.62 -9 79 C-7.02 79 -5.04 79 -3 79 C-2.67 77.68 -2.34 76.36 -2 75 C-0.02 75 1.96 75 4 75 C4 76.32 4 77.64 4 79 C5.65 79 7.3 79 9 79 C9.66 76.69 10.32 74.38 11 72 C4.68515151 70.02221756 -1.63604989 68.06455058 -8 66.25 C-8.845625 66.00765625 -9.69125 65.7653125 -10.5625 65.515625 C-13.40005135 64.82753451 -13.40005135 64.82753451 -18 65 Z " fill="#000000" transform="translate(49,5)"/>
</svg>
