<?xml version="1.0" encoding="UTF-8"?>
<svg version="1.1" xmlns="http://www.w3.org/2000/svg" width="96" height="96">
<path d="M0 0 C1.98 0 3.96 0 6 0 C6.30292969 0.68707031 6.60585938 1.37414062 6.91796875 2.08203125 C9.94658808 8.95228277 9.94658808 8.95228277 16 13 C17.3921875 13.5878125 17.3921875 13.5878125 18.8125 14.1875 C19.534375 14.455625 20.25625 14.72375 21 15 C21 16.98 21 18.96 21 21 C15.62007164 20.66009167 11.46726453 20.31442207 7 17 C8.10238047 22.91276798 9.07070922 26.16610717 14 30 C16.30400993 31.18546569 18.56319886 32.09217212 21 33 C21 34.98 21 36.96 21 39 C19.60307061 38.91174084 18.20739548 38.80355166 16.8125 38.6875 C15.64654297 38.60048828 15.64654297 38.60048828 14.45703125 38.51171875 C12 38 12 38 7 35 C6.67 40.28 6.34 45.56 6 51 C11.39195433 53.1667412 11.39195433 53.1667412 17 54 C17.7425 53.525625 18.485 53.05125 19.25 52.5625 C23.37140729 50.22079131 27.35909911 50.39299475 32 51 C33.68991979 51.9601817 35.36209288 52.95355934 37 54 C40.90385466 53.76576872 42.71999971 53.18666686 46 51 C51.97223158 50.22057317 55.92471032 50.75745381 61 54 C64.03867345 53.76167267 66.27790019 53.3610499 69 52 C69.08719631 56.56237931 69.14045922 61.12454386 69.1875 65.6875 C69.21263672 66.98107422 69.23777344 68.27464844 69.26367188 69.60742188 C69.27333984 70.85458984 69.28300781 72.10175781 69.29296875 73.38671875 C69.3086792 74.53358154 69.32438965 75.68044434 69.34057617 76.86206055 C68.81393688 81.71431492 66.76196412 84.06970163 63.72680664 87.77539062 C58.61128128 91.77595991 51.52936697 90.67138772 45.37109375 90.59375 C43.93433228 90.59203716 42.49756768 90.59210634 41.06080627 90.59387207 C38.05723969 90.59222274 35.05442303 90.57359607 32.05102539 90.54199219 C28.20862154 90.502279 24.36719694 90.4979533 20.52462673 90.50545502 C17.56052236 90.50852973 14.59663657 90.49638715 11.63258553 90.47932434 C10.21606887 90.47231344 8.79952745 90.46916748 7.3829937 90.47001648 C5.40166258 90.46821144 3.42038823 90.44451936 1.43920898 90.41992188 C0.31369125 90.41150269 -0.81182648 90.4030835 -1.97145081 90.39440918 C-6.87565404 89.75573282 -10.9620004 87.05974196 -14.04052734 83.16308594 C-16.36243253 77.92846 -15.49127814 71.74065751 -15.3125 66.125 C-15.28739222 64.75524892 -15.26458339 63.38545365 -15.24414062 62.015625 C-15.1853436 58.67595378 -15.10319834 55.33854569 -15 52 C-14.40058594 52.33515625 -13.80117187 52.6703125 -13.18359375 53.015625 C-10.11837237 54.39744215 -8.22421791 53.78960439 -5 53 C-3.35 52.34 -1.7 51.68 0 51 C-0.33 45.72 -0.66 40.44 -1 35 C-2.010625 35.66 -3.02125 36.32 -4.0625 37 C-7.78062891 39.15499716 -10.68915491 39.35190572 -15 39 C-15 37.02 -15 35.04 -15 33 C-14.31292969 32.69707031 -13.62585938 32.39414062 -12.91796875 32.08203125 C-5.99464943 29.07968264 -5.99464943 29.07968264 -2 23 C-1.28598768 19.80604974 -1.28598768 19.80604974 -1 17 C-2.010625 17.66 -3.02125 18.32 -4.0625 19 C-7.78062891 21.15499716 -10.68915491 21.35190572 -15 21 C-15 19.02 -15 17.04 -15 15 C-14.31292969 14.69707031 -13.62585938 14.39414062 -12.91796875 14.08203125 C-6.04771723 11.05341192 -6.04771723 11.05341192 -2 5 C-1.608125 4.071875 -1.21625 3.14375 -0.8125 2.1875 C-0.544375 1.465625 -0.27625 0.74375 0 0 Z M-3.24609375 60.04296875 C-5.13158129 61.07179825 -6.87800867 61.66048139 -9 62 C-9 64.64 -9 67.28 -9 70 C-5.45481116 68.60240095 -5.45481116 68.60240095 -2 67 C4.02939489 66.44508224 7.85192704 66.71095338 13 70 C16.90385466 69.76576872 18.71999971 69.18666686 22 67 C27.97223158 66.22057317 31.92471032 66.75745381 37 70 C40.90385466 69.76576872 42.71999971 69.18666686 46 67 C51.72146593 66.25330021 56.27515563 66.45636673 61 70 C61.66 70 62.32 70 63 70 C63 67.36 63 64.72 63 62 C61.58521865 61.35004703 60.16808513 60.70521278 58.75 60.0625 C57.96109375 59.70285156 57.1721875 59.34320313 56.359375 58.97265625 C53.25818083 57.6913093 53.25818083 57.6913093 50 57 C48.27695116 58.00782102 46.55519627 59.01828972 44.8515625 60.05859375 C41.73570443 61.64281695 39.41795664 61.47971321 36 61 C34.60451017 60.33293985 33.22935283 59.6220539 31.875 58.875 C28.7753307 57.1048731 28.7753307 57.1048731 25.25 57.625 C24.5075 58.07875 23.765 58.5325 23 59 C19.22196432 61.26682141 16.40092405 61.44009241 12 61 C9.80422119 60.08674661 7.76828246 59.04570795 5.69921875 57.875 C2.039511 55.99046084 0.02448234 58.11066597 -3.24609375 60.04296875 Z M-3.125 74.5 C-4.03507812 74.9640625 -4.94515625 75.428125 -5.8828125 75.90625 C-6.58148438 76.2671875 -7.28015625 76.628125 -8 77 C-6.53164359 80.87112144 -4.65895764 82.16701381 -1 84 C1.7246016 84.44834119 1.7246016 84.44834119 4.62890625 84.38818359 C5.73355225 84.39764008 6.83819824 84.40709656 7.97631836 84.4168396 C9.1597583 84.41076691 10.34319824 84.40469421 11.5625 84.3984375 C12.78654541 84.40130768 14.01059082 84.40417786 15.27172852 84.40713501 C17.85726383 84.40917466 20.4428146 84.40365179 23.02832031 84.39111328 C26.98537712 84.37505933 30.94141246 84.3909665 34.8984375 84.41015625 C37.41146059 84.4081738 39.92448304 84.4043301 42.4375 84.3984375 C43.62093994 84.40451019 44.80437988 84.41058289 46.02368164 84.4168396 C47.12832764 84.40738312 48.23297363 84.39792664 49.37109375 84.38818359 C50.8240686 84.38460342 50.8240686 84.38460342 52.30639648 84.38095093 C55.50831259 83.92811037 57.39308366 82.88480622 60 81 C61.32793606 78.93299345 61.32793606 78.93299345 62 77 C60.44997249 76.10309088 58.88430082 75.2331803 57.3125 74.375 C56.44238281 73.88773437 55.57226562 73.40046875 54.67578125 72.8984375 C52.00573676 71.72003516 52.00573676 71.72003516 49.28515625 72.78125 C47.88076176 73.53026039 46.48982612 74.30610433 45.125 75.125 C41.88629092 76.45858609 39.48163844 76.34816384 36 76 C34.60097604 75.34038414 33.22539575 74.62918329 31.875 73.875 C28.7753307 72.1048731 28.7753307 72.1048731 25.25 72.625 C24.5075 73.07875 23.765 73.5325 23 74 C19.22196432 76.26682141 16.40092405 76.44009241 12 76 C9.80422119 75.08674661 7.76828246 74.04570795 5.69921875 72.875 C2.23691511 71.09211261 0.11313482 72.83941804 -3.125 74.5 Z " fill="#000000" transform="translate(21,3)"/>
<path d="M0 0 C3.12578143 1.6720747 5.39281175 3.7856235 7 7 C7.51512617 11.09157355 7.94367269 15.23589546 5.953125 18.95703125 C3.55501226 21.85592636 1.60351712 23.79811835 -2.171875 24.2734375 C-9.98876369 24.58137554 -9.98876369 24.58137554 -13.5625 21.625 C-17.3057723 17.59378368 -17.39037018 14.90519941 -17.359375 9.55078125 C-16.78039966 5.44131496 -15.00085071 3.78650423 -12 1 C-8.27533151 -0.86233425 -4.05504687 -0.57130829 0 0 Z M-6 6 C-7.65 7.65 -9.3 9.3 -11 11 C-10.36078035 13.47627099 -10.36078035 13.47627099 -9 16 C-6.47627099 17.36078035 -6.47627099 17.36078035 -4 18 C-2.35 16.35 -0.7 14.7 1 13 C0.36078035 10.52372901 0.36078035 10.52372901 -1 8 C-3.52372901 6.63921965 -3.52372901 6.63921965 -6 6 Z " fill="#000000" transform="translate(77,18)"/>
</svg>
