<?xml version="1.0" encoding="UTF-8"?>
<!DOCTYPE svg PUBLIC "-//W3C//DTD SVG 1.1//EN" "http://www.w3.org/Graphics/SVG/1.1/DTD/svg11.dtd">
<svg xmlns="http://www.w3.org/2000/svg" version="1.1" width="96px" height="96px" style="shape-rendering:geometricPrecision; text-rendering:geometricPrecision; image-rendering:optimizeQuality; fill-rule:evenodd; clip-rule:evenodd" xmlns:xlink="http://www.w3.org/1999/xlink">
<g><path style="opacity:0.943" fill="#000000" d="M 71.5,5.5 C 73.604,5.2011 75.604,5.53443 77.5,6.5C 78.3666,13.7037 82.3666,17.3704 89.5,17.5C 89.5,19.8333 89.5,22.1667 89.5,24.5C 85.3062,24.8233 81.4729,23.8233 78,21.5C 78.1311,28.1363 81.6311,31.803 88.5,32.5C 89.4656,34.396 89.7989,36.396 89.5,38.5C 85.658,38.7609 81.9913,38.0942 78.5,36.5C 77.5067,41.1196 77.1734,45.7863 77.5,50.5C 81.5,50.5 85.5,50.5 89.5,50.5C 89.5,52.5 89.5,54.5 89.5,56.5C 61.5,56.5 33.5,56.5 5.5,56.5C 5.3335,45.8281 5.50016,35.1615 6,24.5C 12.5,18.6667 19,12.8333 25.5,7C 28.1667,6.33333 30.8333,6.33333 33.5,7C 40,12.8333 46.5,18.6667 53,24.5C 53.4998,33.1603 53.6664,41.8269 53.5,50.5C 59.5,50.5 65.5,50.5 71.5,50.5C 71.8266,45.7863 71.4933,41.1196 70.5,36.5C 67.0087,38.0942 63.342,38.7609 59.5,38.5C 59.2011,36.396 59.5344,34.396 60.5,32.5C 67.3786,31.7937 70.8786,28.1271 71,21.5C 67.5271,23.8233 63.6938,24.8233 59.5,24.5C 59.5,22.1667 59.5,19.8333 59.5,17.5C 67.1058,17.2277 71.1058,13.2277 71.5,5.5 Z M 28.5,13.5 C 35.0631,17.8848 41.2298,22.8848 47,28.5C 47.4997,35.8258 47.6663,43.1591 47.5,50.5C 44.5,50.5 41.5,50.5 38.5,50.5C 38.6661,44.8236 38.4994,39.1569 38,33.5C 32.3333,32.1667 26.6667,32.1667 21,33.5C 20.5006,39.1569 20.3339,44.8236 20.5,50.5C 17.5,50.5 14.5,50.5 11.5,50.5C 11.3337,43.1591 11.5003,35.8258 12,28.5C 17.6955,23.6342 23.1955,18.6342 28.5,13.5 Z M 26.5,38.5 C 28.5,38.5 30.5,38.5 32.5,38.5C 32.5,42.5 32.5,46.5 32.5,50.5C 30.5,50.5 28.5,50.5 26.5,50.5C 26.5,46.5 26.5,42.5 26.5,38.5 Z"/></g>
<g><path style="opacity:0.874" fill="#000000" d="M 14.5,62.5 C 17.8499,62.335 21.1832,62.5017 24.5,63C 27.3711,64.5641 30.2044,66.0641 33,67.5C 36.3694,66.473 39.5361,64.973 42.5,63C 45.8333,62.3333 49.1667,62.3333 52.5,63C 55.3711,64.5641 58.2044,66.0641 61,67.5C 64.3694,66.473 67.5361,64.973 70.5,63C 73.8333,62.3333 77.1667,62.3333 80.5,63C 83.4378,64.8078 86.4378,66.3078 89.5,67.5C 89.5,69.8333 89.5,72.1667 89.5,74.5C 84.3403,73.5852 79.6737,71.5852 75.5,68.5C 71.3381,71.5785 66.6714,73.5785 61.5,74.5C 56.3286,73.5785 51.6619,71.5785 47.5,68.5C 43.3381,71.5785 38.6714,73.5785 33.5,74.5C 28.3286,73.5785 23.6619,71.5785 19.5,68.5C 15.3263,71.5852 10.6597,73.5852 5.5,74.5C 5.19244,72.076 5.52577,69.7427 6.5,67.5C 9.23085,65.8084 11.8975,64.1417 14.5,62.5 Z"/></g>
<g><path style="opacity:0.874" fill="#000000" d="M 14.5,77.5 C 17.8499,77.335 21.1832,77.5017 24.5,78C 27.3711,79.5641 30.2044,81.0641 33,82.5C 36.3694,81.473 39.5361,79.973 42.5,78C 45.8333,77.3333 49.1667,77.3333 52.5,78C 55.3711,79.5641 58.2044,81.0641 61,82.5C 64.3694,81.473 67.5361,79.973 70.5,78C 73.8333,77.3333 77.1667,77.3333 80.5,78C 83.4378,79.8078 86.4378,81.3078 89.5,82.5C 89.5,84.8333 89.5,87.1667 89.5,89.5C 84.3403,88.5852 79.6737,86.5852 75.5,83.5C 71.3381,86.5785 66.6714,88.5785 61.5,89.5C 56.3286,88.5785 51.6619,86.5785 47.5,83.5C 43.3381,86.5785 38.6714,88.5785 33.5,89.5C 28.3286,88.5785 23.6619,86.5785 19.5,83.5C 15.3263,86.5852 10.6597,88.5852 5.5,89.5C 5.19244,87.076 5.52577,84.7427 6.5,82.5C 9.23085,80.8084 11.8975,79.1417 14.5,77.5 Z"/></g>
</svg>
