<?xml version="1.0" encoding="UTF-8"?>
<svg version="1.1" xmlns="http://www.w3.org/2000/svg" width="96" height="96">
<path d="M0 0 C1.98 0 3.96 0 6 0 C6 2.97 6 5.94 6 9 C25.8 9 45.6 9 66 9 C66 6.03 66 3.06 66 0 C67.98 0 69.96 0 72 0 C72 2.97 72 5.94 72 9 C73.17369141 8.98259766 73.17369141 8.98259766 74.37109375 8.96484375 C75.88896484 8.95130859 75.88896484 8.95130859 77.4375 8.9375 C78.44683594 8.92589844 79.45617187 8.91429687 80.49609375 8.90234375 C83 9 83 9 84 10 C84.09967586 12.26449379 84.12799831 14.53214211 84.12939453 16.79882812 C84.13202301 17.8646537 84.13202301 17.8646537 84.13470459 18.95201111 C84.13912277 21.31178191 84.13618525 23.67147837 84.1328125 26.03125 C84.13348555 27.66410334 84.13445558 29.29695658 84.13571167 30.92980957 C84.1371886 34.35637361 84.13503426 37.78291163 84.13037109 41.20947266 C84.1246738 45.61154501 84.12795284 50.01355641 84.13394356 54.41562653 C84.13754931 57.78868065 84.13641052 61.16172022 84.13381577 64.53477478 C84.13314654 66.15836087 84.13397478 67.78194827 84.13629532 69.40553284 C84.13882209 71.6707817 84.13498094 73.9359305 84.12939453 76.20117188 C84.12859894 77.49277222 84.12780334 78.78437256 84.12698364 80.1151123 C84 83 84 83 83 84 C80.08342371 84.10058243 77.19049054 84.13615211 74.2734375 84.12939453 C73.35806213 84.13114685 72.44268677 84.13289917 71.49957275 84.13470459 C68.45802951 84.13912461 65.41654389 84.13618459 62.375 84.1328125 C60.2713215 84.1334855 58.16764308 84.13445548 56.06396484 84.13571167 C51.64875551 84.13718885 47.23356637 84.13503345 42.81835938 84.13037109 C37.14507439 84.1246738 31.47183671 84.1279527 25.79855347 84.13394356 C21.45271444 84.13754864 17.10688672 84.13641083 12.76104736 84.13381577 C10.6685587 84.13314635 8.57606903 84.13397543 6.48358154 84.13629532 C3.56454734 84.13882098 0.64559088 84.13498248 -2.2734375 84.12939453 C-3.58414215 84.13243088 -3.58414215 84.13243088 -4.92132568 84.13552856 C-10.88573764 84.11426236 -10.88573764 84.11426236 -12 83 C-12.09967586 80.73550621 -12.12799831 78.46785789 -12.12939453 76.20117188 C-12.13114685 75.49062149 -12.13289917 74.78007111 -12.13470459 74.04798889 C-12.13912277 71.68821809 -12.13618525 69.32852163 -12.1328125 66.96875 C-12.13348555 65.33589666 -12.13445558 63.70304342 -12.13571167 62.07019043 C-12.1371886 58.64362639 -12.13503426 55.21708837 -12.13037109 51.79052734 C-12.1246738 47.38845499 -12.12795284 42.98644359 -12.13394356 38.58437347 C-12.13754931 35.21131935 -12.13641052 31.83827978 -12.13381577 28.46522522 C-12.13314654 26.84163913 -12.13397478 25.21805173 -12.13629532 23.59446716 C-12.13882209 21.3292183 -12.13498094 19.0640695 -12.12939453 16.79882812 C-12.12859894 15.50722778 -12.12780334 14.21562744 -12.12698364 12.8848877 C-12 10 -12 10 -11 9 C-9.14712498 8.92773498 -7.29166122 8.9161878 -5.4375 8.9375 C-4.42558594 8.94652344 -3.41367188 8.95554687 -2.37109375 8.96484375 C-1.19740234 8.98224609 -1.19740234 8.98224609 0 9 C0 6.03 0 3.06 0 0 Z M-6 15 C-6 20.94 -6 26.88 -6 33 C5.01698515 34.12644901 5.01698515 34.12644901 15.5390625 31.79296875 C17.3321058 29.97868086 18.62370198 28.14762987 20 26 C21.47066336 24.20134696 22.95012093 22.40985489 24.4375 20.625 C26.82624519 18.09358184 26.82624519 18.09358184 28 15 C16.78 15 5.56 15 -6 15 Z M44 15 C45.98 17.97 45.98 17.97 48 21 C48.70253906 22.05960938 49.40507813 23.11921875 50.12890625 24.2109375 C54.68050335 30.34715476 54.68050335 30.34715476 61.36816406 33.54199219 C67.0574148 34.05292528 72.22841093 33.49119907 78 33 C78 27.06 78 21.12 78 15 C66.78 15 55.56 15 44 15 Z M32.609375 20.37890625 C31.65067908 21.43507404 30.69779961 22.49654307 29.75 23.5625 C29.05197266 24.33303711 29.05197266 24.33303711 28.33984375 25.11914062 C27.40648012 26.15406861 26.48250976 27.19755881 25.56893921 28.25 C24 30 24 30 22.42276001 31.51501465 C18.44936653 35.53841854 17.31710967 38.41238793 17.32022095 44.04417419 C17.35118866 44.90487015 17.38215637 45.7655661 17.4140625 46.65234375 C17.42255219 47.55247696 17.43104187 48.45261017 17.43978882 49.38002014 C17.47317471 52.23377021 17.54842219 55.08461521 17.625 57.9375 C17.65511892 59.88081835 17.68249135 61.82418132 17.70703125 63.76757812 C17.772917 68.5128252 17.87633242 73.25592141 18 78 C19.98 78 21.96 78 24 78 C24.0093457 77.42032471 24.01869141 76.84064941 24.02832031 76.2434082 C24.0822407 73.59893054 24.16584129 70.95618107 24.25 68.3125 C24.26417969 67.40048828 24.27835938 66.48847656 24.29296875 65.54882812 C24.45008664 61.22808616 24.59472954 58.64991543 26.921875 54.91796875 C30.62259902 51.5024509 33.64240612 51.67182013 38.515625 51.70703125 C41.97198834 52.11462127 43.68663869 53.46276502 46 56 C47.17469444 58.34938888 47.20034889 59.95073205 47.31640625 62.5703125 C47.35830078 63.46621094 47.40019531 64.36210938 47.44335938 65.28515625 C47.48267578 66.22230469 47.52199219 67.15945312 47.5625 68.125 C47.60568359 69.06988281 47.64886719 70.01476562 47.69335938 70.98828125 C47.79959072 73.32537092 47.90163176 75.6625683 48 78 C49.98 78 51.96 78 54 78 C54.32516916 72.41786533 54.55890195 66.84140102 54.71411133 61.25195312 C54.77888001 59.35807176 54.86714542 57.4648246 54.98071289 55.57324219 C55.77130653 42.16815138 55.77130653 42.16815138 49.48674011 30.77700806 C47.25670475 28.53084902 44.94453704 26.42390381 42.52792358 24.38067627 C41 23 41 23 38.70629883 20.12646484 C38.14322021 19.42473145 37.5801416 18.72299805 37 18 C34.67418432 17.76487757 34.67418432 17.76487757 32.609375 20.37890625 Z M-6 39 C-6 47.58 -6 56.16 -6 65 C-5.01 64.67 -4.02 64.34 -3 64 C-1.18945873 63.90601771 0.62452781 63.87008013 2.4375 63.875 C3.85869141 63.87113281 3.85869141 63.87113281 5.30859375 63.8671875 C8 64 8 64 12 65 C12 56.42 12 47.84 12 39 C6.06 39 0.12 39 -6 39 Z M60 39 C60 47.58 60 56.16 60 65 C60.99 64.67 61.98 64.34 63 64 C64.81054127 63.90601771 66.62452781 63.87008013 68.4375 63.875 C69.85869141 63.87113281 69.85869141 63.87113281 71.30859375 63.8671875 C74 64 74 64 78 65 C78 56.42 78 47.84 78 39 C72.06 39 66.12 39 60 39 Z M32.39453125 58.98046875 C29.25275449 62.94228513 29.40410513 65.43374833 29.6875 70.3125 C29.71005859 71.05306641 29.73261719 71.79363281 29.75585938 72.55664062 C29.8144185 74.37197357 29.90409114 76.18625681 30 78 C33.96 78 37.92 78 42 78 C42.13559675 75.43571485 42.23433188 72.87864784 42.3125 70.3125 C42.35439453 69.59126953 42.39628906 68.87003906 42.43945312 68.12695312 C42.53624652 63.88740251 42.35052306 62.44201358 39.60546875 58.98046875 C36.12181482 56.33247393 35.87818518 56.33247393 32.39453125 58.98046875 Z M-3 72 C-5.12276819 74.74881327 -5.12276819 74.74881327 -6 78 C-0.06 78 5.88 78 12 78 C10.28555756 73.18782244 10.28555756 73.18782244 7 70 C2.67106404 68.40512886 0.56928197 69.18214581 -3 72 Z M63 72 C60.87723181 74.74881327 60.87723181 74.74881327 60 78 C65.94 78 71.88 78 78 78 C76.28555756 73.18782244 76.28555756 73.18782244 73 70 C68.67106404 68.40512886 66.56928197 69.18214581 63 72 Z " fill="#000000" transform="translate(12,6)"/>
<path d="M0 0 C1.65 0.33 3.3 0.66 5 1 C4.67 2.65 4.34 4.3 4 6 C2.35 5.67 0.7 5.34 -1 5 C-0.67 3.35 -0.34 1.7 0 0 Z " fill="#000000" transform="translate(46,39)"/>
</svg>
