<?xml version="1.0" encoding="UTF-8"?>
<!DOCTYPE svg PUBLIC "-//W3C//DTD SVG 1.1//EN" "http://www.w3.org/Graphics/SVG/1.1/DTD/svg11.dtd">
<svg xmlns="http://www.w3.org/2000/svg" version="1.1" width="96px" height="96px" style="shape-rendering:geometricPrecision; text-rendering:geometricPrecision; image-rendering:optimizeQuality; fill-rule:evenodd; clip-rule:evenodd" xmlns:xlink="http://www.w3.org/1999/xlink">
<g><path style="opacity:0.973" fill="#000000" d="M 5.5,5.5 C 7.5273,5.33788 9.5273,5.50454 11.5,6C 12.5,8.33333 14.1667,10 16.5,11C 37.1667,11.6667 57.8333,11.6667 78.5,11C 80.8333,10 82.5,8.33333 83.5,6C 85.4727,5.50454 87.4727,5.33788 89.5,5.5C 89.6602,7.19919 89.4935,8.86586 89,10.5C 87.3573,12.9768 85.524,15.3102 83.5,17.5C 87,23.1667 90.5,28.8333 94,34.5C 95.4757,38.8444 93.9757,41.1778 89.5,41.5C 89.9689,57.2626 89.4689,72.9292 88,88.5C 61.5722,89.6611 35.0722,89.8278 8.5,89C 7.58377,88.6258 6.75044,88.1258 6,87.5C 5.50008,72.1703 5.33341,56.837 5.5,41.5C 1.02428,41.1778 -0.475723,38.8444 1,34.5C 4.5,28.8333 8,23.1667 11.5,17.5C 10.1851,15.6841 8.68511,14.0175 7,12.5C 5.79777,10.3225 5.29777,7.9892 5.5,5.5 Z M 19.5,17.5 C 38.1696,17.3334 56.8363,17.5001 75.5,18C 79.1667,23.6667 82.8333,29.3333 86.5,35C 60.5,35.6667 34.5,35.6667 8.5,35C 12.391,29.2824 16.0577,23.4491 19.5,17.5 Z M 11.5,41.5 C 35.5,41.5 59.5,41.5 83.5,41.5C 83.5,49.5 83.5,57.5 83.5,65.5C 76.5,65.5 69.5,65.5 62.5,65.5C 62.8,60.9014 62.4667,56.4014 61.5,52C 56.7768,50.8881 51.9435,50.3881 47,50.5C 42.5853,50.5145 38.252,50.8478 34,51.5C 32.6211,56.036 32.1211,60.7027 32.5,65.5C 25.5,65.5 18.5,65.5 11.5,65.5C 11.5,57.5 11.5,49.5 11.5,41.5 Z M 38.5,56.5 C 44.5,56.5 50.5,56.5 56.5,56.5C 56.5,65.5 56.5,74.5 56.5,83.5C 50.5,83.5 44.5,83.5 38.5,83.5C 38.5,74.5 38.5,65.5 38.5,56.5 Z M 11.5,71.5 C 18.5,71.5 25.5,71.5 32.5,71.5C 32.5,75.5 32.5,79.5 32.5,83.5C 25.5,83.5 18.5,83.5 11.5,83.5C 11.5,79.5 11.5,75.5 11.5,71.5 Z M 62.5,71.5 C 69.5,71.5 76.5,71.5 83.5,71.5C 83.5,75.5 83.5,79.5 83.5,83.5C 76.5,83.5 69.5,83.5 62.5,83.5C 62.5,79.5 62.5,75.5 62.5,71.5 Z"/></g>
</svg>
