<?xml version="1.0" standalone="no"?>
<!DOCTYPE svg PUBLIC "-//W3C//DTD SVG 20010904//EN"
 "http://www.w3.org/TR/2001/REC-SVG-20010904/DTD/svg10.dtd">
<svg version="1.0" xmlns="http://www.w3.org/2000/svg"
 width="97.000000pt" height="96.000000pt" viewBox="0 0 97.000000 96.000000"
 preserveAspectRatio="xMidYMid meet">

<g transform="translate(0.000000,96.000000) scale(0.100000,-0.100000)"
fill="#000000" stroke="none">
<path d="M190 874 c0 -14 -5 -34 -10 -45 -12 -22 -61 -49 -90 -49 -16 0 -20
-6 -20 -30 0 -25 4 -30 25 -30 14 0 41 7 60 14 35 15 35 15 35 -10 0 -14 -5
-34 -10 -45 -12 -22 -61 -49 -90 -49 -16 0 -20 -6 -20 -30 0 -25 4 -30 25 -30
14 0 41 7 60 14 l35 15 0 -120 0 -119 -60 0 -60 0 0 -30 0 -30 60 0 60 0 0
-45 c0 -45 0 -45 35 -45 35 0 35 0 35 45 l0 45 308 -2 307 -3 0 -25 0 -25
-200 -5 c-208 -5 -234 -10 -256 -51 -14 -27 -14 -81 0 -108 23 -43 60 -51 226
-51 l155 0 0 30 0 30 -153 0 c-161 0 -177 4 -177 45 0 42 14 45 217 45 159 0
198 3 218 16 32 21 47 66 33 104 -19 56 -41 60 -318 60 l-250 0 90 135 c50 74
94 135 98 135 4 -1 22 -21 40 -45 18 -25 39 -45 47 -45 7 0 35 27 60 60 44 57
48 60 90 60 40 0 47 -4 67 -35 25 -38 34 -41 60 -21 15 11 10 23 -61 132 -101
156 -133 181 -194 153 -14 -6 -91 -112 -195 -270 -209 -316 -212 -318 -212
-140 l0 120 35 -15 c19 -7 46 -14 60 -14 21 0 25 5 25 30 0 24 -4 30 -20 30
-29 0 -78 27 -90 49 -5 11 -10 31 -10 45 0 25 0 25 35 10 19 -7 46 -14 60 -14
21 0 25 5 25 30 0 24 -4 30 -20 30 -29 0 -78 27 -90 49 -5 11 -10 31 -10 45 0
23 -4 26 -35 26 -31 0 -35 -3 -35 -26z m570 -94 l41 -60 -40 0 c-36 0 -44 -5
-75 -46 -19 -25 -37 -46 -40 -47 -3 -1 -16 13 -30 32 l-25 33 50 74 c27 41 56
74 64 74 8 0 33 -27 55 -60z"/>
</g>
</svg>
