<?xml version="1.0" encoding="UTF-8"?>
<svg version="1.1" xmlns="http://www.w3.org/2000/svg" width="96" height="96">
<path d="M0 0 C2.16355702 1.25368905 4.11652139 2.53833254 6.015625 4.16796875 C6.015625 4.82796875 6.015625 5.48796875 6.015625 6.16796875 C-5.51209342 6.5138003 -5.51209342 6.5138003 -10.171875 5.10546875 C-17.74356048 3.24357888 -23.90465638 4.91132819 -30.6875 8.59765625 C-36.76058284 12.74966187 -39.785732 18.64933901 -41.57421875 25.6640625 C-42.87791126 33.62279484 -40.49048448 40.57694295 -35.984375 47.16796875 C-31.08969432 52.3454532 -24.96798855 55.04928726 -17.984375 56.16796875 C-11.82768691 56.32112019 -6.60706487 54.51927542 -0.984375 52.16796875 C0.50390625 53.21875 0.50390625 53.21875 2.015625 55.16796875 C2.30859375 58.5234375 2.30859375 58.5234375 2.203125 62.35546875 C2.16251953 64.26392578 2.16251953 64.26392578 2.12109375 66.2109375 C2.08628906 67.18675781 2.05148438 68.16257812 2.015625 69.16796875 C2.89863281 69.04035156 3.78164063 68.91273437 4.69140625 68.78125 C14.48051055 67.97162483 14.48051055 67.97162483 19.11328125 71.58203125 C20.5415316 73.06538461 21.88515341 74.59910155 23.22705078 76.16064453 C25.89374644 79.2198842 27.59389648 80.92367591 31.703125 81.35546875 C32.79625 81.29359375 33.889375 81.23171875 35.015625 81.16796875 C34.79312316 74.02052489 32.91942386 71.08319724 27.79296875 66.26171875 C27.17289444 65.65154907 26.55282013 65.04137939 25.91395569 64.41271973 C23.94291565 62.48065168 21.94890196 60.57444005 19.953125 58.66796875 C18.60712712 57.35710639 17.26270729 56.04462161 15.91992188 54.73046875 C12.63645762 51.52390152 9.33217278 48.34029124 6.015625 45.16796875 C7.005625 43.18796875 7.995625 41.20796875 9.015625 39.16796875 C11.325625 39.16796875 13.635625 39.16796875 16.015625 39.16796875 C15.90283203 40.04541748 15.79003906 40.92286621 15.67382812 41.8269043 C16.12842536 46.27059224 18.24853383 47.88797298 21.484375 50.625 C22.62529631 51.66556786 23.76456695 52.70794793 24.90234375 53.75195312 C26.69625048 55.36744546 28.49875109 56.96605685 30.33447266 58.53393555 C41.0776927 67.79064474 41.0776927 67.79064474 41.796875 74.78271484 C41.92098612 78.96782277 41.57525831 83.02264047 41.015625 87.16796875 C25.792537 88.6071976 25.792537 88.6071976 21.03515625 84.75390625 C19.35162349 82.73366694 17.6719475 80.71020758 15.99609375 78.68359375 C10.34312577 73.91228133 3.08978955 74.81135788 -3.984375 75.16796875 C-4.314375 70.87796875 -4.644375 66.58796875 -4.984375 62.16796875 C-5.974375 62.49796875 -6.964375 62.82796875 -7.984375 63.16796875 C-19.91779181 63.99423257 -29.17284279 63.33685713 -38.796875 55.54296875 C-44.5521022 50.11370132 -48.67074598 42.69759436 -49.22265625 34.7265625 C-49.55140074 22.68189259 -47.82424149 14.20846981 -39.27734375 5.1484375 C-28.56603623 -4.10306661 -12.75307354 -5.81914719 0 0 Z " fill="#000000" transform="translate(51.984375,5.83203125)"/>
<path d="M0 0 C1.98 0 3.96 0 6 0 C6.17015625 0.60328125 6.3403125 1.2065625 6.515625 1.828125 C8.38820603 8.31178931 8.38820603 8.31178931 13 13 C15.66311829 13.8842984 18.23645675 14.44729135 21 15 C21 16.98 21 18.96 21 21 C20.39671875 21.17015625 19.7934375 21.3403125 19.171875 21.515625 C12.68821069 23.38820603 12.68821069 23.38820603 8 28 C7.1157016 30.66311829 6.55270865 33.23645675 6 36 C4.02 36 2.04 36 0 36 C-0.17015625 35.39671875 -0.3403125 34.7934375 -0.515625 34.171875 C-2.38820603 27.68821069 -2.38820603 27.68821069 -7 23 C-9.66311829 22.1157016 -12.23645675 21.55270865 -15 21 C-15 19.02 -15 17.04 -15 15 C-14.39671875 14.82984375 -13.7934375 14.6596875 -13.171875 14.484375 C-6.68821069 12.61179397 -6.68821069 12.61179397 -2 8 C-1.1157016 5.33688171 -0.55270865 2.76354325 0 0 Z M2 15 C1.34 16.32 0.68 17.64 0 19 C1.98 19.99 1.98 19.99 4 21 C4.66 19.68 5.32 18.36 6 17 C4.68 16.34 3.36 15.68 2 15 Z " fill="#000000" transform="translate(66,3)"/>
<path d="M0 0 C3.55247432 0.87379409 4.94828114 2.4927342 6.9375 5.4765625 C7.63597125 8.3162489 7.63597125 10.6368761 6.9375 13.4765625 C4.94828114 16.4603908 3.55247432 18.07933091 0 18.953125 C-3.92313492 19.23547183 -5.73362371 18.69581336 -9.0625 16.4765625 C-11.28175086 13.14768621 -11.82140933 11.33719742 -11.5390625 7.4140625 C-10.07519871 1.46261629 -5.59135555 -0.40240816 0 0 Z M-4.0625 7.4765625 C-4.0625 8.7965625 -4.0625 10.1165625 -4.0625 11.4765625 C-2.7425 11.4765625 -1.4225 11.4765625 -0.0625 11.4765625 C-0.0625 10.1565625 -0.0625 8.8365625 -0.0625 7.4765625 C-1.3825 7.4765625 -2.7025 7.4765625 -4.0625 7.4765625 Z " fill="#000000" transform="translate(32.0625,20.5234375)"/>
</svg>
