<?xml version="1.0" encoding="UTF-8"?>
<svg version="1.1" xmlns="http://www.w3.org/2000/svg" width="97" height="96">
<path d="M0 0 C3.67560013 2.62889839 6.71122778 5.9697465 9.875 9.1875 C10.76703125 10.05181641 11.6590625 10.91613281 12.578125 11.80664062 C13.41601562 12.64775391 14.25390625 13.48886719 15.1171875 14.35546875 C16.27130127 15.51018677 16.27130127 15.51018677 17.44873047 16.68823242 C19 19 19 19 18.94018555 21.56835938 C17.91253337 24.22621855 16.88189891 25.58231367 14.83984375 27.55078125 C13.8972168 28.47407227 13.8972168 28.47407227 12.93554688 29.41601562 C12.27619141 30.04185547 11.61683594 30.66769531 10.9375 31.3125 C10.27427734 31.95767578 9.61105469 32.60285156 8.92773438 33.26757812 C7.29382329 34.85447018 5.65131853 36.43126328 4 38 C5.31595441 40.94648117 6.69264087 42.89142533 9.07421875 45.05859375 C9.95110352 45.88520508 9.95110352 45.88520508 10.84570312 46.72851562 C12.07794272 47.87189807 13.31762926 49.00730471 14.56445312 50.13476562 C15.43553711 50.96331055 15.43553711 50.96331055 16.32421875 51.80859375 C17.1299231 52.54807251 17.1299231 52.54807251 17.9519043 53.30249023 C19 55 19 55 18.90844727 57.42285156 C17.15241141 62.40450017 12.94125479 65.67011696 9.25 69.3125 C8.43789063 70.14845703 7.62578125 70.98441406 6.7890625 71.84570312 C5.99757812 72.63525391 5.20609375 73.42480469 4.390625 74.23828125 C3.3082959 75.321698 3.3082959 75.321698 2.20410156 76.42700195 C-0.52241333 78.37282998 -1.70703139 78.38546327 -5 78 C-7.01266479 76.62898254 -7.01266479 76.62898254 -8.97998047 74.68286133 C-9.72359833 73.95823196 -10.46721619 73.2336026 -11.23336792 72.48701477 C-12.02002838 71.69337021 -12.80668884 70.89972565 -13.6171875 70.08203125 C-14.4337381 69.27263596 -15.2502887 68.46324066 -16.09158325 67.62931824 C-17.81404222 65.91464392 -19.53011576 64.19353484 -21.24023438 62.46655273 C-23.86679406 59.82076601 -26.52134559 57.20560344 -29.1796875 54.59179688 C-30.84812772 52.92364698 -32.51485447 51.25378118 -34.1796875 49.58203125 C-34.97849335 48.79850784 -35.77729919 48.01498444 -36.60031128 47.2077179 C-37.32501617 46.46732773 -38.04972107 45.72693756 -38.79638672 44.96411133 C-39.44082733 44.31791336 -40.08526794 43.67171539 -40.74923706 43.00593567 C-42 41 -42 41 -41.90890503 38.4942627 C-40.88376627 35.68102559 -39.76150847 34.24898474 -37.66113281 32.12768555 C-36.95659973 31.40731613 -36.25206665 30.68694672 -35.52618408 29.94474792 C-34.37626984 28.80227348 -34.37626984 28.80227348 -33.203125 27.63671875 C-32.4173407 26.84473587 -31.6315564 26.05275299 -30.82196045 25.23677063 C-29.1591084 23.56681951 -27.49110097 21.90198831 -25.81835938 20.24194336 C-23.25774721 17.69520523 -20.7220348 15.12539542 -18.1875 12.55273438 C-16.56916021 10.93344351 -14.94941471 9.31555605 -13.328125 7.69921875 C-12.56961243 6.92744797 -11.81109985 6.15567719 -11.02960205 5.36051941 C-10.31246033 4.6559108 -9.5953186 3.95130219 -8.85644531 3.2253418 C-8.23102844 2.60088669 -7.60561157 1.97643158 -6.96124268 1.33305359 C-4.452333 -0.37224841 -2.9770237 -0.3784144 0 0 Z M-5.72265625 10.625 C-6.83846648 11.74749173 -7.95162666 12.87262226 -9.0625 14 C-9.63033203 14.57234375 -10.19816406 15.1446875 -10.78320312 15.734375 C-12.19103589 17.15403829 -13.59580248 18.57674097 -15 20 C-13.41332422 23.90285767 -10.86649519 26.33520982 -7.875 29.25 C-6.96492188 30.14203125 -6.05484375 31.0340625 -5.1171875 31.953125 C-4.41851562 32.62859375 -3.71984375 33.3040625 -3 34 C1.56030824 30.19524578 5.85089392 26.25030379 10 22 C8.41379873 18.12060491 5.90079013 15.66638913 2.9375 12.75 C2.03902344 11.85796875 1.14054687 10.9659375 0.21484375 10.046875 C-2.69547649 7.22955559 -2.69547649 7.22955559 -5.72265625 10.625 Z M-23.72265625 28.625 C-24.83846648 29.74749173 -25.95162666 30.87262226 -27.0625 32 C-27.63033203 32.57234375 -28.19816406 33.1446875 -28.78320312 33.734375 C-30.19103589 35.15403829 -31.59580248 36.57674097 -33 38 C-31.41332422 41.90285767 -28.86649519 44.33520982 -25.875 47.25 C-24.96492188 48.14203125 -24.05484375 49.0340625 -23.1171875 49.953125 C-22.41851562 50.62859375 -21.71984375 51.3040625 -21 52 C-16.43969176 48.19524578 -12.14910608 44.25030379 -8 40 C-9.58620127 36.12060491 -12.09920987 33.66638913 -15.0625 30.75 C-15.96097656 29.85796875 -16.85945313 28.9659375 -17.78515625 28.046875 C-20.69547649 25.22955559 -20.69547649 25.22955559 -23.72265625 28.625 Z M-5.72265625 46.625 C-6.83846648 47.74749173 -7.95162666 48.87262226 -9.0625 50 C-9.63033203 50.57234375 -10.19816406 51.1446875 -10.78320312 51.734375 C-12.19103589 53.15403829 -13.59580248 54.57674097 -15 56 C-13.41332422 59.90285767 -10.86649519 62.33520982 -7.875 65.25 C-6.96492188 66.14203125 -6.05484375 67.0340625 -5.1171875 67.953125 C-4.41851562 68.62859375 -3.71984375 69.3040625 -3 70 C1.56030824 66.19524578 5.85089392 62.25030379 10 58 C8.41379873 54.12060491 5.90079013 51.66638913 2.9375 48.75 C2.03902344 47.85796875 1.14054687 46.9659375 0.21484375 46.046875 C-2.69547649 43.22955559 -2.69547649 43.22955559 -5.72265625 46.625 Z " fill="#000000" transform="translate(43,9)"/>
<path d="M0 0 C5.09014855 0.95207481 8.31148109 5.52620711 11.81469727 9.09301758 C12.6506543 9.90125977 13.48661133 10.70950195 14.34790039 11.54223633 C15.13745117 12.33500977 15.92700195 13.1277832 16.74047852 13.94458008 C17.46275635 14.66726074 18.18503418 15.38994141 18.92919922 16.13452148 C20.98815773 19.18892556 21.06930016 20.84986577 20.50219727 24.46801758 C18.92919922 26.80151367 18.92919922 26.80151367 16.74047852 28.99145508 C15.55615234 30.18061523 15.55615234 30.18061523 14.34790039 31.39379883 C13.51194336 32.20204102 12.67598633 33.0102832 11.81469727 33.84301758 C10.58976562 35.09018555 10.58976562 35.09018555 9.34008789 36.36254883 C3.30779408 42.31180701 3.30779408 42.31180701 0.01806641 42.94970703 C-5.26472042 41.93826226 -8.73371192 36.9816997 -12.37280273 33.28051758 C-13.71084961 31.98404297 -13.71084961 31.98404297 -15.07592773 30.66137695 C-15.91381836 29.82026367 -16.75170898 28.97915039 -17.61499023 28.11254883 C-18.38439941 27.34273682 -19.15380859 26.5729248 -19.9465332 25.77978516 C-21.49780273 23.46801758 -21.49780273 23.46801758 -21.48168945 20.9543457 C-19.54771587 16.06710327 -15.4303128 12.78927167 -11.74780273 9.15551758 C-10.93569336 8.31956055 -10.12358398 7.48360352 -9.28686523 6.62231445 C-8.49538086 5.83276367 -7.70389648 5.04321289 -6.88842773 4.22973633 C-5.80609863 3.14631958 -5.80609863 3.14631958 -4.7019043 2.04101562 C-2.49780273 0.46801758 -2.49780273 0.46801758 0 0 Z M-3.22045898 11.09301758 C-4.33626921 12.2155093 -5.4494294 13.34063984 -6.56030273 14.46801758 C-7.12813477 15.04036133 -7.6959668 15.61270508 -8.28100586 16.20239258 C-9.68883862 17.62205587 -11.09360521 19.04475855 -12.49780273 20.46801758 C-10.91112695 24.37087525 -8.36429792 26.8032274 -5.37280273 29.71801758 C-4.46272461 30.61004883 -3.55264648 31.50208008 -2.61499023 32.42114258 C-1.91631836 33.09661133 -1.21764648 33.77208008 -0.49780273 34.46801758 C4.06250551 30.66326336 8.35309118 26.71832137 12.50219727 22.46801758 C10.915996 18.58862248 8.40298739 16.13440671 5.43969727 13.21801758 C4.5412207 12.32598633 3.64274414 11.43395508 2.71704102 10.51489258 C-0.19327923 7.69757317 -0.19327923 7.69757317 -3.22045898 11.09301758 Z " fill="#000000" transform="translate(76.497802734375,26.531982421875)"/>
</svg>
