<?xml version="1.0" encoding="UTF-8"?>
<!DOCTYPE svg PUBLIC "-//W3C//DTD SVG 1.1//EN" "http://www.w3.org/Graphics/SVG/1.1/DTD/svg11.dtd">
<svg xmlns="http://www.w3.org/2000/svg" version="1.1" width="96px" height="96px" style="shape-rendering:geometricPrecision; text-rendering:geometricPrecision; image-rendering:optimizeQuality; fill-rule:evenodd; clip-rule:evenodd" xmlns:xlink="http://www.w3.org/1999/xlink">
<g><path style="opacity:0.966" fill="#000000" d="M 95.5,46.5 C 95.5,48.8333 95.5,51.1667 95.5,53.5C 92.5,53.5 89.5,53.5 86.5,53.5C 86.6665,64.505 86.4998,75.505 86,86.5C 85.6258,87.4162 85.1258,88.2496 84.5,89C 72.3333,89.1667 60.1667,89.3333 48,89.5C 35.0753,89.6488 22.242,89.1488 9.5,88C 8.51221,76.5809 8.17887,65.0809 8.5,53.5C 5.5,53.5 2.5,53.5 -0.5,53.5C -0.5,51.1667 -0.5,48.8333 -0.5,46.5C 3.0078,45.4959 6.17446,43.8293 9,41.5C 10.1711,38.6497 11.3377,35.8164 12.5,33C 15.146,32.5026 17.8127,32.3359 20.5,32.5C 20.6653,28.8183 20.4986,25.1516 20,21.5C 11.8553,25.6769 7.02202,23.3436 5.5,14.5C 8.57164,14.1875 11.405,14.8542 14,16.5C 24.9186,11.1206 36.0853,6.4539 47.5,2.5C 48.8333,2.66667 50.1667,2.83333 51.5,3C 61.2737,7.63694 71.107,12.1369 81,16.5C 83.595,14.8542 86.4284,14.1875 89.5,14.5C 87.978,23.3436 83.1447,25.6769 75,21.5C 74.5014,25.1516 74.3347,28.8183 74.5,32.5C 77.1873,32.3359 79.854,32.5026 82.5,33C 83.9532,40.2863 88.2865,44.7863 95.5,46.5 Z M 46.5,9.5 C 52.5826,11.7051 58.5826,14.2051 64.5,17C 53.1667,17.6667 41.8333,17.6667 30.5,17C 36.0447,14.7249 41.3781,12.2249 46.5,9.5 Z M 26.5,23.5 C 29.5,23.5 32.5,23.5 35.5,23.5C 35.5,26.5 35.5,29.5 35.5,32.5C 32.5,32.5 29.5,32.5 26.5,32.5C 26.5,29.5 26.5,26.5 26.5,23.5 Z M 41.5,23.5 C 45.5,23.5 49.5,23.5 53.5,23.5C 53.5,26.5 53.5,29.5 53.5,32.5C 49.5,32.5 45.5,32.5 41.5,32.5C 41.5,29.5 41.5,26.5 41.5,23.5 Z M 59.5,23.5 C 62.5,23.5 65.5,23.5 68.5,23.5C 68.5,26.5 68.5,29.5 68.5,32.5C 65.5,32.5 62.5,32.5 59.5,32.5C 59.5,29.5 59.5,26.5 59.5,23.5 Z M 17.5,38.5 C 37.5,38.5 57.5,38.5 77.5,38.5C 77.8844,41.7693 79.2177,44.6026 81.5,47C 58.8333,47.6667 36.1667,47.6667 13.5,47C 15.7823,44.6026 17.1156,41.7693 17.5,38.5 Z M 14.5,53.5 C 36.5,53.5 58.5,53.5 80.5,53.5C 80.5,63.5 80.5,73.5 80.5,83.5C 75.5,83.5 70.5,83.5 65.5,83.5C 65.6663,76.1591 65.4997,68.8258 65,61.5C 64.2496,60.8742 63.4162,60.3742 62.5,60C 51.9231,59.1809 41.4231,59.3476 31,60.5C 29.5679,68.0542 29.0679,75.7208 29.5,83.5C 24.5,83.5 19.5,83.5 14.5,83.5C 14.5,73.5 14.5,63.5 14.5,53.5 Z M 35.5,65.5 C 38.5,65.5 41.5,65.5 44.5,65.5C 44.5,71.5 44.5,77.5 44.5,83.5C 41.5,83.5 38.5,83.5 35.5,83.5C 35.5,77.5 35.5,71.5 35.5,65.5 Z M 50.5,65.5 C 53.5,65.5 56.5,65.5 59.5,65.5C 59.5,71.5 59.5,77.5 59.5,83.5C 56.5,83.5 53.5,83.5 50.5,83.5C 50.5,77.5 50.5,71.5 50.5,65.5 Z"/></g>
</svg>
