<?xml version="1.0" encoding="UTF-8"?>
<!DOCTYPE svg PUBLIC "-//W3C//DTD SVG 1.1//EN" "http://www.w3.org/Graphics/SVG/1.1/DTD/svg11.dtd">
<svg xmlns="http://www.w3.org/2000/svg" version="1.1" width="97px" height="96px" style="shape-rendering:geometricPrecision; text-rendering:geometricPrecision; image-rendering:optimizeQuality; fill-rule:evenodd; clip-rule:evenodd" xmlns:xlink="http://www.w3.org/1999/xlink">
<g><path style="opacity:0.928" fill="#000000" d="M 96.5,19.5 C 96.5,24.8333 96.5,30.1667 96.5,35.5C 94.6837,46.7903 93.8503,58.457 94,70.5C 89.2633,71.4692 84.43,71.8025 79.5,71.5C 79.5,77.5 79.5,83.5 79.5,89.5C 77.1667,89.5 74.8333,89.5 72.5,89.5C 72.5,87.5 72.5,85.5 72.5,83.5C 67.8333,83.5 63.1667,83.5 58.5,83.5C 58.5,85.5 58.5,87.5 58.5,89.5C 56.1667,89.5 53.8333,89.5 51.5,89.5C 51.5,83.5 51.5,77.5 51.5,71.5C 46.456,71.1725 41.456,71.5059 36.5,72.5C 38.8352,85.3324 33.5018,90.8324 20.5,89C 13.0785,85.3105 10.7451,79.4772 13.5,71.5C 10.2234,71.7839 7.05675,71.4505 4,70.5C 3.50014,58.8381 3.33347,47.1714 3.5,35.5C 2.5,35.5 1.5,35.5 0.5,35.5C -1.00138,27.2208 0.998617,20.0541 6.5,14C 7.83333,13.3333 9.16667,12.6667 10.5,12C 31.164,11.5 51.8306,11.3334 72.5,11.5C 72.5,8.5 72.5,5.5 72.5,2.5C 74.8333,2.5 77.1667,2.5 79.5,2.5C 79.5,5.5 79.5,8.5 79.5,11.5C 86.8947,10.6991 92.5613,13.3658 96.5,19.5 Z M 15.5,17.5 C 37.8358,17.3334 60.1692,17.5 82.5,18C 88.7199,19.2529 91.3866,23.0863 90.5,29.5C 62.8333,29.5 35.1667,29.5 7.5,29.5C 6.70992,23.0563 9.37658,19.0563 15.5,17.5 Z M 10.5,35.5 C 24.1667,35.5 37.8333,35.5 51.5,35.5C 51.5,45.5 51.5,55.5 51.5,65.5C 37.8333,65.5 24.1667,65.5 10.5,65.5C 10.5,55.5 10.5,45.5 10.5,35.5 Z M 58.5,35.5 C 63.1667,35.5 67.8333,35.5 72.5,35.5C 72.5,41.5 72.5,47.5 72.5,53.5C 67.8333,53.5 63.1667,53.5 58.5,53.5C 58.5,47.5 58.5,41.5 58.5,35.5 Z M 79.5,35.5 C 82.1667,35.5 84.8333,35.5 87.5,35.5C 87.5,45.5 87.5,55.5 87.5,65.5C 84.8333,65.5 82.1667,65.5 79.5,65.5C 79.5,55.5 79.5,45.5 79.5,35.5 Z M 58.5,59.5 C 63.1667,59.5 67.8333,59.5 72.5,59.5C 72.5,61.5 72.5,63.5 72.5,65.5C 67.8333,65.5 63.1667,65.5 58.5,65.5C 58.5,63.5 58.5,61.5 58.5,59.5 Z M 24.5,71.5 C 30.06,72.9556 31.56,76.2889 29,81.5C 24.2763,84.1979 21.1096,82.8645 19.5,77.5C 19.8048,74.2067 21.4715,72.2067 24.5,71.5 Z M 58.5,71.5 C 63.1667,71.5 67.8333,71.5 72.5,71.5C 72.5,73.5 72.5,75.5 72.5,77.5C 67.8333,77.5 63.1667,77.5 58.5,77.5C 58.5,75.5 58.5,73.5 58.5,71.5 Z"/></g>
</svg>
