<?xml version="1.0" encoding="UTF-8"?>
<svg version="1.1" xmlns="http://www.w3.org/2000/svg" width="96" height="96">
<path d="M0 0 C1.98 0.66 3.96 1.32 6 2 C5.10975526 6.93681176 4.10519818 11.74160446 2.6484375 16.54296875 C2.40955811 17.35725342 2.17067871 18.17153809 1.92456055 19.01049805 C1.44295546 20.63717146 0.94002454 22.25772287 0.41333008 23.87036133 C-1.48882415 30.4119493 -0.43973347 34.74615185 2 41 C2.33201416 41.89912109 2.66402832 42.79824219 3.00610352 43.72460938 C4.04066564 46.49383524 5.10814979 49.24794973 6.1875 52 C6.91318784 53.85298226 7.63599864 55.7070947 8.35546875 57.5625 C8.82956177 58.77099609 8.82956177 58.77099609 9.31323242 60.00390625 C10 62 10 62 10 64 C12.97 63.505 12.97 63.505 16 63 C16.495 66.465 16.495 66.465 17 70 C16.01 70.33 15.02 70.66 14 71 C14.66 74.3 15.32 77.6 16 81 C13.03 81.99 13.03 81.99 10 83 C7 77.375 7 77.375 7 74 C4.03 74.495 4.03 74.495 1 75 C0.67 72.69 0.34 70.38 0 68 C1.485 67.01 1.485 67.01 3 66 C0.36 59.4 -2.28 52.8 -5 46 C-7.97 56.89 -7.97 56.89 -11 68 C-9.35 68.66 -7.7 69.32 -6 70 C-6.33 72.31 -6.66 74.62 -7 77 C-8.98 76.67 -10.96 76.34 -13 76 C-13.99 78.64 -14.98 81.28 -16 84 C-17.98 83.34 -19.96 82.68 -22 82 C-21.34 79.03 -20.68 76.06 -20 73 C-21.98 72.67 -23.96 72.34 -26 72 C-25.34 69.69 -24.68 67.38 -24 65 C-22.35 65.33 -20.7 65.66 -19 66 C-17.8677538 62.21045974 -16.7455611 58.4180104 -15.625 54.625 C-15.30789063 53.56410156 -14.99078125 52.50320312 -14.6640625 51.41015625 C-14.03857452 49.2861033 -13.43065153 47.15679951 -12.84033203 45.02270508 C-12.320712 43.15361279 -11.76590055 41.29343669 -11.15576172 39.4519043 C-8.91894528 31.63417519 -11.7538422 25.78679866 -14.875 18.5625 C-15.83448698 16.2528596 -16.79039754 13.94172918 -17.7421875 11.62890625 C-18.1738623 10.61900635 -18.60553711 9.60910645 -19.05029297 8.56860352 C-20 6 -20 6 -20 3 C-18.02 2.34 -16.04 1.68 -14 1 C-13.67386719 1.79664063 -13.34773437 2.59328125 -13.01171875 3.4140625 C-12.35623047 5.00347656 -12.35623047 5.00347656 -11.6875 6.625 C-11.25824219 7.66914063 -10.82898437 8.71328125 -10.38671875 9.7890625 C-9.03312885 12.92329038 -7.55561716 15.96175652 -6 19 C-5.85377197 18.45996338 -5.70754395 17.91992676 -5.55688477 17.36352539 C-4.89556445 14.92889078 -4.22910312 12.49569321 -3.5625 10.0625 C-3.33240234 9.21236328 -3.10230469 8.36222656 -2.86523438 7.48632812 C-2.53168945 6.27299805 -2.53168945 6.27299805 -2.19140625 5.03515625 C-1.88505249 3.91185913 -1.88505249 3.91185913 -1.57250977 2.76586914 C-1 1 -1 1 0 0 Z " fill="#000000" transform="translate(29,9)"/>
<path d="M0 0 C1.98 0 3.96 0 6 0 C11.38885939 11.1141044 12.8492822 20.35067124 12.62109375 32.6171875 C12.61241296 34.25244021 12.60628237 35.88770823 12.60255432 37.52297974 C12.58552709 41.77430727 12.53166305 46.02438306 12.47027588 50.27526855 C12.42625733 53.76675122 12.4090453 57.25813845 12.39300442 60.7498455 C12.37347769 64.91403027 12.34293948 69.07810097 12.30859375 73.2421875 C12.30216795 74.03618832 12.29574215 74.83018913 12.28912163 75.64825058 C12.26825366 77.87613578 12.23997474 80.1037818 12.20874023 82.33154297 C12.19286362 83.59868134 12.176987 84.8658197 12.16062927 86.1713562 C12 89 12 89 11 90 C8.3226862 90.09981214 5.67695825 90.13879875 3 90.125 C1.87464844 90.13080078 1.87464844 90.13080078 0.7265625 90.13671875 C-4.87338947 90.12661053 -4.87338947 90.12661053 -6 89 C-6.12608519 86.77966933 -6.18087796 84.55527619 -6.20874023 82.33154297 C-6.21852402 81.63372711 -6.2283078 80.93591125 -6.23838806 80.21694946 C-6.26845007 77.89204822 -6.28977752 75.56720605 -6.30859375 73.2421875 C-6.31516558 72.44541721 -6.3217374 71.64864693 -6.32850838 70.82773209 C-6.36117639 66.59594755 -6.38558813 62.36418864 -6.4050293 58.13232422 C-6.42271538 54.65212302 -6.4573153 51.17275168 -6.50756836 47.69287109 C-6.56837504 43.47702995 -6.59858987 39.26194736 -6.60820198 35.04568863 C-6.61667098 33.45033073 -6.6352726 31.85498828 -6.6649456 30.25988388 C-6.86471802 18.89231107 -4.96916191 10.24851091 0 0 Z M2 14 C-0.64381296 18.94413841 -0.22504028 23.86800024 -0.125 29.3125 C-0.11597656 30.24384766 -0.10695313 31.17519531 -0.09765625 32.13476562 C-0.07418263 34.4234436 -0.04134729 36.71158672 0 39 C1.98 39 3.96 39 6 39 C6.05834353 35.77090994 6.09371115 32.54195662 6.125 29.3125 C6.14175781 28.40048828 6.15851563 27.48847656 6.17578125 26.54882812 C6.20936169 21.93151773 6.23556185 18.18067669 4 14 C3.34 14 2.68 14 2 14 Z M0 45 C0 47.97 0 50.94 0 54 C1.98 54 3.96 54 6 54 C6 51.03 6 48.06 6 45 C4.02 45 2.04 45 0 45 Z M0 60 C0 67.92 0 75.84 0 84 C1.98 84 3.96 84 6 84 C6 76.08 6 68.16 6 60 C4.02 60 2.04 60 0 60 Z " fill="#000000" transform="translate(81,3)"/>
<path d="M0 0 C1.98 0 3.96 0 6 0 C11.38885939 11.1141044 12.8492822 20.35067124 12.62109375 32.6171875 C12.61241296 34.25244021 12.60628237 35.88770823 12.60255432 37.52297974 C12.58552709 41.77430727 12.53166305 46.02438306 12.47027588 50.27526855 C12.42625733 53.76675122 12.4090453 57.25813845 12.39300442 60.7498455 C12.37347769 64.91403027 12.34293948 69.07810097 12.30859375 73.2421875 C12.30216795 74.03618832 12.29574215 74.83018913 12.28912163 75.64825058 C12.26825366 77.87613578 12.23997474 80.1037818 12.20874023 82.33154297 C12.19286362 83.59868134 12.176987 84.8658197 12.16062927 86.1713562 C12 89 12 89 11 90 C8.3226862 90.09981214 5.67695825 90.13879875 3 90.125 C1.87464844 90.13080078 1.87464844 90.13080078 0.7265625 90.13671875 C-4.87338947 90.12661053 -4.87338947 90.12661053 -6 89 C-6.12608519 86.77966933 -6.18087796 84.55527619 -6.20874023 82.33154297 C-6.21852402 81.63372711 -6.2283078 80.93591125 -6.23838806 80.21694946 C-6.26845007 77.89204822 -6.28977752 75.56720605 -6.30859375 73.2421875 C-6.31516558 72.44541721 -6.3217374 71.64864693 -6.32850838 70.82773209 C-6.36117639 66.59594755 -6.38558813 62.36418864 -6.4050293 58.13232422 C-6.42271538 54.65212302 -6.4573153 51.17275168 -6.50756836 47.69287109 C-6.56837504 43.47702995 -6.59858987 39.26194736 -6.60820198 35.04568863 C-6.61667098 33.45033073 -6.6352726 31.85498828 -6.6649456 30.25988388 C-6.86471802 18.89231107 -4.96916191 10.24851091 0 0 Z M2 14 C-0.64381296 18.94413841 -0.22504028 23.86800024 -0.125 29.3125 C-0.11597656 30.24384766 -0.10695313 31.17519531 -0.09765625 32.13476562 C-0.07418263 34.4234436 -0.04134729 36.71158672 0 39 C1.98 39 3.96 39 6 39 C6.05834353 35.77090994 6.09371115 32.54195662 6.125 29.3125 C6.14175781 28.40048828 6.15851562 27.48847656 6.17578125 26.54882812 C6.20936169 21.93151773 6.23556185 18.18067669 4 14 C3.34 14 2.68 14 2 14 Z M0 45 C0 47.97 0 50.94 0 54 C1.98 54 3.96 54 6 54 C6 51.03 6 48.06 6 45 C4.02 45 2.04 45 0 45 Z M0 60 C0 67.92 0 75.84 0 84 C1.98 84 3.96 84 6 84 C6 76.08 6 68.16 6 60 C4.02 60 2.04 60 0 60 Z " fill="#000000" transform="translate(57,3)"/>
</svg>
