<?xml version="1.0" encoding="UTF-8"?>
<!DOCTYPE svg PUBLIC "-//W3C//DTD SVG 1.1//EN" "http://www.w3.org/Graphics/SVG/1.1/DTD/svg11.dtd">
<svg xmlns="http://www.w3.org/2000/svg" version="1.1" width="96px" height="96px" style="shape-rendering:geometricPrecision; text-rendering:geometricPrecision; image-rendering:optimizeQuality; fill-rule:evenodd; clip-rule:evenodd" xmlns:xlink="http://www.w3.org/1999/xlink">
<g><path style="opacity:0.975" fill="#212121" d="M 17.5,2.5 C 20.6074,2.35123 23.6074,2.85123 26.5,4C 41.299,11.0687 56.299,17.5687 71.5,23.5C 71.5,17.5 71.5,11.5 71.5,5.5C 73.5,5.5 75.5,5.5 77.5,5.5C 77.5,30.5 77.5,55.5 77.5,80.5C 81.5,80.5 85.5,80.5 89.5,80.5C 89.5,82.5 89.5,84.5 89.5,86.5C 85.5,86.5 81.5,86.5 77.5,86.5C 77.5,88.5 77.5,90.5 77.5,92.5C 75.5,92.5 73.5,92.5 71.5,92.5C 71.5,90.5 71.5,88.5 71.5,86.5C 55.5,86.5 39.5,86.5 23.5,86.5C 23.5,88.5 23.5,90.5 23.5,92.5C 21.5,92.5 19.5,92.5 17.5,92.5C 17.5,90.5 17.5,88.5 17.5,86.5C 13.5,86.5 9.5,86.5 5.5,86.5C 5.5,84.5 5.5,82.5 5.5,80.5C 9.5,80.5 13.5,80.5 17.5,80.5C 17.5,54.5 17.5,28.5 17.5,2.5 Z M 23.5,11.5 C 39.5,18.1667 55.5,24.8333 71.5,31.5C 71.5,47.8333 71.5,64.1667 71.5,80.5C 68.5,80.5 65.5,80.5 62.5,80.5C 62.6665,68.1622 62.4999,55.8288 62,43.5C 61.5,43 61,42.5 60.5,42C 51.8333,41.3333 43.1667,41.3333 34.5,42C 34,42.5 33.5,43 33,43.5C 32.5001,55.8288 32.3335,68.1622 32.5,80.5C 29.5,80.5 26.5,80.5 23.5,80.5C 23.5,57.5 23.5,34.5 23.5,11.5 Z M 38.5,47.5 C 44.5,47.5 50.5,47.5 56.5,47.5C 56.5,54.5 56.5,61.5 56.5,68.5C 50.5,68.5 44.5,68.5 38.5,68.5C 38.5,61.5 38.5,54.5 38.5,47.5 Z M 38.5,74.5 C 44.5,74.5 50.5,74.5 56.5,74.5C 56.5,76.5 56.5,78.5 56.5,80.5C 50.5,80.5 44.5,80.5 38.5,80.5C 38.5,78.5 38.5,76.5 38.5,74.5 Z"/></g>
<g><path style="opacity:0.859" fill="#222222" d="M 29.5,23.5 C 31.5,23.5 33.5,23.5 35.5,23.5C 35.5,25.5 35.5,27.5 35.5,29.5C 33.5,29.5 31.5,29.5 29.5,29.5C 29.5,27.5 29.5,25.5 29.5,23.5 Z"/></g>
</svg>
