<?xml version="1.0" encoding="UTF-8"?>
<svg version="1.1" xmlns="http://www.w3.org/2000/svg" width="96" height="96">
<path d="M0 0 C1.18613892 0.00785522 1.18613892 0.00785522 2.39624023 0.01586914 C3.67724609 0.02070312 3.67724609 0.02070312 4.98413086 0.02563477 C5.88196289 0.03401367 6.77979492 0.04239258 7.70483398 0.05102539 C8.6065332 0.05553711 9.50823242 0.06004883 10.43725586 0.06469727 C12.67234712 0.07652315 14.90730835 0.09300319 17.14233398 0.11352539 C17.63733398 1.59852539 17.63733398 1.59852539 18.14233398 3.11352539 C18.92479492 3.10192383 19.70725586 3.09032227 20.51342773 3.07836914 C22.03129883 3.06483398 22.03129883 3.06483398 23.57983398 3.05102539 C24.58916992 3.03942383 25.59850586 3.02782227 26.63842773 3.01586914 C29.14233398 3.11352539 29.14233398 3.11352539 30.14233398 4.11352539 C30.24149969 5.73610083 30.27313175 7.3629237 30.27514648 8.98852539 C30.27643555 9.97336914 30.27772461 10.95821289 30.27905273 11.97290039 C30.27518555 13.00930664 30.27131836 14.04571289 30.26733398 15.11352539 C30.27120117 16.14993164 30.27506836 17.18633789 30.27905273 18.25415039 C30.27776367 19.23899414 30.27647461 20.22383789 30.27514648 21.23852539 C30.27401855 22.14860352 30.27289063 23.05868164 30.27172852 23.99633789 C30.14233398 26.11352539 30.14233398 26.11352539 29.14233398 27.11352539 C26.44578545 27.1867216 23.7754194 27.20595076 21.07983398 27.17602539 C20.3212207 27.17151367 19.56260742 27.16700195 18.78100586 27.16235352 C16.90141527 27.15053219 15.021865 27.13259617 13.14233398 27.11352539 C12.64733398 25.62852539 12.64733398 25.62852539 12.14233398 24.11352539 C9.17233398 24.11352539 6.20233398 24.11352539 3.14233398 24.11352539 C2.19840784 32.5009834 3.4555862 37.97118551 8.51000977 44.57226562 C11.02699669 47.65484862 13.58471426 50.70023553 16.1652832 53.72973633 C19.42499134 57.6600636 22.39918601 61.79134899 25.39233398 65.92602539 C30.28658612 72.63450847 35.28995026 79.23390928 40.44702148 85.74243164 C42.14233398 88.11352539 42.14233398 88.11352539 42.14233398 90.11352539 C38.97687185 90.71569557 36.29487343 90.84957536 33.14233398 90.11352539 C30.04883007 87.46711183 27.97917598 84.25764373 25.76733398 80.86352539 C25.1653418 79.99083008 24.56334961 79.11813477 23.94311523 78.21899414 C22.82332468 76.59269079 21.71585612 74.95778063 20.62524414 73.31176758 C17.95941327 68.9200579 17.95941327 68.9200579 13.82983398 66.26586914 C9.95003901 65.95571111 6.75731444 65.74450761 3.63549805 68.39086914 C1.56663657 70.61615341 -0.28925378 72.93540081 -2.06469727 75.40039062 C-3.9864093 78.04968094 -5.40639546 79.90343925 -8.40844727 81.30102539 C-10.85766602 81.11352539 -10.85766602 81.11352539 -13.09594727 79.24243164 C-13.78043945 78.39551758 -14.46493164 77.54860352 -15.17016602 76.67602539 C-15.86754883 75.83168945 -16.56493164 74.98735352 -17.28344727 74.11743164 C-18.06268555 73.12549805 -18.06268555 73.12549805 -18.85766602 72.11352539 C-21.37331052 74.39314833 -23.32152587 76.70918756 -25.11938477 79.56665039 C-31.50541112 89.6475053 -31.50541112 89.6475053 -35.51000977 91.02758789 C-37.98266602 90.98852539 -37.98266602 90.98852539 -41.85766602 90.11352539 C-40.5232523 87.28602575 -39.01997251 84.81741971 -37.16235352 82.30493164 C-36.61901367 81.56799072 -36.07567383 80.8310498 -35.51586914 80.07177734 C-34.92741211 79.2811792 -34.33895508 78.49058105 -33.73266602 77.67602539 C-32.81517578 76.43695435 -32.81517578 76.43695435 -31.87915039 75.17285156 C-25.80946287 67.00005713 -19.63856968 58.90458837 -13.45141602 50.82055664 C-12.84837646 50.0093335 -12.24533691 49.19811035 -11.62402344 48.36230469 C-9.85766602 46.11352539 -9.85766602 46.11352539 -8.08544922 44.39013672 C-1.55551801 37.61997068 -3.00279035 27.95942088 -3.04516602 19.17602539 C-3.03099908 16.60076379 -3.00868107 14.02571669 -2.98298645 11.45054626 C-2.96993245 9.85469695 -2.96520629 8.25875391 -2.9695282 6.66285706 C-2.96427778 0.18115247 -2.96427778 0.18115247 0 0 Z M3.14233398 6.11352539 C3.14233398 10.07352539 3.14233398 14.03352539 3.14233398 18.11352539 C6.11233398 18.11352539 9.08233398 18.11352539 12.14233398 18.11352539 C12.14233398 14.15352539 12.14233398 10.19352539 12.14233398 6.11352539 C9.17233398 6.11352539 6.20233398 6.11352539 3.14233398 6.11352539 Z M18.14233398 9.11352539 C18.14233398 13.07352539 18.14233398 17.03352539 18.14233398 21.11352539 C20.12233398 21.11352539 22.10233398 21.11352539 24.14233398 21.11352539 C24.14233398 17.15352539 24.14233398 13.19352539 24.14233398 9.11352539 C22.16233398 9.11352539 20.18233398 9.11352539 18.14233398 9.11352539 Z M-0.85766602 46.11352539 C-2.46682634 47.82276296 -2.46682634 47.82276296 -4.11547852 50.05102539 C-5.05327148 51.26918945 -5.05327148 51.26918945 -6.01000977 52.51196289 C-6.66098633 53.37047852 -7.31196289 54.22899414 -7.98266602 55.11352539 C-8.64137695 55.97204102 -9.30008789 56.83055664 -9.97875977 57.71508789 C-11.61069098 59.84369382 -13.23665694 61.97659718 -14.85766602 64.11352539 C-13.2449791 66.82577157 -11.60864727 69.48705351 -9.85766602 72.11352539 C-9.19766602 72.11352539 -8.53766602 72.11352539 -7.85766602 72.11352539 C-6.44294999 70.51943842 -5.09842502 68.86245674 -3.79516602 67.17602539 C0.89329184 61.14800815 0.89329184 61.14800815 3.42749023 60.79711914 C4.34401367 60.7159082 5.26053711 60.63469727 6.20483398 60.55102539 C7.12393555 60.46723633 8.04303711 60.38344727 8.98999023 60.29711914 C9.70026367 60.2365332 10.41053711 60.17594727 11.14233398 60.11352539 C6.49940258 52.84604972 6.49940258 52.84604972 1.14233398 46.11352539 C0.48233398 46.11352539 -0.17766602 46.11352539 -0.85766602 46.11352539 Z " fill="#212121" transform="translate(47.857666015625,2.886474609375)"/>
</svg>
