<?xml version="1.0" encoding="UTF-8"?>
<!DOCTYPE svg PUBLIC "-//W3C//DTD SVG 1.1//EN" "http://www.w3.org/Graphics/SVG/1.1/DTD/svg11.dtd">
<svg xmlns="http://www.w3.org/2000/svg" version="1.1" width="96px" height="96px" style="shape-rendering:geometricPrecision; text-rendering:geometricPrecision; image-rendering:optimizeQuality; fill-rule:evenodd; clip-rule:evenodd" xmlns:xlink="http://www.w3.org/1999/xlink">
<g><path style="opacity:0.946" fill="#000000" d="M 44.5,2.5 C 46.5273,2.33788 48.5273,2.50454 50.5,3C 63.1667,10 75.8333,17 88.5,24C 87.5214,26.1373 86.1881,27.9706 84.5,29.5C 82.2011,28.3649 80.0344,27.0316 78,25.5C 77.5002,34.8274 77.3335,44.1607 77.5,53.5C 81.5,53.5 85.5,53.5 89.5,53.5C 89.5,55.5 89.5,57.5 89.5,59.5C 84.8215,59.3342 80.1548,59.5008 75.5,60C 69.3333,65.5 63.1667,71 57,76.5C 56.501,80.8206 56.3343,85.1539 56.5,89.5C 54.5,89.5 52.5,89.5 50.5,89.5C 50.5,87.5 50.5,85.5 50.5,83.5C 48.5,83.5 46.5,83.5 44.5,83.5C 44.5,85.5 44.5,87.5 44.5,89.5C 42.5,89.5 40.5,89.5 38.5,89.5C 40.1487,81.9614 38.1487,75.7948 32.5,71C 28.1667,67.3333 23.8333,63.6667 19.5,60C 14.8452,59.5008 10.1785,59.3342 5.5,59.5C 5.5,57.5 5.5,55.5 5.5,53.5C 9.5,53.5 13.5,53.5 17.5,53.5C 17.6665,44.1607 17.4998,34.8274 17,25.5C 12.3568,31.1384 8.85676,30.6384 6.5,24C 19.3914,17.0591 32.058,9.89248 44.5,2.5 Z M 46.5,9.5 C 54.8505,13.426 63.0172,17.7594 71,22.5C 71.4998,32.828 71.6665,43.1613 71.5,53.5C 66.5,53.5 61.5,53.5 56.5,53.5C 56.6663,46.825 56.4996,40.1583 56,33.5C 50.3333,32.1667 44.6667,32.1667 39,33.5C 38.5004,40.1583 38.3337,46.825 38.5,53.5C 33.5,53.5 28.5,53.5 23.5,53.5C 23.3335,43.1613 23.5002,32.828 24,22.5C 31.6446,18.2661 39.1446,13.9328 46.5,9.5 Z M 44.5,38.5 C 46.5,38.5 48.5,38.5 50.5,38.5C 50.5,43.5 50.5,48.5 50.5,53.5C 48.5,53.5 46.5,53.5 44.5,53.5C 44.5,48.5 44.5,43.5 44.5,38.5 Z M 29.5,60.5 C 32.2869,59.5233 35.2869,59.19 38.5,59.5C 38.8076,61.924 38.4742,64.2573 37.5,66.5C 35.079,64.0663 32.4123,62.0663 29.5,60.5 Z M 44.5,59.5 C 46.5,59.5 48.5,59.5 50.5,59.5C 50.5,61.5 50.5,63.5 50.5,65.5C 48.5,65.5 46.5,65.5 44.5,65.5C 44.5,63.5 44.5,61.5 44.5,59.5 Z M 56.5,59.5 C 59.1873,59.3359 61.854,59.5026 64.5,60C 62.2953,62.5402 59.7953,64.7068 57,66.5C 56.5034,64.1902 56.3367,61.8568 56.5,59.5 Z M 44.5,71.5 C 46.5,71.5 48.5,71.5 50.5,71.5C 50.5,73.5 50.5,75.5 50.5,77.5C 48.5,77.5 46.5,77.5 44.5,77.5C 44.5,75.5 44.5,73.5 44.5,71.5 Z"/></g>
<g><path style="opacity:0.867" fill="#000000" d="M 45.5,17.5 C 50.1585,17.0146 51.4919,18.848 49.5,23C 44.7282,23.8104 43.3948,21.9771 45.5,17.5 Z"/></g>
</svg>
