<?xml version="1.0" encoding="UTF-8"?>
<svg version="1.1" xmlns="http://www.w3.org/2000/svg" width="96" height="96">
<path d="M0 0 C17.01536578 9.40813108 31.84225832 28.12672298 37.37109375 46.671875 C39.55736226 58.24144503 39.23172167 69.72395392 33 80 C26.88207325 88.86505405 18.5650178 94.03050969 8 96 C-4.00331894 97.15905064 -12.97707314 94.59818936 -22.515625 87.2421875 C-29.18685583 81.22129678 -33.88219246 72.77152385 -34.43359375 63.703125 C-34.45701358 62.21893419 -34.45773741 60.73423761 -34.4375 59.25 C-34.42992676 58.46359131 -34.42235352 57.67718262 -34.41455078 56.86694336 C-34.08673242 45.17196345 -29.50182963 32.26052082 -21.125 23.8125 C-20.42375 23.214375 -19.7225 22.61625 -19 22 C-16.36 23.32 -13.72 24.64 -11 26 C-10.76539062 25.22398438 -10.53078125 24.44796875 -10.2890625 23.6484375 C-8.59108694 18.84265211 -6.49046146 14.25918276 -4.375 9.625 C-3.95476563 8.69816406 -3.53453125 7.77132813 -3.1015625 6.81640625 C-2.07035118 4.54305401 -1.03643137 2.27097594 0 0 Z M3 11 C-0.63 18.59 -4.26 26.18 -8 34 C-11.73069283 33.25386143 -14.57404607 32.46826597 -18 31 C-24.87412711 41.65600934 -29.68114554 52.58140794 -27.4375 65.5625 C-25.93507579 71.22469736 -23.00378653 78.24155557 -17.8046875 81.28515625 C-17.20914062 81.52105469 -16.61359375 81.75695312 -16 82 C-16.06960937 81.27296875 -16.13921875 80.5459375 -16.2109375 79.796875 C-16.8212619 68.46227909 -12.71018797 60.81349723 -5.375 52.375 C-2.75816561 49.53780061 -0.57225751 47.50325769 3 46 C11.50344174 53.42554067 19.02918415 61.87721046 20.42578125 73.5625 C20.43587535 76.41576616 20.32685331 79.16727135 20 82 C24.41583731 80.03115534 26.77775985 77.23776028 29 73 C33.27604171 61.49892231 32.34518673 51.60346457 27.6953125 40.390625 C21.9728836 28.94576721 13.45912673 19.50853903 4 11 C3.67 11 3.34 11 3 11 Z M-0.83984375 56.72265625 C-6.80775467 63.37959971 -10.68748016 68.58686314 -10.35546875 77.8515625 C-9.66597902 82.0188081 -7.51108296 84.81272053 -4.25 87.375 C0.96637867 88.82399408 4.64896519 88.70053657 9.375 86.25 C12.36029111 83.69117904 13.70712842 81.81171721 14.3359375 77.921875 C14.50154048 68.71434931 10.52052677 63.20671161 4.5859375 56.46875 C2.2111358 54.26942626 1.48936194 54.54180761 -0.83984375 56.72265625 Z " fill="#212121" transform="translate(46,0)"/>
</svg>
