<?xml version="1.0" encoding="UTF-8"?>
<!DOCTYPE svg PUBLIC "-//W3C//DTD SVG 1.1//EN" "http://www.w3.org/Graphics/SVG/1.1/DTD/svg11.dtd">
<svg xmlns="http://www.w3.org/2000/svg" version="1.1" width="96px" height="96px" style="shape-rendering:geometricPrecision; text-rendering:geometricPrecision; image-rendering:optimizeQuality; fill-rule:evenodd; clip-rule:evenodd" xmlns:xlink="http://www.w3.org/1999/xlink">
<g><path style="opacity:0.921" fill="#000000" d="M 42.5,5.5 C 47.449,4.95886 52.1156,5.79219 56.5,8C 68,20.8333 79.5,33.6667 91,46.5C 93.1539,50.0584 92.6539,53.2251 89.5,56C 86.5184,56.498 83.5184,56.6646 80.5,56.5C 80.9529,67.2702 80.4529,77.9369 79,88.5C 68.741,89.161 58.4077,89.4943 48,89.5C 37.0731,89.6452 26.2397,89.1452 15.5,88C 14.5134,77.5821 14.1801,67.0821 14.5,56.5C 11.4816,56.6646 8.48162,56.498 5.5,56C 2.34609,53.2251 1.84609,50.0584 4,46.5C 13,36.1667 22,25.8333 31,15.5C 34.4351,11.5549 38.2685,8.22161 42.5,5.5 Z M 43.5,12.5 C 48.5376,11.4482 52.5376,12.9482 55.5,17C 50.1667,23 44.8333,23 39.5,17C 41.0414,15.6288 42.3747,14.1288 43.5,12.5 Z M 34.5,23.5 C 38.596,26.126 43.096,27.7926 48,28.5C 52.2426,27.7959 56.0759,26.1292 59.5,23.5C 64.645,26.8115 68.9784,30.9781 72.5,36C 68.4389,34.332 64.1056,33.1653 59.5,32.5C 57.8333,32.6667 56.1667,32.8333 54.5,33C 52.4404,34.6965 50.1071,35.8631 47.5,36.5C 44.8929,35.8631 42.5596,34.6965 40.5,33C 34.4202,31.6534 28.9202,32.8201 24,36.5C 23.5,36.3333 23,36.1667 22.5,36C 26.0304,31.3045 30.0304,27.1379 34.5,23.5 Z M 34.5,38.5 C 38.596,41.126 43.096,42.7926 48,43.5C 52.2426,42.7959 56.0759,41.1292 59.5,38.5C 64.6801,42.8408 70.5135,44.1742 77,42.5C 80.1542,44.3208 82.6542,46.8208 84.5,50C 59.8333,50.6667 35.1667,50.6667 10.5,50C 12.1255,47.3723 14.1255,45.039 16.5,43C 23.3999,44.76 29.3999,43.26 34.5,38.5 Z M 20.5,56.5 C 38.5,56.5 56.5,56.5 74.5,56.5C 74.5,65.5 74.5,74.5 74.5,83.5C 69.5,83.5 64.5,83.5 59.5,83.5C 59.8967,78.0414 59.3967,72.7081 58,67.5C 53.8604,62.7886 48.6938,61.2886 42.5,63C 40.3762,64.1217 38.5429,65.6217 37,67.5C 35.6033,72.7081 35.1033,78.0414 35.5,83.5C 30.5,83.5 25.5,83.5 20.5,83.5C 20.5,74.5 20.5,65.5 20.5,56.5 Z M 46.5,68.5 C 49.6748,68.8399 51.8415,70.5066 53,73.5C 53.4983,76.8168 53.665,80.1501 53.5,83.5C 49.5,83.5 45.5,83.5 41.5,83.5C 41.335,80.1501 41.5017,76.8168 42,73.5C 43.025,71.313 44.525,69.6464 46.5,68.5 Z"/></g>
</svg>
