<?xml version="1.0" encoding="UTF-8"?>
<svg version="1.1" xmlns="http://www.w3.org/2000/svg" width="96" height="96">
<path d="M0 0 C11.88 0 23.76 0 36 0 C36 1.98 36 3.96 36 6 C31.05 6 26.1 6 21 6 C21 7.98 21 9.96 21 12 C21.763125 12.28875 22.52625 12.5775 23.3125 12.875 C26 14 26 14 29 16 C29.66 15.67 30.32 15.34 31 15 C35.09157355 14.48487383 39.23589546 14.05632731 42.95703125 16.046875 C45.8536725 18.44312324 47.82277822 20.38466709 48.23828125 24.171875 C48.41123369 30.1796965 47.89772117 33.37145612 44 38 C44.33 38.66 44.66 39.32 45 40 C45.53804631 44.90415979 45.84938792 49.41636343 43 53.625 C42.34 54.40875 41.68 55.1925 41 56 C41.33 56.66 41.66 57.32 42 58 C42.61072034 62.85086439 42.96063374 67.48870338 39.9375 71.5625 C36.51975534 74.39850089 34.38334042 74.8281043 30 75 C30.103125 76.19625 30.20625 77.3925 30.3125 78.625 C30.33070512 82.04149487 29.81131276 83.80238403 27.625 86.4375 C23.62998181 90.33739871 20.96998034 90.39074518 15.55078125 90.359375 C11.44131496 89.78039966 9.78650423 88.00085071 7 85 C5.39274365 81.78548731 5.94251815 78.56387464 6 75 C4.948125 74.95875 3.89625 74.9175 2.8125 74.875 C-1.02222945 73.99489816 -2.77622303 73.13117577 -5.12890625 69.953125 C-7.23306431 65.23528183 -6.59248499 59.77745497 -5 55 C-5.639375 54.319375 -6.27875 53.63875 -6.9375 52.9375 C-9.8758522 48.75257415 -9.51421242 44.97352994 -9 40 C-8.67 39.01 -8.34 38.02 -8 37 C-8.639375 36.319375 -9.27875 35.63875 -9.9375 34.9375 C-12.52678941 31.24972418 -12.62977252 28.86540347 -12.46484375 24.4453125 C-11.70807062 20.46430429 -9.9412861 18.73119424 -7 16 C-4.52621876 14.76310938 -2.82084683 14.86689913 -0.0625 14.875 C0.81277344 14.87242188 1.68804687 14.86984375 2.58984375 14.8671875 C5 15 5 15 8 16 C9.70250393 14.71274093 11.37064759 13.37868281 13 12 C13.66 12 14.32 12 15 12 C15 10.02 15 8.04 15 6 C10.05 6 5.1 6 0 6 C0 4.02 0 2.04 0 0 Z M17 18 C15.35 19.65 13.7 21.3 12 23 C12.63921965 25.47627099 12.63921965 25.47627099 14 28 C16.52372901 29.36078035 16.52372901 29.36078035 19 30 C20.65 28.35 22.3 26.7 24 25 C23.36078035 22.52372901 23.36078035 22.52372901 22 20 C19.47627099 18.63921965 19.47627099 18.63921965 17 18 Z M-1 21 C-2.65 22.65 -4.3 24.3 -6 26 C-5.36078035 28.47627099 -5.36078035 28.47627099 -4 31 C-1.47627099 32.36078035 -1.47627099 32.36078035 1 33 C2.65 31.35 4.3 29.7 6 28 C5.36078035 25.52372901 5.36078035 25.52372901 4 23 C1.47627099 21.63921965 1.47627099 21.63921965 -1 21 Z M35 21 C33.35 22.65 31.7 24.3 30 26 C30.63921965 28.47627099 30.63921965 28.47627099 32 31 C34.52372901 32.36078035 34.52372901 32.36078035 37 33 C38.65 31.35 40.3 29.7 42 28 C41.36078035 25.52372901 41.36078035 25.52372901 40 23 C37.47627099 21.63921965 37.47627099 21.63921965 35 21 Z M17 36 C15.35 37.65 13.7 39.3 12 41 C12.63921965 43.47627099 12.63921965 43.47627099 14 46 C16.52372901 47.36078035 16.52372901 47.36078035 19 48 C20.65 46.35 22.3 44.7 24 43 C23.36078035 40.52372901 23.36078035 40.52372901 22 38 C19.47627099 36.63921965 19.47627099 36.63921965 17 36 Z M2 39 C-0.77122275 41.35426499 -0.77122275 41.35426499 -3 44 C-2.05237764 47.27360452 -1.55474945 48.67284007 1.4375 50.4375 C2.283125 50.623125 3.12875 50.80875 4 51 C4.99 50.34 5.98 49.68 7 49 C6.67 46.03 6.34 43.06 6 40 C4.68 39.67 3.36 39.34 2 39 Z M30 40 C29.53348793 42.12576782 29.53348793 42.12576782 29.375 44.5625 C29.30023438 45.38878906 29.22546875 46.21507812 29.1484375 47.06640625 C29.09945312 47.70449219 29.05046875 48.34257813 29 49 C31.475 49.99 31.475 49.99 34 51 C35.65 49.35 37.3 47.7 39 46 C38.36078035 43.52372901 38.36078035 43.52372901 37 41 C33.57147877 38.98691067 33.57147877 38.98691067 30 40 Z M17 54 C15.35 55.65 13.7 57.3 12 59 C12.63921965 61.47627099 12.63921965 61.47627099 14 64 C16.52372901 65.36078035 16.52372901 65.36078035 19 66 C20.65 64.35 22.3 62.7 24 61 C23.36078035 58.52372901 23.36078035 58.52372901 22 56 C19.47627099 54.63921965 19.47627099 54.63921965 17 54 Z M30 57 C29.34 60.63 28.68 64.26 28 68 C28.99 68.33 29.98 68.66 31 69 C32.65 67.35 34.3 65.7 36 64 C35.28254644 61.53770003 35.28254644 61.53770003 34 59 C32.68 58.34 31.36 57.68 30 57 Z M2.4375 59.5 C1.2309375 60.7375 1.2309375 60.7375 0 62 C0.63921965 64.47627099 0.63921965 64.47627099 2 67 C4.52372901 68.36078035 4.52372901 68.36078035 7 69 C8.3609623 66.2780754 7.70366248 64.8168043 7.0625 61.875 C6.77052734 60.50988281 6.77052734 60.50988281 6.47265625 59.1171875 C6.31667969 58.41851562 6.16070312 57.71984375 6 57 C4.52263018 56.88361269 4.52263018 56.88361269 2.4375 59.5 Z M17 72 C15.35 73.65 13.7 75.3 12 77 C12.63921965 79.47627099 12.63921965 79.47627099 14 82 C16.52372901 83.36078035 16.52372901 83.36078035 19 84 C20.65 82.35 22.3 80.7 24 79 C23.36078035 76.52372901 23.36078035 76.52372901 22 74 C19.47627099 72.63921965 19.47627099 72.63921965 17 72 Z " fill="#000000" transform="translate(30,3)"/>
</svg>
