<?xml version="1.0" encoding="UTF-8"?>
<!DOCTYPE svg PUBLIC "-//W3C//DTD SVG 1.1//EN" "http://www.w3.org/Graphics/SVG/1.1/DTD/svg11.dtd">
<svg xmlns="http://www.w3.org/2000/svg" version="1.1" width="96px" height="96px" style="shape-rendering:geometricPrecision; text-rendering:geometricPrecision; image-rendering:optimizeQuality; fill-rule:evenodd; clip-rule:evenodd" xmlns:xlink="http://www.w3.org/1999/xlink">
<g><path style="opacity:0.953" fill="#000000" d="M 44.5,8.5 C 46.5273,8.33788 48.5273,8.50454 50.5,9C 63.3802,15.2737 76.3802,21.2737 89.5,27C 90.3333,27.8333 91.1667,28.6667 92,29.5C 92.1436,36.639 92.3102,43.639 92.5,50.5C 92.6526,53.7062 91.9859,56.7062 90.5,59.5C 92.5017,66.3549 93.0017,73.3549 92,80.5C 91.6042,83.6964 90.4375,86.5297 88.5,89C 61.1667,89.6667 33.8333,89.6667 6.5,89C 3.11373,83.8904 1.7804,78.2237 2.5,72C 2.29405,67.477 2.96072,63.1437 4.5,59C 2.98623,56.4129 2.31957,53.5795 2.5,50.5C 2.68978,43.639 2.85645,36.639 3,29.5C 3.83333,28.6667 4.66667,27.8333 5.5,27C 18.817,21.2945 31.817,15.1279 44.5,8.5 Z M 46.5,15.5 C 59.7151,20.7727 72.7151,26.606 85.5,33C 86.4061,34.6995 86.7394,36.5328 86.5,38.5C 60.5,38.5 34.5,38.5 8.5,38.5C 8.26057,36.5328 8.59391,34.6995 9.5,33C 21.9243,27.1187 34.2576,21.2854 46.5,15.5 Z M 10.5,44.5 C 17.8333,44.5 25.1667,44.5 32.5,44.5C 32.5,53.5 32.5,62.5 32.5,71.5C 24.4723,71.831 16.4723,71.4977 8.5,70.5C 9.11527,67.9607 9.78193,65.4607 10.5,63C 15.8229,62.5006 21.1563,62.334 26.5,62.5C 26.5,60.5 26.5,58.5 26.5,56.5C 21.1254,56.8282 15.7921,56.4948 10.5,55.5C 8.14634,51.8555 8.14634,48.1889 10.5,44.5 Z M 38.5,44.5 C 44.5,44.5 50.5,44.5 56.5,44.5C 56.5,53.5 56.5,62.5 56.5,71.5C 50.5,71.5 44.5,71.5 38.5,71.5C 38.5,62.5 38.5,53.5 38.5,44.5 Z M 62.5,44.5 C 69.8635,44.1694 77.1968,44.5027 84.5,45.5C 87.0027,48.997 87.0027,52.497 84.5,56C 79.1771,56.4994 73.8437,56.666 68.5,56.5C 68.5,58.5 68.5,60.5 68.5,62.5C 73.8746,62.1718 79.2079,62.5052 84.5,63.5C 85.1667,65.8333 85.8333,68.1667 86.5,70.5C 78.5277,71.4977 70.5277,71.831 62.5,71.5C 62.5,62.5 62.5,53.5 62.5,44.5 Z M 9.5,77.5 C 34.8421,77.1669 60.1754,77.5002 85.5,78.5C 84.6906,80.0709 84.3573,81.7376 84.5,83.5C 59.8333,83.5 35.1667,83.5 10.5,83.5C 10.1667,81.5 9.83333,79.5 9.5,77.5 Z"/></g>
<g><path style="opacity:0.867" fill="#000000" d="M 45.5,50.5 C 50.1585,50.0146 51.4919,51.848 49.5,56C 44.7282,56.8104 43.3948,54.9771 45.5,50.5 Z"/></g>
</svg>
